<svg width="30" height="30" viewBox="0 0 30 30" fill="none" xmlns="http://www.w3.org/2000/svg">
<path d="M15 30C23.2843 30 30 23.2843 30 15C30 6.71573 23.2843 0 15 0C6.71573 0 0 6.71573 0 15C0 23.2843 6.71573 30 15 30Z" fill="#ECEFF0"/>
<path d="M15.0001 2.32007L14.8301 2.90007V19.6701L15.0001 19.8401L22.7801 15.2401L15.0001 2.32007Z" fill="#343434"/>
<path d="M15 2.32007L7.20996 15.2401L15 19.8401V11.7001V2.32007Z" fill="#8C8C8C"/>
<path d="M14.9999 21.3101L14.8999 21.4301V27.4001L14.9999 27.6801L22.7899 16.7101L14.9999 21.3101Z" fill="#3C3C3B"/>
<path d="M15 27.6801V21.3101L7.20996 16.7101L15 27.6801Z" fill="#8C8C8C"/>
<path d="M15 19.84L22.78 15.24L15 11.7V19.84Z" fill="#141414"/>
<path d="M7.20996 15.24L15 19.84V11.7L7.20996 15.24Z" fill="#393939"/>
</svg>
