<?xml version="1.0" standalone="no"?>
<!DOCTYPE svg PUBLIC "-//W3C//DTD SVG 20010904//EN"
 "http://www.w3.org/TR/2001/REC-SVG-20010904/DTD/svg10.dtd">
<svg version="1.0" xmlns="http://www.w3.org/2000/svg"
 width="2000.000000pt" height="2000.000000pt" viewBox="0 0 2000.000000 2000.000000"
 preserveAspectRatio="xMidYMid meet">

<g transform="translate(0.000000,2000.000000) scale(0.100000,-0.100000)"
fill="#000000" stroke="none">
<path d="M9485 19989 c-2087 -109 -4089 -869 -5725 -2174 -1115 -889 -2028
-2009 -2677 -3285 -556 -1095 -911 -2303 -1033 -3515 -34 -341 -41 -467 -47
-865 -10 -639 28 -1160 128 -1770 517 -3150 2510 -5867 5359 -7304 2075 -1048
4448 -1341 6709 -830 2057 464 3916 1568 5307 3149 2151 2446 2976 5783 2213
8954 -197 822 -530 1687 -934 2426 -858 1574 -2106 2877 -3635 3797 -1415 851
-3005 1333 -4680 1418 -227 11 -754 11 -985 -1z m-4115 -3734 c25 -26 279
-271 565 -543 286 -273 667 -637 847 -809 179 -172 329 -313 332 -313 3 0 68
36 144 80 174 102 533 281 723 359 450 186 1042 336 1466 371 154 13 863 13
1068 0 536 -33 1178 -205 1760 -472 152 -69 455 -232 575 -309 136 -87 119
-88 224 22 122 128 762 793 1220 1267 331 343 431 442 450 442 21 0 1606
-1500 1606 -1521 0 -17 -281 -317 -1180 -1258 -333 -348 -606 -637 -608 -641
-1 -4 19 -45 46 -91 182 -316 379 -743 482 -1044 250 -734 340 -1551 255
-2325 -88 -794 -348 -1550 -776 -2248 l-59 -97 38 -35 c163 -150 1317 -1250
1841 -1756 l43 -42 -93 -103 c-204 -224 -963 -1020 -1300 -1364 l-157 -159
-59 54 c-355 334 -1603 1521 -1828 1741 l-80 78 -150 -90 c-185 -112 -540
-288 -740 -367 -439 -175 -864 -285 -1365 -353 -123 -16 -228 -22 -508 -26
-457 -7 -784 12 -1053 63 -690 128 -1351 378 -1894 713 l-160 99 -29 -26 c-16
-15 -300 -310 -631 -657 -1060 -1110 -1186 -1240 -1198 -1243 -7 -1 -66 48
-132 110 -202 187 -975 930 -1240 1190 l-249 245 274 289 c151 159 371 390
490 514 380 397 1039 1094 1098 1161 21 25 22 27 7 68 -8 24 -48 102 -89 175
-397 706 -622 1444 -685 2255 -14 172 -14 617 -1 792 65 845 322 1652 758
2381 l100 166 -146 139 c-910 861 -1642 1570 -1642 1590 0 14 82 104 521 568
140 148 423 449 628 668 l372 398 37 -30 c20 -16 57 -50 82 -76z"/>
<path d="M9765 13280 c-1112 -92 -2078 -723 -2602 -1700 -130 -241 -256 -570
-307 -803 -55 -245 -61 -313 -61 -717 0 -430 7 -501 80 -785 230 -904 821
-1654 1639 -2081 608 -317 1289 -435 1956 -338 815 118 1585 566 2093 1219
379 486 609 1071 668 1699 17 181 7 573 -19 741 -91 587 -317 1113 -665 1547
-104 131 -381 409 -517 519 -397 323 -899 552 -1427 649 -257 48 -607 69 -838
50z"/>
</g>
</svg>
