<?xml version="1.0" standalone="no"?>
<!DOCTYPE svg PUBLIC "-//W3C//DTD SVG 20010904//EN"
 "http://www.w3.org/TR/2001/REC-SVG-20010904/DTD/svg10.dtd">
<svg version="1.0" xmlns="http://www.w3.org/2000/svg"
 width="1360.000000pt" height="1360.000000pt" viewBox="0 0 1360.000000 1360.000000"
 preserveAspectRatio="xMidYMid meet">
<metadata>
Created by potrace 1.16, written by Peter Selinger 2001-2019
</metadata>
<g transform="translate(0.000000,1360.000000) scale(0.100000,-0.100000)"
fill="red" stroke="none">
<path d="M0 6800 l0 -6800 6800 0 6800 0 0 6800 0 6800 -6800 0 -6800 0 0
-6800z m7660 3382 c564 -91 936 -209 1270 -404 332 -193 604 -389 748 -538 75
-78 215 -264 290 -387 74 -120 204 -370 242 -468 251 -633 264 -1361 35 -2005
-73 -207 -235 -515 -363 -690 -364 -498 -752 -756 -1507 -1003 l-130 -42 -6
-80 c-4 -44 -8 -102 -10 -130 l-4 -50 875 0 c820 0 879 1 940 18 197 56 282
153 360 410 57 187 46 172 119 175 38 2 68 -2 77 -9 12 -10 14 -133 14 -803 0
-603 -3 -795 -12 -804 -15 -15 -2914 -17 -2937 -3 -11 7 -12 22 -7 63 3 29 15
136 26 238 11 102 31 291 45 420 39 361 66 607 74 699 6 61 13 88 26 97 9 7
71 36 138 64 375 161 560 303 762 585 140 196 278 479 353 725 51 167 98 395
121 590 6 52 15 129 20 170 13 109 13 573 1 682 -42 361 -107 666 -190 893
-181 496 -542 909 -957 1096 -151 68 -268 105 -458 145 -101 21 -166 26 -414
35 -257 9 -303 8 -365 -6 -84 -18 -165 -62 -200 -107 -120 -155 -142 -198
-176 -351 -6 -27 -17 -64 -25 -83 -8 -19 -21 -95 -30 -168 -13 -116 -15 -415
-15 -2347 0 -2414 -2 -2339 56 -2584 50 -207 106 -323 213 -437 120 -128 246
-179 481 -195 l115 -8 0 -95 0 -95 -2147 -3 -2148 -2 0 99 0 99 108 6 c142 9
231 29 317 71 241 119 372 380 420 836 23 218 22 4411 -1 4615 -34 308 -81
464 -185 619 -132 199 -304 285 -571 285 l-88 0 0 95 0 96 2283 -4 2282 -3
135 -22z"/>
<path d="M5097 9846 c-74 -31 -121 -67 -154 -119 -14 -23 -41 -60 -59 -83 -38
-47 -55 -87 -84 -199 -12 -44 -28 -98 -35 -120 -22 -64 -34 -170 -45 -392 -12
-267 -13 -3969 0 -4243 17 -384 72 -616 187 -800 40 -64 136 -165 175 -186 25
-13 29 -12 77 26 157 125 250 330 308 680 15 96 17 284 21 2310 2 1590 0 2240
-8 2330 -31 340 -94 559 -206 712 -35 46 -98 108 -112 108 -4 0 -33 -11 -65
-24z"/>
</g>
</svg>
