<svg width="30" height="30" viewBox="0 0 30 30" fill="none" xmlns="http://www.w3.org/2000/svg">
<mask id="mask0_293_7442" style="mask-type:alpha" maskUnits="userSpaceOnUse" x="0" y="0" width="30" height="30">
<circle cx="15" cy="15" r="15" fill="white"/>
</mask>
<g mask="url(#mask0_293_7442)">
<circle cx="15" cy="15" r="15" fill="white"/>
<path d="M24.0902 24.4333V24.4442C24.1336 24.5964 24.1771 24.7486 24.2206 24.9008C24.2206 24.9116 24.2206 24.9225 24.2206 24.9334C24.2206 24.9443 24.1989 24.9551 24.1771 24.9551C23.677 25.0095 23.2421 24.7812 22.8942 24.4442C22.8181 24.3681 22.7529 24.2811 22.6442 24.2376C22.5355 24.1941 22.4159 24.2267 22.318 24.2593C21.644 24.5203 20.9591 24.7377 20.2524 24.8899C18.9586 25.1617 17.6214 25.2487 16.2842 25.2269C13.501 25.1943 10.7069 24.7703 8.07591 23.868C7.46709 23.6723 6.88001 23.4222 6.31467 23.1178C6.02113 22.9656 5.74934 22.7808 5.48841 22.5959C5.30359 22.4546 5.04266 22.1285 4.82523 22.4003C4.33599 22.9982 3.73804 23.8897 2.84655 23.6505L3.30317 23.0091L2.48778 23.0743L3.49886 21.4435C3.34665 21.3674 3.15096 21.2587 2.95527 21.1826C2.86829 21.15 2.77045 21.15 2.69434 21.1935C2.13988 21.4979 1.11792 21.6501 0.563458 21.2587C0.465611 21.1935 0.400381 21.1065 0.367766 20.9978C0.291663 20.7695 0.432995 20.6281 0.563458 20.4977C0.856998 20.2041 1.12879 19.878 1.37885 19.5518C1.42233 19.4975 1.45495 19.4322 1.46583 19.3561C1.45495 19.3018 1.43321 19.2365 1.38972 19.1931C0.737411 18.2581 0.313405 17.1818 0.128583 16.0511C-0.0562381 14.9204 -0.110595 13.7028 0.44387 12.6591C0.596076 12.3655 0.81351 12.0829 1.10705 11.9089C1.41146 11.7241 1.78111 11.6697 2.13988 11.6697C2.56388 11.6589 3.0205 11.7132 3.33578 11.9959C3.27055 11.9307 3.70543 11.0827 3.75979 10.9739C4.10768 10.289 4.54256 9.65844 5.06441 9.0931C5.2601 8.88654 5.71672 8.60387 5.77108 8.3212C6.032 6.81001 6.91263 5.8098 8.31509 5.25534C9.34792 4.85308 10.3481 4.92918 11.3049 5.4619C11.4788 5.55975 11.6093 5.53801 11.7941 5.49452C12.2942 5.3858 12.7943 5.3097 13.2944 5.26621C14.8056 5.13575 16.295 5.33144 17.7627 5.70108C18.1324 5.79893 18.415 5.79893 18.7629 5.59237C19.4479 5.20098 20.2306 5.17923 21.0025 5.24446C22.2202 5.34231 23.1117 5.95114 23.8292 6.9296C24.2097 7.45145 24.3076 8.0494 24.5033 8.62561C24.5468 8.7452 24.6011 8.86479 24.6664 8.96264C25.036 9.54972 25.4165 10.1368 25.7862 10.7348C26.1667 11.3436 26.482 11.985 26.7538 12.6591C26.8842 12.9852 27.0147 13.3223 27.1451 13.6593C27.2539 13.942 27.2865 14.3007 27.6018 14.4421C27.754 14.5182 27.9388 14.5399 28.1019 14.5725C29.276 14.8443 30.0805 15.9424 29.9936 17.1491C29.9392 17.7906 29.6457 18.3777 29.2978 18.9213C28.9499 19.454 28.5476 19.9541 28.2432 20.5194C28.2106 20.5738 28.1888 20.6281 28.1888 20.6934C28.1997 20.7586 28.2215 20.813 28.2649 20.8564C28.4498 21.0956 28.6998 21.2696 28.9825 21.3674C29.1673 21.4218 29.3739 21.4544 29.4608 21.661C29.4935 21.7588 29.4935 21.8675 29.4608 21.9545C29.3739 22.1719 29.1891 22.2915 28.9825 22.3785C28.3737 22.6394 27.6887 22.6394 27.069 22.3785C26.9929 22.3459 26.8951 22.3024 26.819 22.335C26.7755 22.3568 26.732 22.3894 26.6994 22.4329C26.4276 22.7481 26.1232 23.0199 25.7862 23.27C25.5578 23.4331 25.3187 23.5853 25.0578 23.7157C24.9925 23.7484 24.9164 23.7918 24.8838 23.868C24.8729 23.9332 24.8729 24.0093 24.8947 24.0745C24.9164 24.1832 24.9382 24.292 24.949 24.4007C24.949 24.4115 24.949 24.4333 24.9382 24.4442C24.9382 24.4442 24.9273 24.4442 24.9164 24.4442C24.6555 24.455 24.3837 24.4442 24.1228 24.4442C24.101 24.4224 24.0902 24.4224 24.0902 24.4333Z" fill="#010202"/>
<path d="M21.8942 21.0956C21.8834 21.5957 21.829 22.085 21.742 22.5633C21.7094 22.7482 21.6659 22.9439 21.5463 23.0852C21.4267 23.2265 21.231 23.3026 21.0571 23.357C19.111 23.9876 16.9149 24.0093 14.8928 23.9006C12.4249 23.7701 9.64165 23.357 7.41292 22.2154C7.02154 22.0089 6.64102 21.7697 6.34748 21.4327C5.86912 20.8891 5.79302 20.0302 5.78215 19.3344C5.77127 18.519 5.97784 17.7145 6.39097 17.0187C6.95631 16.0728 8.06524 15.5075 9.10894 15.2792C10.2505 15.0291 11.4246 15.1161 12.5771 15.1922C14.7297 15.3444 16.9258 15.5075 18.8827 16.399C19.8177 16.823 20.7092 17.4427 21.2528 18.3233C21.7746 19.1496 21.916 20.128 21.8942 21.0956Z" fill="#CFFEDD"/>
<path d="M3.65125 19.4431C2.80325 16.475 4.05351 12.496 5.6408 10.2346C5.66255 10.2129 5.69516 10.202 5.72778 10.2237C5.73865 10.2237 5.73865 10.2346 5.74952 10.2455C5.80388 10.3759 5.85824 10.4955 5.9126 10.6151C6.17352 11.1696 6.55404 11.6479 7.07589 11.985C7.4564 12.2242 7.88041 12.3872 8.31528 12.5177C9.13067 12.7677 10.0548 12.9091 10.8919 12.6373C11.6203 12.3981 12.24 11.6914 12.6205 11.0717C13.0119 10.4303 13.3816 9.56055 13.4033 8.79952C13.4251 8.03849 13.2294 7.27746 12.751 6.67951C12.7184 6.63602 12.6858 6.57079 12.7293 6.53818C12.7401 6.5273 12.7619 6.5273 12.7836 6.5273C14.1426 6.36423 15.5233 6.42946 16.8606 6.73387C16.904 6.73387 16.9367 6.75561 16.9693 6.78823C17.0019 6.84259 16.9693 6.91869 16.9367 6.97305C16.5344 7.60362 16.2517 8.32116 16.1321 9.06044C16.0234 9.77799 16.0887 10.539 16.3713 11.2131C16.9149 12.5068 18.2195 13.3657 19.5894 13.6592C20.4809 13.8549 21.4485 13.8332 22.2965 13.4744C23.2967 13.0504 23.9708 12.0937 24.3948 11.1261C24.4165 11.0717 24.4709 11.05 24.5252 11.0717C24.547 11.0826 24.5578 11.0935 24.5687 11.1152C24.6666 11.2783 24.8296 11.4957 24.8514 11.5392C24.971 11.7567 25.0905 11.985 25.1993 12.2024C25.4167 12.659 25.6015 13.1156 25.7646 13.594C26.0799 14.5072 26.3843 15.4531 26.4821 16.4316C26.5909 17.4209 26.4713 18.4211 26.3408 19.4104C26.2538 20.0519 26.1669 20.7042 25.8842 21.2913C25.5254 22.0306 24.8949 22.4546 24.2317 22.8894C24.1773 22.9221 24.123 22.9547 24.0577 22.9112C24.0251 22.8786 23.9925 22.8351 23.9925 22.7916C23.7968 21.5196 24.0686 20.2041 23.7533 18.9647C23.7424 18.8995 23.6772 18.8234 23.6228 18.856C23.612 18.8669 23.6011 18.8886 23.5902 18.9103C23.5576 19.0191 23.5576 19.1278 23.5359 19.2365C23.4598 19.7257 23.4598 20.2258 23.438 20.7151L23.351 22.248V22.2589C23.3402 22.4872 23.3184 22.7481 23.3837 22.9655C23.4489 23.1504 23.612 23.3243 23.7642 23.4439C23.9708 23.607 24.1556 23.8027 24.3513 23.9766C24.3839 24.0092 24.4165 24.0636 24.3839 24.0962C24.3621 24.118 24.3295 24.1071 24.2969 24.0962C24.1773 24.0527 24.0686 23.9984 23.949 23.944C23.7859 23.857 23.6337 23.7266 23.4815 23.6179C23.4489 23.5852 23.4054 23.5635 23.351 23.5418C23.3293 23.5309 23.3076 23.5309 23.2858 23.5526C23.2858 23.5526 23.2858 23.5526 23.2858 23.5635C23.2641 23.6179 23.2749 23.6831 23.2967 23.7266C23.3619 23.8788 23.438 24.0201 23.525 24.1723C23.5794 24.2702 23.6446 24.3571 23.6881 24.4659C23.6881 24.4767 23.699 24.4985 23.6881 24.5093C23.6772 24.5093 23.6772 24.5093 23.6663 24.5093C23.5359 24.4659 23.4489 24.3789 23.3619 24.2702C23.275 24.1723 23.2097 24.0636 23.1445 23.9549C22.9053 23.52 23.0249 23.0525 23.0684 22.5742C23.1119 22.0741 23.1336 21.5631 23.1336 21.063C23.1336 20.2041 23.1336 19.3452 22.8075 18.5298C22.5357 17.8558 22.0899 17.2578 21.5681 16.7468C21.0354 16.2359 20.4265 15.7901 19.7633 15.4422C19.5568 15.3335 19.3502 15.2248 19.1328 15.1269C19.0241 15.0835 18.9262 15.0291 18.8175 14.9965C18.7305 14.9639 18.6001 14.8769 18.5022 14.8769C16.567 14.1593 14.5122 14.0941 12.4683 13.9854C11.1746 13.9202 9.85909 13.8332 8.58708 14.0941C7.16287 14.3877 5.95608 15.1487 5.23854 16.4207C5.08634 16.7034 4.94501 16.9969 4.83629 17.3013C4.72757 17.5949 4.61885 17.8014 4.31443 17.9427C3.91218 18.1384 3.83608 18.5842 3.78172 19.0082C3.75997 19.1821 3.71649 19.2909 3.69474 19.4431C3.673 19.4539 3.66213 19.4539 3.65125 19.4431C3.66213 19.4539 3.65125 19.4539 3.65125 19.4431Z" fill="#00FC4C"/>
<path d="M20.5459 12.8656C19.0021 12.833 17.3278 11.8545 17.0125 10.2672C16.8929 9.6258 17.0125 8.97349 17.2626 8.36467C17.5887 7.59277 18.1541 6.8861 18.9042 6.48384C19.7196 6.04896 20.7851 6.09245 21.6439 6.38599C22.2745 6.60343 22.8398 7.00569 23.1877 7.56015C23.5139 8.07113 23.6335 8.69082 23.6661 9.29965C23.6987 10.1911 23.5248 11.1261 22.9594 11.8219C22.3723 12.5286 21.4482 12.8765 20.5459 12.8656Z" fill="#FEFEFE"/>
<path d="M6.45605 9.07133C6.46692 7.88629 7.17359 6.82085 8.2499 6.34249C8.98919 6.00546 9.79371 6.00546 10.5547 6.25552C10.6091 6.26639 10.6526 6.28813 10.6961 6.30988C11.3049 6.53819 11.8376 6.85347 12.142 7.46229C12.3377 7.85368 12.4138 8.28855 12.4138 8.72343C12.4138 9.40835 12.2399 10.1042 11.8811 10.6912C11.6963 11.0065 11.4354 11.2892 11.1309 11.4957C10.7069 11.7784 10.1851 11.8871 9.67412 11.9089C9.11965 11.9198 8.63042 11.7893 8.13031 11.561C7.70631 11.3653 7.29318 11.1044 6.98877 10.7456C6.61913 10.2672 6.44517 9.66928 6.45605 9.07133Z" fill="#FEFEFE"/>
<path d="M2.09635 17.9644C2.06374 17.9426 2.04199 17.9209 2.03112 17.8883C1.6506 17.149 1.41143 16.3553 1.30271 15.5399C1.20486 14.7354 1.20486 13.8765 1.62887 13.159C1.68323 13.0503 1.7702 12.9524 1.86804 12.8763C2.15071 12.6915 2.53123 12.7894 2.72692 13.0612C2.78128 13.1373 2.8139 13.2242 2.82477 13.3112C2.82477 13.4091 2.80302 13.5069 2.75954 13.6048C2.41164 14.6158 2.21594 15.6704 2.16158 16.7358C2.13984 17.1381 2.16158 17.5404 2.16158 17.9426C2.13984 17.9752 2.1181 17.9752 2.09635 17.9644Z" fill="#00FC4C"/>
<path d="M27.5693 19.2581C27.7868 18.16 27.765 17.0402 27.6781 15.9204C27.6781 15.8552 27.6781 15.7791 27.7433 15.7573C27.765 15.7573 27.7868 15.7573 27.8085 15.7573C28.5043 15.9313 28.8631 16.6597 28.6783 17.3337C28.5804 17.6708 28.3956 17.9752 28.2108 18.2579L27.5693 19.2581Z" fill="#00FC4C"/>
<path d="M4.42271 18.4971C4.42271 18.4645 4.44445 18.4427 4.47707 18.4427C4.49881 18.4427 4.53143 18.4645 4.53143 18.4971C4.56404 18.7145 4.57492 18.9429 4.58579 19.1603C4.60753 19.6387 4.61841 20.117 4.61841 20.5845C4.61841 20.9107 4.57492 21.2259 4.49881 21.5412C4.40097 21.9109 4.2705 22.2805 4.09655 22.6175C4.09655 22.6284 4.07482 22.6284 4.07482 22.6175C4.03133 22.5197 3.98784 22.4327 3.94435 22.3349C3.94435 22.324 3.93348 22.3023 3.92261 22.2914C3.91174 22.2914 3.88999 22.2914 3.87912 22.2914L3.59645 22.411C3.58558 22.411 3.57471 22.4001 3.57471 22.3892C3.6943 22.2262 3.81389 22.1066 3.92261 21.9652C4.08569 21.726 4.1944 21.4543 4.22702 21.1607C4.27051 20.8346 4.23789 20.4975 4.28138 20.1714C4.31399 19.8235 4.32487 19.4647 4.34661 19.1168C4.33574 18.9211 4.36835 18.7037 4.42271 18.4971Z" fill="#00FC4C"/>
<path d="M27.2757 20.9107C27.2866 20.8781 27.3192 20.8563 27.3518 20.8672C27.3627 20.8672 27.3735 20.8781 27.3844 20.889L28.0476 21.7804C28.0585 21.7913 28.0693 21.8131 28.0585 21.8348C28.0476 21.8565 28.015 21.8565 27.9824 21.8457L27.3083 21.6826C27.2431 21.6717 27.167 21.65 27.1344 21.5848C27.1017 21.5195 27.1126 21.4434 27.1344 21.3673L27.2757 20.9107Z" fill="#00FC4C"/>
<path d="M1.4442 20.715C1.42245 20.715 1.40071 20.6932 1.41158 20.6715C1.41158 20.6606 1.41158 20.6606 1.42245 20.6497C1.55291 20.4866 1.69425 20.3127 1.84646 20.1496C1.88994 20.1061 1.95518 20.0409 2.00954 20.0735C2.02041 20.0844 2.04215 20.0953 2.05302 20.117C2.10738 20.1931 2.33569 20.3997 2.33569 20.5084C2.33569 20.7584 1.70512 20.7476 1.4442 20.715Z" fill="#00FC4C"/>
<path d="M14.1424 12.5286C14.4033 12.5395 14.6642 12.6156 14.9034 12.746C14.9904 12.7895 15.0665 12.8548 15.1208 12.9417C15.1752 13.0613 15.1208 13.2027 15.0447 13.3114C14.9251 13.4527 14.7512 13.5614 14.5664 13.5832C14.3815 13.6158 14.1858 13.6049 14.0119 13.5506C13.7836 13.4962 13.4683 13.3766 13.3596 13.1592C13.24 12.9091 13.4792 12.6699 13.6966 12.5938C13.8271 12.5503 13.9793 12.5177 14.1315 12.5286H14.1424Z" fill="#010202"/>
<path d="M22.068 9.46284C22.068 9.5172 22.0571 9.58243 22.0463 9.63679C21.8723 10.4522 21.2309 11.3111 20.3394 11.3545C19.611 11.398 18.9913 11.1915 18.5238 10.637C18.165 10.2239 18.1433 9.71289 18.1868 9.19104C18.1976 9.04971 18.2303 8.8975 18.2629 8.75617C18.5238 7.7016 19.4588 7.21236 20.4698 7.60375C21.1656 7.87555 22.0354 8.53873 22.0789 9.36499C22.068 9.39761 22.068 9.43022 22.068 9.46284Z" fill="#010202"/>
<path d="M9.06544 6.96217C10.294 6.88607 11.729 8.13633 11.055 9.40834C10.8919 9.71275 10.6527 9.9628 10.3592 10.1476C10.0983 10.3216 9.80473 10.4412 9.48945 10.4738C8.82626 10.539 8.28267 10.0933 7.91303 9.59316C7.58687 9.15828 7.46728 8.59295 7.58687 8.06023C7.71734 7.49489 8.21744 7.0274 8.79365 6.98391C8.90237 6.97304 9.01108 6.96217 9.06544 6.96217Z" fill="#010202"/>
<path d="M19.5458 10.6587C19.5458 10.6478 19.5567 10.6369 19.5785 10.6152C19.7524 10.4303 19.9807 10.2999 20.1873 10.1477C20.3504 10.039 20.5026 9.89762 20.6222 9.73455C20.7417 9.57147 20.8179 9.3649 20.9701 9.22357C21.0462 9.14747 21.1766 9.11485 21.231 9.23444C21.3397 9.48449 21.3288 9.74542 21.2092 9.99547C20.9374 10.5391 20.2416 10.7674 19.6654 10.7348H19.6111C19.5893 10.7348 19.5567 10.7348 19.5458 10.7021C19.535 10.6804 19.5458 10.6695 19.5458 10.6587Z" fill="#FEFEFE"/>
<path d="M19.7634 8.62573C19.7743 8.62573 19.7851 8.62573 19.796 8.62573C19.8286 8.62573 19.8504 8.63661 19.883 8.64748C19.9265 8.68009 19.9591 8.72358 19.9591 8.77794C19.9591 8.9084 19.9156 9.03886 19.8395 9.14758C19.8069 9.20194 19.7525 9.23456 19.6981 9.24543C19.4807 9.26717 19.2198 8.94102 19.4046 8.76707C19.4916 8.68009 19.622 8.62573 19.7634 8.62573Z" fill="#FEFEFE"/>
<path d="M9.33702 9.13661C9.424 9.13661 9.48923 9.20184 9.59795 9.1801C9.67405 9.15835 9.73928 9.11487 9.79364 9.04963C9.93497 8.89743 10.0546 8.69086 10.185 8.51691C10.2829 8.38645 10.3807 8.29948 10.5438 8.39732C10.5873 8.42994 10.5982 8.53866 10.5982 8.61476C10.5655 9.04963 10.3481 9.38666 10.0763 9.70195C9.80451 10.0064 9.18481 9.74543 9.06522 9.50625C8.97825 9.32143 9.10871 9.12574 9.33702 9.13661Z" fill="#FEFEFE"/>
<path d="M9.13027 7.77752C9.14114 7.81013 9.14113 7.85362 9.14113 7.88624C9.11939 8.08193 9.02154 8.32111 8.79323 8.32111C8.66277 8.32111 8.53231 8.23414 8.47795 8.10367C8.44534 8.04931 8.44534 7.98408 8.45621 7.91885C8.47795 7.86449 8.52144 7.81013 8.5758 7.77752C8.71713 7.69054 9.06503 7.58182 9.13027 7.77752Z" fill="#FEFEFE"/>
</g>
</svg>
