<svg xmlns="http://www.w3.org/2000/svg" viewBox="0 0 182.51 223"><defs><style>.cls-1,.cls-2{fill:#fff;}.cls-2,.cls-3{stroke:#fff;stroke-miterlimit:10;}.cls-3{fill:none;}</style></defs><g id="Layer_2" data-name="Layer 2"><g id="Layer_1-2" data-name="Layer 1"><rect class="cls-1" x="102.51" y="14" width="9" height="31"/><path class="cls-2" d="M.51,154A311.3,311.3,0,0,1,4,112.5c2.75-18,5-22,8-25,8-8,20.52-8.52,33-9A100.53,100.53,0,0,1,66.51,80a45.52,45.52,0,0,1,79.69,0h18.56v35l-19.25,0c-2.16,2.64-15.14,18-37.5,19.5-25,1.68-40.95-15.32-42.92-17.5-1.77-.6-12.36-4.06-19.08,1.5-3.61,3-4.5,7.26-6,15A80.7,80.7,0,0,0,38.7,154Z"/><path class="cls-2" d="M9,186.5a26.93,26.93,0,0,0-6,28,9.51,9.51,0,0,0,9,8,9.51,9.51,0,0,0,9.59-8,36.41,36.41,0,0,0-2.59-14A36.66,36.66,0,0,0,9,186.5Z"/><polygon class="cls-3" points="164.76 128.65 164.76 65.62 182.01 65.5 182.01 128.65 164.76 128.65"/><path class="cls-2" d="M146.2,2.5H112l.16.59A7.48,7.48,0,0,0,100.9,3L101,2.5H63.13A5,5,0,0,0,61,6.5a5,5,0,0,0,2.12,3.91H99.41a7.49,7.49,0,0,0,14.45-.94L114,10H146.2A5,5,0,0,0,148,6.5,5.07,5.07,0,0,0,146.2,2.5Z"/><polygon class="cls-2" points="119.81 49.5 119.81 42.5 93.01 42.5 92.94 49.5 87.01 49.5 87.08 60.49 126.65 60.49 126.65 49.5 119.81 49.5"/></g></g></svg>