<svg xmlns="http://www.w3.org/2000/svg" viewBox="0 0 143.23 169.75"><defs><style>.cls-1{fill:#fff;stroke:#fff;stroke-miterlimit:10;}</style></defs><g id="Layer_2" data-name="Layer 2"><g id="Layer_1-2" data-name="Layer 1"><path class="cls-1" d="M75.06,102.64l6.54,9.88a13.94,13.94,0,0,1-2,4c-3.6,4.94-9.47,5.82-11,6a85.15,85.15,0,0,0,12,23,100.9,100.9,0,0,0,16,17,47.23,47.23,0,0,0,37,5,36.08,36.08,0,0,0,8-33c-4.58-7.29-9.88-15-16-23-5.07-6.59-10.11-12.58-15-18a18.68,18.68,0,0,1-9,7,18.09,18.09,0,0,1-7,1l-6.32-7.14a12.66,12.66,0,0,1-4.68,6.14A12.8,12.8,0,0,1,75.06,102.64Z"/><path class="cls-1" d="M55.6,47.52a15.48,15.48,0,0,0-7-7,35.36,35.36,0,0,0,4-22,39.13,39.13,0,0,0-18-18,48.36,48.36,0,0,0-34,24,24,24,0,0,0,9,21,20.28,20.28,0,0,0,22,5,15.9,15.9,0,0,0,6,10,13.93,13.93,0,0,0,4,2,12.64,12.64,0,0,0,10-2,12.84,12.84,0,0,0,5-10A14.44,14.44,0,0,0,55.6,47.52Zm-15-7a22.94,22.94,0,0,1-15,0,23.26,23.26,0,0,1-13-12,55.83,55.83,0,0,1,25-17c.93.7,7.59,5.9,8,15A20.31,20.31,0,0,1,40.6,40.52Z"/><rect class="cls-1" x="60.6" y="51.52" width="13" height="56" transform="matrix(0.79, -0.62, 0.62, 0.79, -34.73, 58.13)"/></g></g></svg>