<svg width="30" height="30" viewBox="0 0 30 30" fill="none" xmlns="http://www.w3.org/2000/svg">
<path d="M29.5524 18.6282C27.5523 26.6684 19.4119 31.5586 11.3715 29.5485C3.34106 27.5484 -1.55919 19.4082 0.450912 11.368C2.45101 3.33772 10.5914 -1.55243 18.6318 0.447631C26.6622 2.44769 31.5525 10.5879 29.5524 18.6282Z" fill="#F7931A"/>
<path d="M21.622 12.858C21.922 10.858 20.4019 9.78792 18.3218 9.0679L18.9918 6.36782L17.3418 5.95781L16.6917 8.59789C16.2617 8.48788 15.8117 8.38788 15.3717 8.28788L16.0317 5.6378L14.3816 5.22778L13.7116 7.92787C13.3516 7.84786 13.0016 7.76786 12.6615 7.67786V7.66786L10.3914 7.09784L9.9514 8.85789C9.9514 8.85789 11.1715 9.1379 11.1515 9.1579C11.8215 9.32791 11.9415 9.76792 11.9215 10.1179L11.1515 13.198C11.2015 13.208 11.2615 13.228 11.3215 13.248C11.2715 13.238 11.2115 13.218 11.1515 13.208L10.0714 17.5282C9.9914 17.7282 9.78139 18.0382 9.32137 17.9182C9.34137 17.9382 8.12131 17.6182 8.12131 17.6182L7.30127 19.5082L9.44138 20.0382C9.8414 20.1382 10.2314 20.2382 10.6114 20.3382L9.9314 23.0783L11.5715 23.4883L12.2415 20.7783C12.6915 20.8983 13.1316 21.0083 13.5516 21.1183L12.8815 23.8083L14.5316 24.2184L15.2117 21.4883C18.0218 22.0183 20.1319 21.8083 21.0219 19.2682C21.742 17.2281 20.9819 16.0481 19.5119 15.2781C20.5919 15.0281 21.402 14.3281 21.622 12.858ZM17.8518 18.1382C17.3418 20.1782 13.9016 19.0782 12.7815 18.7982L13.6816 15.1781C14.8116 15.4581 18.3918 16.0081 17.8518 18.1382ZM18.3618 12.828C17.9018 14.6881 15.0317 13.738 14.1016 13.508L14.9216 10.2179C15.8517 10.4579 18.8518 10.898 18.3618 12.828Z" fill="white"/>
</svg>
