<?xml version="1.0" standalone="yes"?>
<svg xmlns="http://www.w3.org/2000/svg" width="1703" height="353">
<path style="fill:#010101; stroke:none;" d="M0 0L0 73L79 73C99.3636 73 119.114 72.1999 137 83.6983C179.067 110.742 178.981 174.102 135 198.561C108.542 213.275 74.1124 208 45 208L45 285L0 285L0 353L771 353L771 352C760.612 351.553 749.795 348.166 740 344.83C727.784 340.67 699.238 332.134 695.829 317.999C693.236 307.246 709.064 292.93 714.849 285C728.983 265.625 743.481 246.507 757.427 227C763.29 218.8 770.496 211.053 775 202C765.79 202.669 756.624 211.556 749 216.435C727.218 230.375 706.388 246.101 685 260.656C677.777 265.571 661.369 282.007 652.093 276.972C646.437 273.901 642.834 264.437 639.864 259C629.19 239.46 623.192 217.022 620.834 195C613.042 122.216 652.527 50.4896 718 17.7531C734.303 9.60135 753.54 1.79474 772 1L751 0L706 0L548 0L0 0z"/>
<path style="fill:#0f132f; stroke:none;" d="M667 274C664.797 264.744 662.085 238.507 671.044 232.607C686.151 222.659 685 254.529 685 261C689.667 258.342 698.312 254.103 700.397 248.907C704.244 239.315 697.021 226.085 702.742 217.005C707.133 210.037 715.047 210.692 718.821 218.015C721.48 223.175 720 231.339 720 237L737 226C734.302 214.529 743.47 208.456 753 215L772 202L772 201C746.04 192.699 716.872 193.256 692 205.258C681.605 210.275 672.369 219.75 662 223.895C656.594 226.056 649.795 220.951 650.842 215.001C651.671 210.291 656.675 206.991 660 204.051C670.335 194.911 682.948 188.061 696 183.667C726.392 173.437 761.238 174.192 790 189.32C816.913 203.476 834.955 225.778 867 229.714C884.645 231.881 904.16 229.909 920 221.511C927.011 217.794 932.899 210.279 940 207.411C944.531 205.581 950.881 209.089 951.573 214.004C953.154 225.218 928.051 235.312 920 238.716C882.249 254.679 840.99 246.338 809 222.13C801.349 216.34 793.621 210.567 785 206.27C781.715 204.633 777.082 201.998 773.669 204.618C752.792 220.645 755 243.826 755 267C755 278.208 754.108 289.841 755.17 301C756.074 310.497 758.23 323.655 755.566 332.961C752.75 342.8 740.712 343.216 736.893 333.91C732.269 322.639 736 303.143 736 291L736 256L735 256C730.644 262.995 722.437 269.885 720.419 278C717.995 287.747 722.991 299.668 718.911 308.996C713.352 321.703 702.58 314.495 701 304C689.197 314.936 698.198 325.137 709 331.281C728.265 342.239 750.777 350.68 773 352.83C847.66 360.055 920.458 327.394 955.742 259C999.928 173.349 965.992 61.4651 879 17.9691C852.597 4.76764 826.197 0 797 0C777.521 0 759.661 1.52701 741 7.67053C719.084 14.8856 698.519 26.4193 681 41.4283C635.238 80.6347 613.72 141.728 621.286 201C623.958 221.938 630.528 243.623 641.001 262C647.622 273.618 653.174 282.994 667 274z"/>
<path style="fill:#010101; stroke:none;" d="M823 0L823 1C847.326 2.0473 874.039 14.0516 894 27.3333C981.323 85.4363 1001.46 207.055 935.195 289C922.337 304.901 906.523 318.465 889 329C869.985 340.432 845.605 351.533 823 352L823 353L1703 353L1703 215L1702 215C1698.19 261.71 1646.81 291.154 1604 281.575C1587.26 277.828 1576.49 267.497 1563 258L1563 335L1541 335L1541 229C1541 200.45 1540.3 173.376 1559.46 150C1594.19 107.652 1658.42 108.897 1689.64 155C1695.99 164.372 1701.5 175.509 1702 187L1703 187L1703 0L823 0z"/>
<path style="fill:#55c9c5; stroke:none;" d="M796 18C788.15 30.955 783.575 46.2166 780.6 61C779.687 65.5392 777.132 72.4478 778.643 76.9854C780.646 83.0015 791.067 91.0222 796 95L797 91L798 91L798 96C802.691 91.1619 813.105 84.0699 815.382 77.9105C816.945 73.6822 814.655 67.1914 813.626 63C810.691 51.0468 807.865 24.1641 796 18M853 117L857 115L854 120C860.603 119.999 871.799 121.885 877.826 119.397C887.46 115.419 896.268 94.9058 900.752 86C902.847 81.8396 911.297 69.3329 907.882 64.6427C904.629 60.1749 889.492 68.9855 886 70.7562C877.472 75.0807 857.048 83.5607 853.618 93.0401C851.355 99.2966 853.886 109.987 853 117M686 64C688.014 78.9472 696.455 93.6263 704.667 106C707.422 110.151 710.494 116.599 715.09 118.958C720.891 121.934 735.879 120.095 743 121L738 113L742 116C741.751 110.19 743.602 96.9261 740.968 92.1844C738.594 87.9102 732.026 84.9314 728 82.4251C716.029 74.9726 700.456 64.6622 686 64z"/>
<path style="fill:#f3b705; stroke:none;" d="M801 152L802 152L816 132L811 156C818.573 151.864 814.597 141.236 820.303 135.529C828.474 127.355 843.228 127.644 850.682 119.722C859.244 110.624 852.419 87.1048 848.996 77C847.797 73.4589 846.408 68.0881 843.363 65.6466C839.766 62.7628 833.251 67.5461 830 69.3087C820.702 74.3491 801.463 84.7219 799.282 96C797.211 106.715 808.707 117.707 808.971 128.83C809.158 136.75 801.026 143.083 801 152M993 219C993.41 238.842 1001.1 257.976 1017 270.482C1051.49 297.618 1106.57 281.77 1118.96 239C1128.83 204.962 1109.06 174.113 1077 162.692C1055.72 155.111 1025.86 152.401 1022.29 125C1017.32 86.8433 1070.82 71.7241 1088.68 105C1091.72 110.665 1092.95 116.627 1093 123L1116 123C1116 100.377 1105.53 80.7291 1085 69.8904C1056.25 54.7122 1015.91 68.8361 1003.63 99C1000.74 106.094 999.988 113.419 1000 121C1000.01 127.901 1001.07 134.475 1003.34 141C1018.54 184.516 1078.5 167.323 1095.96 207C1109.76 238.378 1074.21 272.848 1043 259.323C1032.71 254.863 1024.35 246.251 1019.88 236C1018.18 232.11 1018.36 222.536 1015.26 220.028C1011.07 216.64 998.246 219 993 219M785 157L778 131L779 131L793 153C797.773 144.815 786.042 139.179 785.978 131C785.889 119.534 795.5 110.51 795.923 100C796.45 86.8758 775.071 74.7946 765 69.7592C761.536 68.0271 756.255 64.8828 752.214 65.5023C744.813 66.6369 742.611 88.1348 741.95 94C741.187 100.77 739.282 111.411 743.434 117.482C749.449 126.278 764.159 125.796 771.722 133.379C778.656 140.33 776.164 150.702 785 157z"/>
<path style="fill:#55c9c5; stroke:none;" d="M394 69L396 283C415.329 283 434.621 282 454 282C483.797 282 513.852 283.112 540 266.302C607.725 222.763 607.132 118.899 533 81.8087C491.705 61.1479 438.723 69 394 69M132 283L166 283C169.74 283 176.248 284.239 179.185 281.397C182.903 277.8 184.787 270.653 186.861 266C191.639 255.278 196.607 244.548 201.755 234C204.363 228.658 206.053 219.683 213.015 219.059C234.305 217.148 256.616 219 278 219C284.808 219 297.82 216.507 303.787 220.028C308.697 222.924 311.253 232.024 313.424 237C317.429 246.177 322.571 254.823 326.576 264C328.855 269.224 331.28 277.555 335.637 281.397C338.8 284.184 345.101 283 349 283L384 283C381.057 265.909 368.516 248.697 361.309 233C344.846 197.147 327.889 161.289 310.247 126C304.307 114.119 298.268 102.132 292.861 90C290.403 84.4839 287.984 75.677 283.363 71.6034C280.362 68.9585 274.692 70 271 70C260.78 70 241.62 66.2546 232.39 70.6034C228.172 72.5912 226.199 81.0587 224.248 85C217.58 98.466 210.963 112.208 205 126C190.003 160.687 173.202 194.98 156.742 229C148.371 246.3 137.286 264.508 132 283M0 73L0 285L45 285L45 208C74.3723 208 109.31 213.404 136 198.561C178.959 174.67 179.151 110.154 138 83.6983C120.114 72.2 100.364 73 80 73L0 73z"/>
<path style="fill:#433925; stroke:none;" d="M798 96L798 101L799 101L798 96z"/>
<path style="fill:#55c9c5; stroke:none;" d="M799 102L800 145L801 145C810.423 130.76 810.613 116.016 799 102M795 104C784.668 118.525 783.845 132.822 794 147L795 147L795.089 120L795 104z"/>
<path style="fill:#010101; stroke:none;" d="M257 107L227 179L290 179L267.85 128L257 107M436 108L436 241C461.068 241 497.373 246.05 519 231.48C558.885 204.61 560.211 136.703 514 113.377C492.153 102.35 459.767 108 436 108z"/>
<path style="fill:#a0c06a; stroke:none;" d="M741.333 109.667L741.667 110.333L741.333 109.667z"/>
<path style="fill:#010101; stroke:none;" d="M45 110L46 168C65.9785 168 97.0882 173.753 114.999 163.468C131.543 153.967 132.387 127.495 115.996 117.479C96.5324 105.585 66.7526 110 45 110z"/>
<path style="fill:#b6bf4e; stroke:none;" d="M853 111L853 114L854 114L853 111z"/>
<path style="fill:#33707c; stroke:none;" d="M795 116L795 122L796 122L795 116z"/>
<path style="fill:#f3b705; stroke:none;" d="M1497 257L1498 257L1498 280L1520 280C1520 237.354 1530.86 180.647 1500.71 146C1454.34 92.7017 1368.17 121.937 1358.43 190C1351.26 240.046 1390.58 283 1440 283C1459.88 283 1486.41 275.793 1497 257M686 129C688.381 137.707 695.788 157.1 705.09 160.357C709.951 162.059 717.955 158.889 723 158.285C733.137 157.073 742.952 157.134 753 159L753 157L781 162C774.953 154.669 763.88 158.219 757.326 151.772C749.207 143.786 749.449 129.014 742.146 121.858C739.299 119.069 731.776 119.199 728 119.039C713.886 118.444 698.178 121.894 686 129z"/>
<path style="fill:#a0c06a; stroke:none;" d="M732.667 119.333L733.333 119.667L732.667 119.333z"/>
<path style="fill:#85c48d; stroke:none;" d="M864 119L864 120L868 120L864 119z"/>
<path style="fill:#f3b705; stroke:none;" d="M1541 335L1563 335L1563 258C1572.65 267.627 1583.86 275.794 1597 279.971C1661.09 300.346 1721.34 236.189 1699.3 173C1676.6 107.903 1587.24 100.637 1552.45 159C1539.54 180.66 1541 204.721 1541 229L1541 335M816 162L840 157L822 170C828.973 174.229 836.339 162.863 844 163.218C854.865 163.72 864.902 173.903 875 173.723C880.108 173.632 884.69 168.414 887.911 164.996C896.895 155.462 907.005 142.309 909 129C895.559 122.615 881.828 120 867 120C862.578 120 855.872 118.748 852.513 122.318C845.182 130.11 846.424 143.886 837.674 151.567C831.154 157.291 821.778 154.348 816 162z"/>
<path style="fill:#a0c06a; stroke:none;" d="M743 121L743 124L744 124L743 121z"/>
<path style="fill:#55c9c5; stroke:none;" d="M744 122C744.442 142.766 757.578 155.492 777 158C769.953 145.808 755.338 130.345 744 122M749 122L750 123L749 122z"/>
<path style="fill:#33707c; stroke:none;" d="M846 122L846 124L848 122L846 122z"/>
<path style="fill:#f3b705; stroke:none;" d="M1128 122C1138.93 162.05 1157.91 201.044 1172.32 240C1175.9 249.696 1179.73 259.303 1183.32 269C1184.55 272.342 1185.63 277.801 1189.22 279.397C1193.21 281.163 1209.85 281.726 1212.91 278.397C1218.11 272.746 1219.31 259.255 1221.67 252C1229.34 228.392 1240.38 202.526 1244 178L1245 178C1248.69 202.978 1261.01 229.032 1269 253C1271.12 259.35 1273.26 274.892 1278.7 278.972C1283.62 282.663 1297.96 280 1304 280C1313.12 241.502 1332.45 203.048 1346.42 166C1351.7 152.02 1359.81 136.801 1362 122C1356.38 122 1343 119.54 1338.7 123.603C1331.31 130.597 1327.63 150.427 1324.05 160C1312.95 189.679 1298.35 219.453 1290 250L1289 250C1284 212.908 1263.44 177.498 1255 141L1235.84 142.603L1225 173L1200 251L1199 251C1197.28 239.497 1191.11 227.883 1187.05 217C1175.5 186.026 1159.62 154.151 1152 122L1128 122z"/>
<path style="fill:#55c9c5; stroke:none;" d="M750 123C756.965 132.888 768.127 143.045 778 150C775.662 134.112 766.048 125.404 750 123M815 153C825.859 145.35 838.341 133.873 846 123C827.772 125.73 817.293 135.241 815 153M850 124L820 157C834.68 155.023 854.106 142.048 850 124z"/>
<path style="fill:#a0c06a; stroke:none;" d="M785.333 132.667L785.667 133.333L785.333 132.667z"/>
<path style="fill:#010101; stroke:none;" d="M1431 140.439C1422.01 141.843 1413.46 144.954 1406 150.209C1356.25 185.255 1385.37 271.342 1448 261.561C1510.13 251.857 1515.2 157.136 1454 141.478C1446.74 139.621 1438.42 139.281 1431 140.439M1613 140.439C1552.35 149.912 1544.84 243.369 1605 260.254C1613.34 262.595 1623.44 262.908 1632 261.561C1640.12 260.283 1648.27 256.952 1655 252.215C1705.05 216.964 1676.27 130.558 1613 140.439z"/>
<path style="fill:#84671a; stroke:none;" d="M800 145L800 148L801 148L800 145M794 150L794 154L795 154L794 150z"/>
<path style="fill:#1f3c52; stroke:none;" d="M695.667 156.333L696.333 156.667L695.667 156.333z"/>
<path style="fill:#55c9c5; stroke:none;" d="M640 173C643.173 179.122 654.968 185.077 662 183.682C672.411 181.616 683.716 171.274 694 167.204C714.3 159.168 732.737 159.322 754 161C748.966 154.388 726.603 157.645 719 158.729C715.174 159.275 709.824 161.22 706.039 160.231C702.98 159.431 701.31 156.557 697.961 156.434C679.405 155.752 655.638 163.524 640 173z"/>
<path style="fill:#84671a; stroke:none;" d="M810 156L810 158L812 156L810 156z"/>
<path style="fill:#55c9c5; stroke:none;" d="M878 173L877 176C880.817 180.734 888.39 191.389 894.17 193.307C903.743 196.484 922.617 189.099 932 186.421C936.883 185.028 952.181 182.223 953.079 175.988C953.758 171.27 944.215 168.639 941 167.425C930.603 163.5 919.888 160.581 909 158.4C905.212 157.641 899.829 155.525 896.015 156.693C889.608 158.654 883.307 168.679 878 173z"/>
<path style="fill:#b6bf4e; stroke:none;" d="M734 157L734 158L743 158L734 157z"/>
<path style="fill:#be920f; stroke:none;" d="M753.667 157.333L754.333 157.667L753.667 157.333z"/>
<path style="fill:#42989e; stroke:none;" d="M727 159L727 160L740 160L727 159z"/>
<path style="fill:#55c9c5; stroke:none;" d="M826 171L826 172L872 174C858.307 160.161 840.84 162.769 826 171z"/>
<path style="fill:#be920f; stroke:none;" d="M820 171L820 172L824 172L820 171z"/>
<path style="fill:#42989e; stroke:none;" d="M841 172L841 173L846 173L841 172z"/>
<path style="fill:#33707c; stroke:none;" d="M859 176L859 177L871 177L859 176z"/>
<path style="fill:#55c9c5; stroke:none;" d="M825 177L825 178C830.206 180.898 835.201 185.734 841 187.336C850.404 189.935 865.167 181.572 873 177L825 177z"/>
<path style="fill:#f3b705; stroke:none;" d="M819 178L819 179L841 192L841 193L815 187C819.033 194.87 827.843 193.569 834.907 196.854C838.745 198.639 840.218 202.866 844.104 204.612C861.956 212.633 883.485 210.82 902 207C898.934 198.911 884.127 175.358 874 176.643C863.762 177.942 855.057 187.619 844 187.486C834.857 187.376 828.948 178.034 819 178z"/>
<path style="fill:#55c9c5; stroke:none;" d="M722 177.425C700.899 180.297 679.914 187.369 663 200.669C657.529 204.971 640.583 222.602 658.001 224.728C667.19 225.849 682.486 210.474 691 206.248C710.559 196.539 734.529 192.66 756 197.004C783.951 202.658 800.964 220.572 825 233.688C851.389 248.087 883.414 250.832 912 241.975C924.539 238.089 939.727 231.698 948.772 221.826C954.378 215.707 951.086 205.816 942 206.529C933.811 207.172 924.752 218.867 917 222.511C897.061 231.884 875.023 232.609 854 226.848C829.787 220.213 814.093 202.426 793 190.428C772.367 178.692 745.47 174.23 722 177.425z"/>
<path style="fill:#be920f; stroke:none;" d="M817 177L817 178L825 178L817 177z"/>
<path style="fill:#55c9c5; stroke:none;" d="M814 190C820.558 196.139 832.158 201.478 841 203C836.373 193.564 823.949 194.94 816 189L814 190z"/>
<path style="fill:#558977; stroke:none;" d="M853 207L854 208L853 207z"/>
<path style="fill:#4badaf; stroke:none;" d="M899.667 207.333L900.333 207.667L899.667 207.333z"/>
<path style="fill:#55c9c5; stroke:none;" d="M895 208L895 209L898 209L895 208z"/>
<path style="fill:#4badaf; stroke:none;" d="M862 209L862 210L865 210L862 209z"/>
<path style="fill:#55c9c5; stroke:none;" d="M889 209L889 210L894 210L889 209M869 210L869 211L888 211L869 210z"/>
<path style="fill:#33707c; stroke:none;" d="M888.667 210.333L889.333 210.667L888.667 210.333M707 211L707 212L712 212L707 211z"/>
<path style="fill:#55c9c5; stroke:none;" d="M737 224L752 215L752 213C741.772 209.279 737.008 213.663 737 224M702 249C707.472 246.698 717.804 241.392 718.852 234.961C720.03 227.731 717.264 201.373 704.318 214.318C698.329 220.307 702 240.921 702 249z"/>
<path style="fill:#33707c; stroke:none;" d="M736 217L738 225L736 217M701 218L701 250L702 250L701 218M719 218L719 237L720 237L719 218z"/>
<path style="fill:#1f3c52; stroke:none;" d="M778 226L778 227L783 227L778 226z"/>
<path style="fill:#818181; stroke:none;" d="M752 227L753 228L752 227z"/>
<path style="fill:#55c9c5; stroke:none;" d="M776.059 228.028C770.365 231.134 772 239.61 772 245C772 261.485 767.909 284.157 772.434 299.981C773.841 304.905 779.658 306.202 783.891 303.821C789.511 300.661 788 292.389 788 287C788 270.711 792.814 248.685 788.682 233.04C787.338 227.949 780.6 225.551 776.059 228.028z"/>
<path style="fill:#01ffff; stroke:none;" d="M752 228L753 229L752 228z"/>
<path style="fill:#42989e; stroke:none;" d="M873 230L873 231L876 231L873 230z"/>
<path style="fill:#1f3c52; stroke:none;" d="M876 230L876 231L885 231L876 230z"/>
<path style="fill:#55c9c5; stroke:none;" d="M667 272C681.635 267.336 683 259.678 683 246C683 241.946 683.895 236.549 680.682 233.434C667.307 220.467 667 247.763 667 254L667 272z"/>
<path style="fill:#33707c; stroke:none;" d="M754 231L754 294L755 294L755 251L754 231z"/>
<path style="fill:#55c9c5; stroke:none;" d="M753 233C747.877 238.921 740.385 246.56 737.728 254C735.74 259.565 737 267.158 737 273L737 312C737 319.805 733.608 339.544 745.001 340.833C756.91 342.179 754 325.24 754 318L754 259C754 251.256 756.004 240.159 753 233z"/>
<path style="fill:#42989e; stroke:none;" d="M771 233L771 298L772 298L772 254L771 233z"/>
<path style="fill:#33707c; stroke:none;" d="M789 233L789 249L790 249L789 233z"/>
<path style="fill:#42989e; stroke:none;" d="M666 237C666 244.652 662.237 267.964 668 273L666 237z"/>
<path style="fill:#4badaf; stroke:none;" d="M683 237L683 262L684 262L683 237z"/>
<path style="fill:#1f3c52; stroke:none;" d="M684 238L684 261L685 261L684 238z"/>
<path style="fill:#01ffff; stroke:none;" d="M737 241L736 243L737 241z"/>
<path style="fill:#33707c; stroke:none;" d="M889.667 246.333L890.333 246.667L889.667 246.333z"/>
<path style="fill:#4badaf; stroke:none;" d="M719 247L720 248L719 247z"/>
<path style="fill:#42989e; stroke:none;" d="M810 248L810 249L817 248L810 248z"/>
<path style="fill:#6bffff; stroke:none;" d="M718 248L719 249L718 248z"/>
<path style="fill:#55c9c5; stroke:none;" d="M812.019 248.573C803.043 251.215 803.275 284.168 816.985 280.562C827.01 277.925 827.708 243.956 812.019 248.573z"/>
<path style="fill:#1f3c52; stroke:none;" d="M789 249L789 282L790 282L789 249z"/>
<path style="fill:#4badaf; stroke:none;" d="M806 253L806 273L807 273L806 253M823 253L823 274L824 274L823 253z"/>
<path style="fill:#42989e; stroke:none;" d="M788 254L788 298L789 298C789 285.52 792.81 265.463 788 254z"/>
<path style="fill:#1f3c52; stroke:none;" d="M805 254L805 273L806 273L805 254M736 255C736 281.356 732.189 311.087 737 337L738 337L737 281L736 255z"/>
<path style="fill:#42989e; stroke:none;" d="M917 256L917 257L923 257L917 256z"/>
<path style="fill:#55c9c5; stroke:none;" d="M916.059 258.028C909.285 261.734 910.37 285.512 912.893 291.995C914.656 296.522 919.367 299.234 923.956 296.82C931.433 292.887 931.148 269.159 928.397 262.019C926.588 257.327 920.362 255.673 916.059 258.028z"/>
<path style="fill:#33707c; stroke:none;" d="M847 260L847 261L852 261L847 260z"/>
<path style="fill:#01ffff; stroke:none;" d="M719.667 261.333L720.333 261.667L719.667 261.333z"/>
<path style="fill:#55c9c5; stroke:none;" d="M846.059 262.028C840.181 265.234 842 274.442 842 280C842 297.421 839.01 317.881 842.228 334.985C843.223 340.273 849.28 342.517 853.941 339.972C859.819 336.764 858 327.559 858 322C858 304.623 861.044 284.087 857.772 267.04C856.774 261.844 850.635 259.531 846.059 262.028z"/>
<path style="fill:#33707c; stroke:none;" d="M911 262L911 289L912 289L911 262M929 262L929 289L930 289L929 262z"/>
<path style="fill:#55c9c5; stroke:none;" d="M882.174 264.746C876.432 267.134 877 273.904 877 279C876.999 292.036 874.849 307.185 877.228 319.995C878.243 325.459 884.003 327.347 888.892 325.258C893.944 323.099 893.977 316.644 893.999 312C894.061 299.291 896.946 282.31 893.682 270.043C892.466 265.474 886.482 262.955 882.174 264.746z"/>
<path style="fill:#818181; stroke:none;" d="M702 266L703 267L702 266z"/>
<path style="fill:#4badaf; stroke:none;" d="M858 266L858 333L859 333L859 287L858 266z"/>
<path style="fill:#55c9c5; stroke:none;" d="M701 267L702 268L701 267z"/>
<path style="fill:#42989e; stroke:none;" d="M841 267L841 333L842 333L842 288L841 267z"/>
<path style="fill:#1f3c52; stroke:none;" d="M859 268L859 333L860 333L860 289L859 268z"/>
<path style="fill:#33707c; stroke:none;" d="M876 270L876 320L877 320C877 305.951 881.409 282.889 876 270M894 270L894 305L895 305L894 270z"/>
<path style="fill:#01ffff; stroke:none;" d="M684 271L685 272L684 271z"/>
<path style="fill:#1f3c52; stroke:none;" d="M770 272L770 297L771 297L770 272z"/>
<path style="fill:#33707c; stroke:none;" d="M806.333 273.667L806.667 274.333L806.333 273.667M719 278L718 311L719 311C721.008 302.567 722.376 286.045 719 278z"/>
<path style="fill:#55c9c5; stroke:none;" d="M718 280C714.617 284.262 711.387 288.643 708.127 293C704.606 297.705 701.458 301.822 702.11 308C702.755 314.122 709.035 318.277 714.775 314.821C721.69 310.658 720.748 286.549 718 280z"/>
<path style="fill:#6bffff; stroke:none;" d="M665 281L666 282L665 281z"/>
<path style="fill:#41bfbf; stroke:none;" d="M701 284L702 285L701 284z"/>
<path style="fill:#01ffff; stroke:none;" d="M665 289L666 290L665 289M684.333 289.667L684.667 290.333L684.333 289.667M667 292L669 294L667 292z"/>
<path style="fill:#41ffbf; stroke:none;" d="M703 294L704 295L703 294z"/>
<path style="fill:#42989e; stroke:none;" d="M754 294L754 333L755 333C755 321.828 758.311 304.274 754 294z"/>
<path style="fill:#55c9c5; stroke:none;" d="M701 295L701 298L702 298L703 295L701 295z"/>
<path style="fill:#33707c; stroke:none;" d="M701 302L701 308L702 308L701 302z"/>
<path style="fill:#1f3c52; stroke:none;" d="M755 303L754 337L755 337C757.055 328.368 758.454 311.23 755 303z"/>
<path style="fill:#33707c; stroke:none;" d="M776 305L776 306L782 306L776 305z"/>
<path style="fill:#1f3c52; stroke:none;" d="M894 305L894 318L895 318L894 305M840 314L840 333L841 333L840 314z"/>
<path style="fill:#33707c; stroke:none;" d="M707 316L707 317L712 317L707 316z"/>
<path style="fill:#42989e; stroke:none;" d="M881 326L881 327L887 327L881 326z"/>
<path style="fill:#33707c; stroke:none;" d="M841.333 333.667L841.667 334.333L841.333 333.667M743 341L743 342L748 342L743 341M847 341L847 342L852 342L847 341z"/>
</svg>
