<svg id="Layer_1" data-name="Layer 1" xmlns="http://www.w3.org/2000/svg" viewBox="0 0 1702.3 352.5"><defs><style>.cls-1{fill:none;stroke:#000;stroke-miterlimit:10;}.cls-2{fill:#55c8c5;}.cls-3{fill:#f2b705;}.cls-4{fill:#0e122f;}</style></defs><path class="cls-1" d="M758.9,385.4" transform="translate(-99.7 -341.1)"/><path class="cls-2" d="M266.6,484.3c-.2,17.2-2.8,35.4-15.8,47.2s-33,20.8-50.8,20.8l-56.8-.3v78l-43.5-.5V418H194q31.35,0,52.2,18.8T266.6,484.3Zm-39.2-3.5c-.6-6.3-4.5-13-10.5-17.8-5.4-4.3-21.2-8.1-34.2-8.1l-39.6-.5,1,59.1h40.3c13.6,0,28.4.1,36.2-9.8A30.84,30.84,0,0,0,227.4,480.8Z" transform="translate(-99.7 -341.1)"/><path class="cls-2" d="M483,627.2H435.3l-31-64.2-97.5.8-29.3,63.4H231.6l99.5-211.8h50.5ZM389.5,524l-32.4-74.7-32.4,74.9Z" transform="translate(-99.7 -341.1)"/><path class="cls-2" d="M688.9,520.5q0,43.5-31.2,74.5t-74.4,31.1L496,627.2l-2.3-212.6h79.1q50.55,0,83.3,30.2T688.9,520.5Zm-40.1-1.9c-.6-23.5-12.7-38.6-19.3-46.6-15.3-18.5-28.3-19.7-52.7-19.7H534.9V586.4l46.2-.7c24,0,31.3-2.6,49.3-18.8C640,558.4,649.6,542.7,648.8,518.6Z" transform="translate(-99.7 -341.1)"/><path class="cls-3" d="M1219.6,565.9q.3,25.8-18.3,44.1t-45,18.3c-17.6,0-32.5-6-44.8-18.2s-18.5-27.2-18.7-45.4H1115a41.22,41.22,0,0,0,11.8,30.2,39.45,39.45,0,0,0,29.1,13,41.53,41.53,0,0,0,30.6-12.1,38.71,38.71,0,0,0,12.2-30.3q-.9-29.4-38.8-41.3l-22.5-7c-11.9-3.7-21.2-10-27.8-19.1s-10-20-10.2-32.6c-.2-15.6,5.6-28.9,17.3-39.8a57.88,57.88,0,0,1,41.5-16.1c15.8.2,29.2,5.9,40.2,17.2a56.1,56.1,0,0,1,16.5,40.6h-22.2a35.83,35.83,0,0,0-9.7-25.8,34.75,34.75,0,0,0-24.5-11.6c-10.2-.6-19.2,2.8-27,10.1s-11.5,16-11.1,26.1c.4,16.6,8.4,27.3,24.2,32.3l25.6,8Q1219,521.95,1219.6,565.9Z" transform="translate(-99.7 -341.1)"/><path class="cls-3" d="M1460.8,467.7l-58.9,156.8h-24.4l-34.1-103.8-32,103.8h-24.2l-59.4-156.8h22.1l48.9,130.6,36.3-111.6H1353l35.7,110.6,49.5-129.5h22.6Z" transform="translate(-99.7 -341.1)"/><path class="cls-3" d="M1618.6,545.8v78.7h-20.9V600c-17,19.4-37.8,28.8-62.5,28-21.5-.7-39.9-9.1-55.1-25s-22.7-34.9-22.7-56.9q0-34.35,24.5-59c16.3-16.4,35.8-24.2,58.6-23.2q33,1.05,56.1,25.2T1618.6,545.8Zm-20.9-1.5c-.4-16.5-6.2-30.7-17.6-42.4s-25.1-17.6-41.1-17.6c-16.7,0-31,5.9-42.7,17.6s-17.7,26-17.9,42.7q-.6,24.75,16.4,43.4t40.9,19.7q26,1,44.2-18.1C1592.1,576.9,1598.1,561.8,1597.7,544.3Z" transform="translate(-99.7 -341.1)"/><path class="cls-3" d="M1802,545.8q0,34.35-24.5,59c-16.3,16.4-35.8,24.2-58.3,23.5q-34.65-1.35-58-27.8v78.9h-20.4V546.1q0-33.75,24.6-58.4t58.4-23.5q32.7.75,55.4,24.8C1794.5,504.9,1802,523.8,1802,545.8Zm-20.9,1.7a61.32,61.32,0,0,0-16.6-43.5c-11.2-12.4-25-18.9-41.2-19.5q-26-1.35-44.3,18c-12.2,12.9-18.2,28-17.8,45.3q.6,24.9,17.7,42.5t41.4,17.7a57.69,57.69,0,0,0,42.5-17.7A59.55,59.55,0,0,0,1781.1,547.5Z" transform="translate(-99.7 -341.1)"/><g id="Layer_1-2" data-name="Layer 1"><path class="cls-4" d="M1068,517.4a176.22,176.22,0,0,1-176.2,176.2c-32.4,0-63.2-8.1-88.9-24.1-9.9-6.1-13.3-12.2-9.3-20.8,9.3-20,98-133.2,97.3-133.3,0,0-89.5,71.9-129.9,97.8-11.9,7.7-16.7.1-17.2-.6-13.2-17.2-28.2-62.6-28.2-95.3a176.22,176.22,0,0,1,176.2-176.2C989.05,341.1,1068,420,1068,517.4Z" transform="translate(-99.7 -341.1)"/></g><g id="Layer_3" data-name="Layer 3"><path class="cls-2" d="M910.45,437a278.93,278.93,0,0,1-2.3,37.1c-8.6,11.2-14.6,21.3-17.2,28.9-2.7-7.6-8.6-17.6-17.1-28.7a283.44,283.44,0,0,1-2.3-37.4c0-43.4,19.5-78.7,19.5-78.7S910.45,393.6,910.45,437Z" transform="translate(-99.7 -341.1)"/><path class="cls-2" d="M882.15,507c-7.1-3.5-18.4-6.4-32.2-8.3a291.68,291.68,0,0,1-28.4-25.1c-30.7-30.7-41.9-69.4-41.9-69.4s38.7,11.2,69.4,41.9A277.72,277.72,0,0,1,874,474.4C875.75,488.3,878.65,499.7,882.15,507Z" transform="translate(-99.7 -341.1)"/><path class="cls-2" d="M878.65,515.7c-7.5,2.5-17.7,8.4-29,17h0a287.75,287.75,0,0,1-37.8,2.4c-43.4,0-78.7-19.5-78.7-19.5s35.2-19.5,78.7-19.5a292.32,292.32,0,0,1,38.1,2.4C861.05,507.2,871.15,513.2,878.65,515.7Z" transform="translate(-99.7 -341.1)"/><path class="cls-2" d="M932.55,577.6c-9.07-9-17-10.68-24.76-20.8-1.8-13.4-4.6-24.4-7.9-31.6,7.3,3.5,18.8,6.3,32.8,8.2a295,295,0,0,1,27.8,24.6" transform="translate(-99.7 -341.1)"/><path class="cls-2" d="M1048.35,516.3s-35.2,19.5-78.7,19.5a276,276,0,0,1-36.9-2.3c-11.7-9-22.3-15.2-30-17.7,7.3-2.4,17.2-8.1,28.2-16.4h0a284.47,284.47,0,0,1,38.8-2.5C1013.15,496.8,1048.35,516.3,1048.35,516.3Z" transform="translate(-99.7 -341.1)"/><path class="cls-2" d="M1002.45,404s-11.2,38.7-41.9,69.4a298.42,298.42,0,0,1-29.6,26h0c-13.3,1.9-24.2,4.7-31.2,8,3.6-7.3,6.6-18.9,8.5-33.3a287.19,287.19,0,0,1,24.9-28.3C963.85,415.2,1002.45,404,1002.45,404Z" transform="translate(-99.7 -341.1)"/></g><g id="Layer_4" data-name="Layer 4"><path class="cls-3" d="M946.05,462a55.52,55.52,0,0,0-11,3.3,105.16,105.16,0,0,0-30.5,19c-.3-10.7-3-23-8.1-35.4a52.3,52.3,0,0,0-5.2-9.7c15.7-23.8,46.2-34.1,46.2-34.1S951.75,434.1,946.05,462Z" transform="translate(-99.7 -341.1)"/><path class="cls-3" d="M891.25,439.2a52.3,52.3,0,0,0-5.2,9.7c-5,12.2-7.7,24.2-8.1,34.8-7.8-7.3-18.3-14-30.5-19.1a58.77,58.77,0,0,0-11.1-3.3c-5.3-27.7,8.8-56,8.8-56S875.55,415.5,891.25,439.2Z" transform="translate(-99.7 -341.1)"/><path class="cls-3" d="M858.15,502.4c-10.5.4-22.6,3.1-34.7,8.1a67.72,67.72,0,0,0-9.9,5.3c-23.3-15.8-33.4-45.8-33.4-45.8s28.4-14.1,56.1-8.7a57.38,57.38,0,0,0,3.3,11.2C844.55,484.4,851.05,494.7,858.15,502.4Z" transform="translate(-99.7 -341.1)"/><path class="cls-3" d="M1002.25,470.7s-10.1,29.9-33.3,45.7a58.38,58.38,0,0,0-10.7-5.9,104.5,104.5,0,0,0-34.1-8.1,103.86,103.86,0,0,0,18.7-30.1,66.14,66.14,0,0,0,3.2-10.4C973.85,456.6,1002.25,470.7,1002.25,470.7Z" transform="translate(-99.7 -341.1)"/><path class="cls-3" d="M1002.05,562s-28.7,14.2-56.5,8.7a55.52,55.52,0,0,0-3.3-11,105.72,105.72,0,0,0-18.1-29.5c10.5-.4,22.4-3.1,34.5-8.1a55,55,0,0,0,10.4-5.7C992.05,532.4,1002.05,562,1002.05,562Z" transform="translate(-99.7 -341.1)"/></g><g id="Layer_5" data-name="Layer 5"><polygon class="cls-3" points="817.45 110.4 791.55 151.9 762.55 110.4 775.75 159.2 723.75 148.3 769.05 175 744.55 194.2 775.75 190.8 775.89 204.8 791.55 197.5 809.75 221.3 807.95 190.8 856.25 201.9 814.65 175 856.25 148.3 807.35 159.2 817.45 110.4"/></g><g id="Layer_6" data-name="Layer 6"><polygon class="cls-4" points="791.35 88.2 787.85 165.4 730.65 112.8 783.35 171.1 705.45 174.6 782.15 178 766.83 194.7 787.85 183.2 791.35 259.8 794.75 183.7 850.85 234.6 799.85 178 875.95 174.6 801.05 170.6 851.95 113.9 795.35 165.4 791.35 88.2"/></g><g id="Layer_7" data-name="Layer 7"><polygon class="cls-4" points="809.75 129 791.75 158.6 771.55 129 780.75 163.8 744.55 156 776.15 175.1 744.55 194.2 780.75 186.3 771.55 221.3 791.75 191.1 809.75 221.3 803.15 186.3 836.85 194.2 807.85 175.1 836.85 156 802.75 163.8 809.75 129"/></g><g id="Layer_9" data-name="Layer 9"><path class="cls-4" d="M751.26,547.34c-2.67,1.8-8.88,1.08-11.59-2.17-2.94-3.53-1.48-8.15,1.17-11.12a116.19,116.19,0,0,1,34.75-23A149.76,149.76,0,0,1,821,501.76c79.31-2.77,81.77,44.59,143.52,52.75,29.73,3.93,48.82-10.89,60.08-22.82,3.94-2.08,9-.29,11.92,2.48a7.49,7.49,0,0,1,0,10.26c-16,14.66-30.49,30.47-73.24,27.47-54.61-3.8-62.41-58-141.55-52.8-16.35,1.08-28.38,4-40.09,9.7C767.6,535.55,766.73,536.94,751.26,547.34Z" transform="translate(-99.7 -341.1)"/></g><g id="Layer_8" data-name="Layer 8"><path class="cls-2" d="M796.25,588.16V559.71a9.43,9.43,0,0,1,17.8,0v15.52" transform="translate(-99.7 -341.1)"/><path class="cls-2" d="M761.25,613.2V578.27a9.43,9.43,0,0,1,17.8,0V600.9" transform="translate(-99.7 -341.1)"/><path class="cls-2" d="M849.35,570.1V675.91a9.66,9.66,0,0,1-17.8,0V593.79" transform="translate(-99.7 -341.1)"/><path class="cls-2" d="M865.8,574.35a9.43,9.43,0,0,1,17.8,0v65.93a9.66,9.66,0,0,1-17.8,0Z" transform="translate(-99.7 -341.1)"/><path class="cls-2" d="M899.75,594.48a9.43,9.43,0,0,1,17.8,0V616.4a9.66,9.66,0,0,1-17.8,0Z" transform="translate(-99.7 -341.1)"/><path class="cls-2" d="M935.22,607.21a9.43,9.43,0,0,1,17.79,0V676.1a9.65,9.65,0,0,1-17.79,0Z" transform="translate(-99.7 -341.1)"/><path class="cls-2" d="M970.39,611.27a9.43,9.43,0,0,1,17.8,0V661.2a9.66,9.66,0,0,1-17.8,0Z" transform="translate(-99.7 -341.1)"/><path class="cls-2" d="M1004.84,603.18a9.43,9.43,0,0,1,17.8,0V633.1a9.65,9.65,0,0,1-17.8,0Z" transform="translate(-99.7 -341.1)"/><path class="cls-2" d="M758.89,564.57c-2.49,2-8.86,1.08-11.56-2.17-2.93-3.53-1.48-8.15,1.17-11.12a116.28,116.28,0,0,1,34.66-23A149.65,149.65,0,0,1,828.44,519c79.11-2.77,76.22,53,143.16,52.75,29.91-.11,48.69-10.89,59.93-22.82,3.93-2.08,9-.29,11.89,2.48a7.49,7.49,0,0,1,0,10.26c-16,14.66-43.71,27.45-73,26.47-70.53-2.36-70.63-52.31-141.21-51.79-16.35.12-28.31,3-40,8.7C775.19,551.78,771.27,554.48,758.89,564.57Z" transform="translate(-99.7 -341.1)"/><path class="cls-2" d="M814.05,617.94v32.69a9.66,9.66,0,0,1-17.8,0v-6.84" transform="translate(-99.7 -341.1)"/></g></svg>