<svg xmlns="http://www.w3.org/2000/svg" viewBox="0 0 247.77 226.51"><defs><style>.cls-1{fill:#6498ff;}</style></defs><g id="Layer_2" data-name="Layer 2"><g id="Layer_2-2" data-name="Layer 2"><circle class="cls-1" cx="144.01" cy="79.41" r="15.94"/><circle class="cls-1" cx="104.94" cy="79.41" r="15.94"/><circle class="cls-1" cx="84.42" cy="113.41" r="15.94"/><circle class="cls-1" cx="104.94" cy="147.42" r="15.94"/><circle class="cls-1" cx="144.01" cy="147.42" r="15.94"/><circle class="cls-1" cx="163.88" cy="113.41" r="15.94"/><circle class="cls-1" cx="123.58" cy="47.27" r="9.58"/><circle class="cls-1" cx="181.9" cy="79.41" r="9.58"/><circle class="cls-1" cx="182.9" cy="146.09" r="9.58"/><circle class="cls-1" cx="65.71" cy="80.73" r="9.58"/><circle class="cls-1" cx="65.71" cy="146.09" r="9.58"/><circle class="cls-1" cx="123.58" cy="180.1" r="9.58"/><circle class="cls-1" cx="167.76" cy="38.45" r="7.82"/><circle class="cls-1" cx="211.56" cy="113.41" r="7.82"/><circle class="cls-1" cx="167.76" cy="187.92" r="7.82"/><circle class="cls-1" cx="79.72" cy="187.92" r="7.82"/><circle class="cls-1" cx="37.05" cy="113.41" r="7.82"/><circle class="cls-1" cx="79.72" cy="38.91" r="7.82"/><circle class="cls-1" cx="123.64" cy="6.67" r="6.67"/><circle class="cls-1" cx="217.01" cy="60.26" r="6.67"/><circle class="cls-1" cx="217.01" cy="166.57" r="6.67"/><circle class="cls-1" cx="123.58" cy="219.83" r="6.67"/><circle class="cls-1" cx="31.12" cy="166.57" r="6.67"/><circle class="cls-1" cx="31.12" cy="60.26" r="6.67"/><circle class="cls-1" cx="4.91" cy="113.41" r="4.91"/><circle class="cls-1" cx="65.71" cy="214.6" r="4.91"/><circle class="cls-1" cx="182.9" cy="214.6" r="4.91"/><circle class="cls-1" cx="242.86" cy="113.41" r="4.91"/><circle class="cls-1" cx="182.9" cy="12.11" r="4.91"/><circle class="cls-1" cx="64.54" cy="12.11" r="4.91"/></g></g></svg>