<svg width="30" height="30" viewBox="0 0 30 30" fill="none" xmlns="http://www.w3.org/2000/svg">
<path d="M15 30C23.2843 30 30 23.2843 30 15C30 6.71573 23.2843 0 15 0C6.71573 0 0 6.71573 0 15C0 23.2843 6.71573 30 15 30Z" fill="#F3BA2F"/>
<path d="M14.9999 5.62012L17.3199 7.99012L11.4899 13.8201L9.16992 11.5001L14.9999 5.62012Z" fill="white"/>
<path d="M18.5199 9.14014L20.8399 11.5101L11.4899 20.8601L9.16992 18.5401L18.5199 9.14014Z" fill="white"/>
<path d="M7.9699 12.6602L10.2899 15.0302L7.9699 17.3502L5.6499 15.0302L7.9699 12.6602Z" fill="white"/>
<path d="M22.0302 12.6602L24.3502 15.0302L15.0002 24.3802L12.6802 22.0602L22.0302 12.6602Z" fill="white"/>
</svg>
