<svg xmlns="http://www.w3.org/2000/svg" width="375" viewBox="0 0 375 375" height="375" version="1.0"><defs><clipPath id="a"><path d="M 125 119 L 215.257812 119 L 215.257812 261 L 125 261 Z M 125 119"/></clipPath><clipPath id="b"><path d="M 123 118 L 215.257812 118 L 215.257812 262 L 123 262 Z M 123 118"/></clipPath><clipPath id="c"><path d="M 144 128 L 215.257812 128 L 215.257812 179 L 144 179 Z M 144 128"/></clipPath><clipPath id="d"><path d="M 143 126 L 215.257812 126 L 215.257812 180 L 143 180 Z M 143 126"/></clipPath><clipPath id="e"><path d="M 125 59 L 215.257812 59 L 215.257812 170 L 125 170 Z M 125 59"/></clipPath><clipPath id="f"><path d="M 123 58 L 215.257812 58 L 215.257812 171 L 123 171 Z M 123 58"/></clipPath><clipPath id="g"><path d="M 204 103 L 215.257812 103 L 215.257812 112 L 204 112 Z M 204 103"/></clipPath><clipPath id="h"><path d="M 145.363281 120 L 261 120 L 261 169.445312 L 145.363281 169.445312 Z M 145.363281 120"/></clipPath><clipPath id="i"><path d="M 145.363281 119 L 262 119 L 262 169.445312 L 145.363281 169.445312 Z M 145.363281 119"/></clipPath><clipPath id="j"><path d="M 145.363281 129 L 241 129 L 241 169.445312 L 145.363281 169.445312 Z M 145.363281 129"/></clipPath><clipPath id="k"><path d="M 145.363281 127 L 243 127 L 243 169.445312 L 145.363281 169.445312 Z M 145.363281 127"/></clipPath><clipPath id="l"><path d="M 145.363281 60 L 261 60 L 261 169.445312 L 145.363281 169.445312 Z M 145.363281 60"/></clipPath><clipPath id="m"><path d="M 145.363281 59 L 262 59 L 262 169.445312 L 145.363281 169.445312 Z M 145.363281 59"/></clipPath><clipPath id="n"><path d="M 145.363281 66 L 164 66 L 164 89 L 145.363281 89 Z M 145.363281 66"/></clipPath><clipPath id="o"><path d="M 196.359375 168.464844 L 261 168.464844 L 261 261 L 196.359375 261 Z M 196.359375 168.464844"/></clipPath><clipPath id="p"><path d="M 196.359375 168.464844 L 262 168.464844 L 262 263 L 196.359375 263 Z M 196.359375 168.464844"/></clipPath><clipPath id="q"><path d="M 196.359375 168.464844 L 241 168.464844 L 241 179 L 196.359375 179 Z M 196.359375 168.464844"/></clipPath><clipPath id="r"><path d="M 196.359375 168.464844 L 243 168.464844 L 243 181 L 196.359375 181 Z M 196.359375 168.464844"/></clipPath><clipPath id="s"><path d="M 196.359375 168.464844 L 261 168.464844 L 261 171 L 196.359375 171 Z M 196.359375 168.464844"/></clipPath><clipPath id="t"><path d="M 196.359375 168.464844 L 262 168.464844 L 262 172 L 196.359375 172 Z M 196.359375 168.464844"/></clipPath><clipPath id="u"><path d="M 196.359375 176 L 206 176 L 206 202 L 196.359375 202 Z M 196.359375 176"/></clipPath><clipPath id="v"><path d="M 196.359375 175 L 207 175 L 207 204 L 196.359375 204 Z M 196.359375 175"/></clipPath><clipPath id="w"><path d="M 125 120 L 198.757812 120 L 198.757812 261 L 125 261 Z M 125 120"/></clipPath><clipPath id="x"><path d="M 123 119 L 198.757812 119 L 198.757812 263 L 123 263 Z M 123 119"/></clipPath><clipPath id="y"><path d="M 144 129 L 198.757812 129 L 198.757812 179 L 144 179 Z M 144 129"/></clipPath><clipPath id="z"><path d="M 143 127 L 198.757812 127 L 198.757812 181 L 143 181 Z M 143 127"/></clipPath><clipPath id="A"><path d="M 125 60 L 198.757812 60 L 198.757812 171 L 125 171 Z M 125 60"/></clipPath><clipPath id="B"><path d="M 123 59 L 198.757812 59 L 198.757812 172 L 123 172 Z M 123 59"/></clipPath><clipPath id="C"><path d="M 184 117 L 198.757812 117 L 198.757812 128 L 184 128 Z M 184 117"/></clipPath><clipPath id="D"><path d="M 191 122 L 198.757812 122 L 198.757812 137 L 191 137 Z M 191 122"/></clipPath><clipPath id="E"><path d="M 180 176 L 198.757812 176 L 198.757812 202 L 180 202 Z M 180 176"/></clipPath><clipPath id="F"><path d="M 178 175 L 198.757812 175 L 198.757812 204 L 178 204 Z M 178 175"/></clipPath><clipPath id="G"><path d="M 186.628906 120 L 261 120 L 261 261 L 186.628906 261 Z M 186.628906 120"/></clipPath><clipPath id="H"><path d="M 186.628906 119 L 262 119 L 262 263 L 186.628906 263 Z M 186.628906 119"/></clipPath><clipPath id="I"><path d="M 186.628906 129 L 241 129 L 241 179 L 186.628906 179 Z M 186.628906 129"/></clipPath><clipPath id="J"><path d="M 186.628906 127 L 243 127 L 243 181 L 186.628906 181 Z M 186.628906 127"/></clipPath><clipPath id="K"><path d="M 186.628906 60 L 261 60 L 261 171 L 186.628906 171 Z M 186.628906 60"/></clipPath><clipPath id="L"><path d="M 186.628906 59 L 262 59 L 262 172 L 186.628906 172 Z M 186.628906 59"/></clipPath><clipPath id="M"><path d="M 186.628906 117 L 202 117 L 202 128 L 186.628906 128 Z M 186.628906 117"/></clipPath><clipPath id="N"><path d="M 186.628906 122 L 195 122 L 195 137 L 186.628906 137 Z M 186.628906 122"/></clipPath><clipPath id="O"><path d="M 186.628906 176 L 206 176 L 206 202 L 186.628906 202 Z M 186.628906 176"/></clipPath><clipPath id="P"><path d="M 186.628906 175 L 207 175 L 207 204 L 186.628906 204 Z M 186.628906 175"/></clipPath><clipPath id="Q"><path d="M 180.578125 177 L 205.328125 177 L 205.328125 201.699219 L 180.578125 201.699219 Z M 180.578125 177"/></clipPath><clipPath id="R"><path d="M 216 209 L 232 209 L 232 222 L 216 222 Z M 216 209"/></clipPath><clipPath id="S"><path d="M 215.253906 217.710938 L 223.429688 193.558594 L 235.507812 197.648438 L 227.332031 221.800781 Z M 215.253906 217.710938"/></clipPath><clipPath id="T"><path d="M 215.253906 217.710938 L 223.429688 193.558594 L 235.507812 197.648438 L 227.332031 221.800781 Z M 215.253906 217.710938"/></clipPath><clipPath id="U"><path d="M 215.253906 217.710938 L 223.429688 193.558594 L 235.507812 197.648438 L 227.332031 221.800781 Z M 215.253906 217.710938"/></clipPath><clipPath id="V"><path d="M 221 198 L 224 198 L 224 201 L 221 201 Z M 221 198"/></clipPath><clipPath id="W"><path d="M 215.253906 217.710938 L 223.429688 193.558594 L 235.507812 197.648438 L 227.332031 221.800781 Z M 215.253906 217.710938"/></clipPath><clipPath id="X"><path d="M 215.253906 217.710938 L 223.429688 193.558594 L 235.507812 197.648438 L 227.332031 221.800781 Z M 215.253906 217.710938"/></clipPath><clipPath id="Y"><path d="M 215.253906 217.710938 L 223.429688 193.558594 L 235.507812 197.648438 L 227.332031 221.800781 Z M 215.253906 217.710938"/></clipPath><clipPath id="Z"><path d="M 222 194 L 227 194 L 227 206 L 222 206 Z M 222 194"/></clipPath><clipPath id="aa"><path d="M 215.253906 217.710938 L 223.429688 193.558594 L 235.507812 197.648438 L 227.332031 221.800781 Z M 215.253906 217.710938"/></clipPath><clipPath id="ab"><path d="M 215.253906 217.710938 L 223.429688 193.558594 L 235.507812 197.648438 L 227.332031 221.800781 Z M 215.253906 217.710938"/></clipPath><clipPath id="ac"><path d="M 215.253906 217.710938 L 223.429688 193.558594 L 235.507812 197.648438 L 227.332031 221.800781 Z M 215.253906 217.710938"/></clipPath><clipPath id="ad"><path d="M 224 201 L 229 201 L 229 206 L 224 206 Z M 224 201"/></clipPath><clipPath id="ae"><path d="M 215.253906 217.710938 L 223.429688 193.558594 L 235.507812 197.648438 L 227.332031 221.800781 Z M 215.253906 217.710938"/></clipPath><clipPath id="af"><path d="M 215.253906 217.710938 L 223.429688 193.558594 L 235.507812 197.648438 L 227.332031 221.800781 Z M 215.253906 217.710938"/></clipPath><clipPath id="ag"><path d="M 215.253906 217.710938 L 223.429688 193.558594 L 235.507812 197.648438 L 227.332031 221.800781 Z M 215.253906 217.710938"/></clipPath><clipPath id="ah"><path d="M 225 197 L 230 197 L 230 201 L 225 201 Z M 225 197"/></clipPath><clipPath id="ai"><path d="M 215.253906 217.710938 L 223.429688 193.558594 L 235.507812 197.648438 L 227.332031 221.800781 Z M 215.253906 217.710938"/></clipPath><clipPath id="aj"><path d="M 215.253906 217.710938 L 223.429688 193.558594 L 235.507812 197.648438 L 227.332031 221.800781 Z M 215.253906 217.710938"/></clipPath><clipPath id="ak"><path d="M 215.253906 217.710938 L 223.429688 193.558594 L 235.507812 197.648438 L 227.332031 221.800781 Z M 215.253906 217.710938"/></clipPath><clipPath id="al"><path d="M 228 197 L 235 197 L 235 208 L 228 208 Z M 228 197"/></clipPath><clipPath id="am"><path d="M 215.253906 217.710938 L 223.429688 193.558594 L 235.507812 197.648438 L 227.332031 221.800781 Z M 215.253906 217.710938"/></clipPath><clipPath id="an"><path d="M 215.253906 217.710938 L 223.429688 193.558594 L 235.507812 197.648438 L 227.332031 221.800781 Z M 215.253906 217.710938"/></clipPath><clipPath id="ao"><path d="M 215.253906 217.710938 L 223.429688 193.558594 L 235.507812 197.648438 L 227.332031 221.800781 Z M 215.253906 217.710938"/></clipPath></defs><g clip-path="url(#a)"><path fill="#FFF" d="M 256.585938 181.203125 C 256.582031 181.195312 256.582031 181.191406 256.578125 181.1875 C 251.109375 163.234375 272.21875 145.855469 272.21875 125.015625 C 269.339844 111.859375 253.101562 128.320312 253.101562 128.320312 L 236.34375 151.351562 C 224.863281 140.402344 210.347656 133.902344 192.316406 133.902344 C 148.921875 133.902344 130.269531 181.027344 125.707031 213.195312 C 122.792969 233.710938 131.0625 258.410156 150.046875 258.410156 C 178.589844 258.410156 178.953125 238.847656 193.148438 238.847656 C 207.34375 238.847656 218.667969 267.542969 250.359375 258.410156 C 262.730469 254.847656 271.035156 234.289062 267.949219 218.414062 C 265.347656 205.027344 261.605469 192.410156 256.585938 181.203125"/></g><g clip-path="url(#b)"><path stroke-linecap="round" transform="matrix(.087 0 0 -.0868 13.715 344.52)" fill="none" stroke-linejoin="round" d="M 2791.621333 1881.60753 C 2791.576434 1881.697539 2791.576434 1881.742544 2791.531534 1881.787549 C 2728.672331 2088.62988 2971.308855 2288.856497 2971.308855 2528.957419 C 2938.217974 2680.533783 2751.571041 2490.883308 2751.571041 2490.883308 L 2558.952483 2225.534661 C 2426.993056 2351.68328 2260.146772 2426.571365 2052.890999 2426.571365 C 1554.103224 2426.571365 1339.708442 1883.632748 1287.265907 1513.017736 C 1253.770932 1276.652218 1348.823026 992.086496 1567.03426 992.086496 C 1895.1144 992.086496 1899.290047 1217.470829 2062.454578 1217.470829 C 2225.619109 1217.470829 2355.782559 886.865136 2720.05164 992.086496 C 2862.248137 1033.130927 2957.704327 1269.991499 2922.233777 1452.891245 C 2892.330756 1607.122896 2849.317101 1752.48859 2791.621333 1881.60753 Z M 2791.621333 1881.60753" stroke="#311" stroke-width="34.177" stroke-miterlimit="10"/></g><g clip-path="url(#c)"><path fill="#FFC107" d="M 240.394531 153.226562 C 240.394531 166.984375 218.996094 178.136719 192.605469 178.136719 C 166.214844 178.136719 144.820312 166.984375 144.820312 153.226562 C 144.820312 139.472656 166.214844 128.320312 192.605469 128.320312 C 218.996094 128.320312 240.394531 139.472656 240.394531 153.226562"/></g><g clip-path="url(#d)"><path stroke-linecap="round" transform="matrix(.087 0 0 -.0868 13.715 344.52)" fill="none" stroke-linejoin="round" d="M 2605.513193 2203.932328 C 2605.513193 2045.425216 2359.554111 1916.936344 2056.213557 1916.936344 C 1752.873003 1916.936344 1506.958821 2045.425216 1506.958821 2203.932328 C 1506.958821 2362.394436 1752.873003 2490.883308 2056.213557 2490.883308 C 2359.554111 2490.883308 2605.513193 2362.394436 2605.513193 2203.932328 Z M 2605.513193 2203.932328" stroke="#311" stroke-width="34.177" stroke-miterlimit="10"/></g><g clip-path="url(#e)"><path fill="#FFF" d="M 251.300781 91.894531 C 251.082031 82.535156 249.921875 62.480469 243.933594 60.160156 C 238.328125 57.984375 224.496094 65.574219 217.054688 70.085938 C 209.226562 68.117188 200.648438 67.113281 191.648438 67.113281 C 182.414062 67.113281 173.613281 68.167969 165.617188 70.246094 C 158.242188 65.753906 144.148438 57.960938 138.476562 60.160156 C 132.152344 62.613281 131.210938 84.847656 131.082031 93.371094 C 127.28125 99.671875 125.144531 107.078125 125.144531 115.582031 C 125.144531 147.472656 154.921875 169.285156 191.648438 169.285156 C 228.382812 169.285156 258.160156 147.472656 258.160156 115.582031 C 258.160156 106.402344 255.683594 98.507812 251.300781 91.894531"/></g><g clip-path="url(#f)"><path stroke-linecap="round" transform="matrix(.087 0 0 -.0868 13.715 344.52)" fill="none" stroke-linejoin="round" d="M 2730.872403 2910.553616 C 2728.358035 3018.385258 2715.022904 3249.440203 2646.192077 3276.173089 C 2581.761394 3301.240795 2422.77251 3213.796355 2337.239094 3161.815743 C 2247.260635 3184.498192 2148.661485 3196.06444 2045.213197 3196.06444 C 1939.070943 3196.06444 1837.912525 3183.913129 1746.003391 3159.970544 C 1661.233265 3211.726131 1499.236119 3301.510825 1434.042146 3276.173089 C 1361.349968 3247.910038 1350.529205 2991.742381 1349.047524 2893.54178 C 1305.360378 2820.948942 1280.800389 2735.61973 1280.800389 2637.644153 C 1280.800389 2270.224485 1623.068749 2018.917354 2045.213197 2018.917354 C 2467.447443 2018.917354 2809.715804 2270.224485 2809.715804 2637.644153 C 2809.715804 2743.405571 2781.249564 2834.36039 2730.872403 2910.553616 Z M 2730.872403 2910.553616" stroke="#311" stroke-width="34.177" stroke-miterlimit="10"/></g><path fill="#311" d="M 138.777344 89.132812 C 138.777344 89.132812 138.78125 69.066406 143.507812 67.304688 C 148.230469 65.535156 162.46875 75.371094 162.46875 75.371094 C 162.46875 75.371094 155.097656 77.765625 148.882812 81.570312 C 142.675781 85.378906 138.777344 89.132812 138.777344 89.132812"/><path fill="#311" d="M 201.089844 119.519531 C 201.089844 123.457031 192.605469 126.410156 192.605469 126.410156 C 192.605469 126.410156 184.121094 124.492188 184.121094 119.519531 C 184.121094 117.835938 187.917969 116.476562 192.605469 116.476562 C 197.292969 116.476562 201.089844 117.835938 201.089844 119.519531"/><path stroke-linecap="round" transform="matrix(.087 0 0 -.0868 13.715 344.52)" fill="none" stroke-linejoin="round" d="M 2056.213557 2555.150246 C 2056.213557 2555.150246 2048.490855 2490.073221 2032.596457 2460.280004 C 2001.795447 2402.673785 1934.356502 2426.976409 1921.694863 2472.83636" stroke="#311" stroke-width="34.177" stroke-miterlimit="10"/><path stroke-linecap="round" transform="matrix(.087 0 0 -.0868 13.715 344.52)" fill="none" stroke-linejoin="round" d="M 2056.213557 2555.150246 C 2056.213557 2555.150246 2063.981159 2490.073221 2079.875557 2460.280004 C 2110.631667 2402.673785 2178.070612 2426.976409 2190.777151 2472.83636" stroke="#311" stroke-width="34.177" stroke-miterlimit="10"/><g clip-path="url(#g)"><path fill="#311" d="M 204.824219 108.28125 C 204.824219 108.28125 205.101562 108.015625 205.582031 107.550781 C 205.699219 107.4375 205.832031 107.3125 205.976562 107.167969 C 206.050781 107.101562 206.128906 107.027344 206.207031 106.953125 C 206.308594 106.878906 206.414062 106.796875 206.523438 106.714844 C 206.957031 106.398438 207.4375 106.003906 207.988281 105.664062 C 208.5625 105.382812 209.136719 104.996094 209.828125 104.75 C 210.515625 104.5 211.230469 104.226562 212.015625 104.105469 C 212.785156 103.90625 213.601562 103.898438 214.414062 103.839844 C 215.230469 103.882812 216.058594 103.878906 216.855469 104.054688 C 217.671875 104.164062 218.445312 104.410156 219.207031 104.628906 C 219.945312 104.917969 220.6875 105.160156 221.347656 105.515625 C 222.027344 105.828125 222.640625 106.210938 223.222656 106.570312 C 223.796875 106.933594 224.308594 107.324219 224.78125 107.683594 C 225.222656 108.082031 225.660156 108.402344 225.992188 108.757812 C 226.324219 109.109375 226.636719 109.390625 226.851562 109.660156 C 227.289062 110.199219 227.542969 110.507812 227.542969 110.507812 C 227.726562 110.730469 227.691406 111.054688 227.464844 111.238281 C 227.253906 111.410156 226.949219 111.386719 226.765625 111.195312 L 226.726562 111.15625 C 226.726562 111.15625 226.472656 110.890625 226.03125 110.429688 C 225.816406 110.195312 225.503906 109.957031 225.171875 109.660156 C 224.847656 109.359375 224.410156 109.089844 223.980469 108.757812 C 223.515625 108.464844 223.015625 108.140625 222.464844 107.847656 C 221.902344 107.5625 221.320312 107.261719 220.675781 107.027344 C 220.054688 106.75 219.371094 106.585938 218.695312 106.378906 C 218 106.246094 217.304688 106.078125 216.597656 106.042969 C 215.894531 105.941406 215.195312 106.011719 214.511719 106.023438 C 213.839844 106.132812 213.167969 106.183594 212.5625 106.398438 C 211.9375 106.539062 211.386719 106.816406 210.855469 107.054688 C 210.324219 107.285156 209.894531 107.644531 209.457031 107.890625 C 209.058594 108.183594 208.757812 108.492188 208.453125 108.726562 C 208.378906 108.789062 208.304688 108.851562 208.238281 108.90625 C 208.167969 108.984375 208.097656 109.0625 208.03125 109.136719 C 207.898438 109.289062 207.777344 109.425781 207.667969 109.546875 C 207.226562 110.046875 206.96875 110.332031 206.96875 110.332031 C 206.425781 110.949219 205.488281 111.007812 204.871094 110.464844 C 204.253906 109.917969 204.199219 108.984375 204.742188 108.367188 C 204.769531 108.339844 204.792969 108.3125 204.820312 108.285156 L 204.824219 108.28125"/></g><path fill="#311" d="M 176.074219 110.335938 C 176.074219 110.335938 175.820312 110.046875 175.378906 109.546875 C 175.269531 109.425781 175.148438 109.289062 175.015625 109.136719 C 174.945312 109.0625 174.878906 108.984375 174.808594 108.90625 C 174.738281 108.851562 174.667969 108.789062 174.59375 108.726562 C 174.289062 108.492188 173.984375 108.183594 173.585938 107.890625 C 173.152344 107.644531 172.722656 107.285156 172.191406 107.054688 C 171.660156 106.816406 171.109375 106.539062 170.480469 106.398438 C 169.875 106.183594 169.207031 106.132812 168.535156 106.023438 C 167.851562 106.011719 167.152344 105.941406 166.449219 106.042969 C 165.738281 106.078125 165.042969 106.246094 164.351562 106.378906 C 163.675781 106.585938 162.992188 106.75 162.371094 107.027344 C 161.726562 107.261719 161.140625 107.5625 160.582031 107.847656 C 160.03125 108.140625 159.527344 108.464844 159.066406 108.757812 C 158.632812 109.089844 158.195312 109.359375 157.875 109.660156 C 157.542969 109.957031 157.226562 110.195312 157.011719 110.429688 C 156.570312 110.890625 156.320312 111.15625 156.320312 111.15625 L 156.28125 111.191406 C 156.082031 111.398438 155.753906 111.40625 155.546875 111.210938 C 155.351562 111.019531 155.335938 110.714844 155.503906 110.507812 C 155.503906 110.507812 155.753906 110.199219 156.195312 109.660156 C 156.410156 109.390625 156.722656 109.109375 157.054688 108.757812 C 157.382812 108.402344 157.820312 108.082031 158.265625 107.683594 C 158.734375 107.324219 159.25 106.933594 159.824219 106.570312 C 160.402344 106.210938 161.015625 105.828125 161.699219 105.515625 C 162.359375 105.160156 163.101562 104.917969 163.835938 104.628906 C 164.601562 104.410156 165.375 104.164062 166.1875 104.054688 C 166.988281 103.878906 167.816406 103.882812 168.628906 103.839844 C 169.445312 103.898438 170.261719 103.90625 171.027344 104.105469 C 171.8125 104.226562 172.53125 104.5 173.21875 104.75 C 173.90625 104.996094 174.484375 105.382812 175.054688 105.664062 C 175.609375 106.003906 176.089844 106.398438 176.523438 106.714844 C 176.632812 106.796875 176.738281 106.878906 176.835938 106.953125 C 176.917969 107.027344 176.996094 107.101562 177.066406 107.167969 C 177.214844 107.308594 177.347656 107.4375 177.464844 107.550781 C 177.945312 108.015625 178.21875 108.277344 178.21875 108.277344 L 178.222656 108.285156 C 178.8125 108.855469 178.832031 109.792969 178.261719 110.382812 C 177.691406 110.972656 176.75 110.988281 176.15625 110.417969 C 176.128906 110.394531 176.097656 110.363281 176.074219 110.335938"/><path fill="#FFC107" d="M 205.035156 188.628906 C 205.035156 195.476562 199.472656 201.03125 192.605469 201.03125 C 185.742188 201.03125 180.171875 195.476562 180.171875 188.628906 C 180.171875 181.777344 185.742188 176.226562 192.605469 176.226562 C 199.472656 176.226562 205.035156 181.777344 205.035156 188.628906"/><path stroke-linecap="round" transform="matrix(.087 0 0 -.0868 13.715 344.52)" fill="none" stroke-linejoin="round" d="M 2199.083546 1796.053293 C 2199.083546 1717.159776 2135.146757 1653.162866 2056.213557 1653.162866 C 1977.325258 1653.162866 1913.298669 1717.159776 1913.298669 1796.053293 C 1913.298669 1874.991815 1977.325258 1938.94372 2056.213557 1938.94372 C 2135.146757 1938.94372 2199.083546 1874.991815 2199.083546 1796.053293 Z M 2199.083546 1796.053293" stroke="#311" stroke-width="34.177" stroke-miterlimit="10"/><path stroke-linecap="round" transform="matrix(.087 0 0 -.0868 13.715 344.52)" fill="#FFF" stroke-linejoin="round" d="M 1500.448404 1700.687997 L 1672.907117 1192.853171 C 1672.907117 1192.853171 1577.316229 1089.792044 1611.93369 1017.199207 C 1639.277444 960.043036 1727.14563 965.713648 1827.585656 984.34566 C 1954.381648 1007.883201 1979.52533 1108.379051 1944.00988 1180.566844 C 1923.715337 1221.791295 1900.681929 1561.487969 1900.681929 1561.487969" stroke="#311" stroke-width="34.177" stroke-miterlimit="10"/><path stroke-linecap="round" transform="matrix(.087 0 0 -.0868 13.715 344.52)" fill="#FFF" stroke-linejoin="round" d="M 1679.77673 976.964863 C 1640.040734 1072.195144 1679.372635 1126.06596 1711.385929 1148.073336" stroke="#311" stroke-width="34.177" stroke-miterlimit="10"/><path stroke-linecap="round" transform="matrix(.087 0 0 -.0868 13.715 344.52)" fill="#FFF" stroke-linejoin="round" d="M 1771.057273 976.964863 C 1743.264525 1044.652171 1779.722863 1103.968575 1811.736157 1125.930946" stroke="#311" stroke-width="34.177" stroke-miterlimit="10"/><g clip-path="url(#h)"><path fill="#FFF" d="M 128.753906 181.953125 C 128.757812 181.945312 128.757812 181.941406 128.757812 181.9375 C 134.226562 163.984375 113.121094 146.605469 113.121094 125.765625 C 116 112.609375 132.234375 129.070312 132.234375 129.070312 L 148.992188 152.101562 C 160.472656 141.152344 174.988281 134.652344 193.019531 134.652344 C 236.414062 134.652344 255.066406 181.777344 259.628906 213.945312 C 262.542969 234.460938 254.273438 259.160156 235.289062 259.160156 C 206.746094 259.160156 206.382812 239.597656 192.1875 239.597656 C 177.992188 239.597656 166.667969 268.292969 134.980469 259.160156 C 122.605469 255.597656 114.300781 235.039062 117.386719 219.164062 C 119.988281 205.777344 123.734375 193.160156 128.753906 181.953125"/></g><g clip-path="url(#i)"><path stroke-linecap="round" transform="matrix(-.087 0 0 -.0868 371.622 345.27)" fill="none" stroke-linejoin="round" d="M 2791.587531 1881.607529 C 2791.542632 1881.697539 2791.542632 1881.742544 2791.542632 1881.787549 C 2728.683429 2088.62988 2971.275053 2288.856496 2971.275053 2528.957418 C 2938.184172 2680.533782 2751.582138 2490.883307 2751.582138 2490.883307 L 2558.96358 2225.53466 C 2427.004154 2351.683279 2260.157869 2426.571364 2052.902097 2426.571364 C 1554.114321 2426.571364 1339.719539 1883.632748 1287.277004 1513.017736 C 1253.782029 1276.652217 1348.834124 992.086495 1567.045357 992.086495 C 1895.125497 992.086495 1899.301144 1217.470828 2062.465676 1217.470828 C 2225.630207 1217.470828 2355.793656 886.865135 2720.017838 992.086495 C 2862.259235 1033.130926 2957.715425 1269.991498 2922.244874 1452.891244 C 2892.341853 1607.122895 2849.283299 1752.488589 2791.587531 1881.607529 Z M 2791.587531 1881.607529" stroke="#311" stroke-width="34.177" stroke-miterlimit="10"/></g><g clip-path="url(#j)"><path fill="#FFC107" d="M 144.941406 153.976562 C 144.941406 167.734375 166.339844 178.886719 192.730469 178.886719 C 219.125 178.886719 240.515625 167.734375 240.515625 153.976562 C 240.515625 140.222656 219.125 129.070312 192.730469 129.070312 C 166.339844 129.070312 144.941406 140.222656 144.941406 153.976562"/></g><g clip-path="url(#k)"><path stroke-linecap="round" transform="matrix(-.087 0 0 -.0868 371.622 345.27)" fill="none" stroke-linejoin="round" d="M 2605.52429 2203.932328 C 2605.52429 2045.425215 2359.565209 1916.936343 2056.224655 1916.936343 C 1752.839201 1916.936343 1506.969919 2045.425215 1506.969919 2203.932328 C 1506.969919 2362.394436 1752.839201 2490.883307 2056.224655 2490.883307 C 2359.565209 2490.883307 2605.52429 2362.394436 2605.52429 2203.932328 Z M 2605.52429 2203.932328" stroke="#311" stroke-width="34.177" stroke-miterlimit="10"/></g><g clip-path="url(#l)"><path fill="#FFF" d="M 134.039062 92.644531 C 134.253906 83.285156 135.414062 63.230469 141.40625 60.910156 C 147.007812 58.734375 160.839844 66.324219 168.285156 70.835938 C 176.109375 68.867188 184.6875 67.863281 193.6875 67.863281 C 202.921875 67.863281 211.726562 68.917969 219.71875 70.996094 C 227.097656 66.503906 241.191406 58.710938 246.863281 60.910156 C 253.1875 63.363281 254.128906 85.597656 254.253906 94.121094 C 258.054688 100.421875 260.191406 107.828125 260.191406 116.332031 C 260.191406 148.222656 230.414062 170.035156 193.6875 170.035156 C 156.953125 170.035156 127.175781 148.222656 127.175781 116.332031 C 127.175781 107.152344 129.652344 99.257812 134.039062 92.644531"/></g><g clip-path="url(#m)"><path stroke-linecap="round" transform="matrix(-.087 0 0 -.0868 371.622 345.27)" fill="none" stroke-linejoin="round" d="M 2730.838601 2910.553616 C 2728.369133 3018.385257 2715.034002 3249.440202 2646.158275 3276.173088 C 2581.772491 3301.240795 2422.783607 3213.796354 2337.205292 3161.815742 C 2247.271732 3184.498191 2148.672583 3196.06444 2045.224294 3196.06444 C 1939.08204 3196.06444 1837.878723 3183.913128 1746.014488 3159.970543 C 1661.199463 3211.726131 1499.202317 3301.510824 1434.008344 3276.173088 C 1361.316166 3247.910037 1350.495403 2991.742381 1349.058621 2893.541779 C 1305.371475 2820.948942 1280.811486 2735.61973 1280.811486 2637.644152 C 1280.811486 2270.224485 1623.079847 2018.917353 2045.224294 2018.917353 C 2467.458541 2018.917353 2809.726901 2270.224485 2809.726901 2637.644152 C 2809.726901 2743.40557 2781.260662 2834.36039 2730.838601 2910.553616 Z M 2730.838601 2910.553616" stroke="#311" stroke-width="34.177" stroke-miterlimit="10"/></g><path fill="#311" d="M 246.558594 89.882812 C 246.558594 89.882812 246.554688 69.816406 241.828125 68.054688 C 237.105469 66.285156 222.867188 76.121094 222.867188 76.121094 C 222.867188 76.121094 230.238281 78.515625 236.453125 82.320312 C 242.660156 86.128906 246.558594 89.882812 246.558594 89.882812"/><g clip-path="url(#n)"><path fill="#311" d="M 139.789062 88.960938 C 139.789062 88.960938 139.796875 68.886719 144.523438 67.128906 C 149.25 65.367188 163.488281 75.195312 163.488281 75.195312 C 163.488281 75.195312 156.113281 77.59375 149.902344 81.398438 C 143.691406 85.203125 139.789062 88.960938 139.789062 88.960938"/></g><path fill="#311" d="M 184.246094 120.269531 C 184.246094 124.207031 192.730469 127.160156 192.730469 127.160156 C 192.730469 127.160156 201.214844 125.242188 201.214844 120.269531 C 201.214844 118.585938 197.417969 117.226562 192.730469 117.226562 C 188.046875 117.226562 184.246094 118.585938 184.246094 120.269531"/><path stroke-linecap="round" transform="matrix(-.087 0 0 -.0868 371.622 345.27)" fill="none" stroke-linejoin="round" d="M 2056.224655 2555.150246 C 2056.224655 2555.150246 2048.457053 2490.07322 2032.562655 2460.280003 C 2001.806545 2402.673784 1934.3676 2426.976408 1921.661061 2472.836359" stroke="#311" stroke-width="34.177" stroke-miterlimit="10"/><path stroke-linecap="round" transform="matrix(-.087 0 0 -.0868 371.622 345.27)" fill="none" stroke-linejoin="round" d="M 2056.224655 2555.150246 C 2056.224655 2555.150246 2063.992256 2490.07322 2079.886655 2460.280003 C 2110.642765 2402.673784 2178.08171 2426.976408 2190.788249 2472.836359" stroke="#311" stroke-width="34.177" stroke-miterlimit="10"/><path fill="#311" d="M 180.511719 109.03125 C 180.511719 109.03125 180.234375 108.765625 179.757812 108.300781 C 179.636719 108.1875 179.503906 108.0625 179.359375 107.917969 C 179.289062 107.851562 179.210938 107.777344 179.132812 107.703125 C 179.027344 107.628906 178.921875 107.546875 178.816406 107.464844 C 178.378906 107.148438 177.898438 106.753906 177.347656 106.414062 C 176.777344 106.132812 176.199219 105.746094 175.507812 105.5 C 174.820312 105.25 174.109375 104.976562 173.320312 104.855469 C 172.550781 104.65625 171.734375 104.648438 170.925781 104.589844 C 170.109375 104.632812 169.277344 104.628906 168.480469 104.804688 C 167.664062 104.914062 166.894531 105.160156 166.128906 105.378906 C 165.390625 105.667969 164.648438 105.910156 163.992188 106.265625 C 163.308594 106.578125 162.695312 106.960938 162.113281 107.320312 C 161.539062 107.683594 161.027344 108.074219 160.554688 108.433594 C 160.113281 108.832031 159.675781 109.152344 159.34375 109.507812 C 159.011719 109.859375 158.699219 110.140625 158.484375 110.410156 C 158.046875 110.949219 157.796875 111.257812 157.796875 111.257812 C 157.613281 111.480469 157.644531 111.804688 157.871094 111.988281 C 158.082031 112.160156 158.386719 112.136719 158.570312 111.945312 L 158.613281 111.90625 C 158.613281 111.90625 158.863281 111.640625 159.304688 111.179688 C 159.519531 110.945312 159.835938 110.707031 160.164062 110.410156 C 160.492188 110.109375 160.925781 109.839844 161.355469 109.507812 C 161.820312 109.214844 162.324219 108.890625 162.871094 108.597656 C 163.433594 108.3125 164.019531 108.011719 164.660156 107.777344 C 165.28125 107.5 165.964844 107.335938 166.640625 107.128906 C 167.335938 106.996094 168.03125 106.828125 168.738281 106.792969 C 169.441406 106.691406 170.140625 106.761719 170.824219 106.773438 C 171.5 106.882812 172.167969 106.933594 172.773438 107.148438 C 173.402344 107.289062 173.953125 107.566406 174.480469 107.804688 C 175.011719 108.035156 175.445312 108.394531 175.878906 108.640625 C 176.277344 108.933594 176.578125 109.242188 176.882812 109.476562 C 176.957031 109.539062 177.03125 109.601562 177.097656 109.65625 C 177.171875 109.734375 177.238281 109.8125 177.304688 109.886719 C 177.4375 110.039062 177.5625 110.175781 177.667969 110.296875 C 178.113281 110.796875 178.367188 111.082031 178.367188 111.082031 C 178.910156 111.699219 179.847656 111.757812 180.464844 111.214844 C 181.082031 110.667969 181.140625 109.734375 180.597656 109.117188 C 180.570312 109.089844 180.542969 109.0625 180.519531 109.035156 L 180.511719 109.03125"/><path fill="#311" d="M 209.261719 111.085938 C 209.261719 111.085938 209.515625 110.796875 209.957031 110.296875 C 210.066406 110.175781 210.1875 110.039062 210.320312 109.886719 C 210.390625 109.8125 210.457031 109.734375 210.527344 109.65625 C 210.597656 109.601562 210.667969 109.539062 210.742188 109.476562 C 211.050781 109.242188 211.351562 108.933594 211.75 108.640625 C 212.183594 108.394531 212.617188 108.035156 213.144531 107.804688 C 213.675781 107.566406 214.226562 107.289062 214.855469 107.148438 C 215.460938 106.933594 216.128906 106.882812 216.804688 106.773438 C 217.484375 106.761719 218.1875 106.691406 218.890625 106.792969 C 219.601562 106.828125 220.292969 106.996094 220.984375 107.128906 C 221.664062 107.335938 222.34375 107.5 222.96875 107.777344 C 223.609375 108.011719 224.195312 108.3125 224.753906 108.597656 C 225.304688 108.890625 225.808594 109.214844 226.269531 109.507812 C 226.703125 109.839844 227.140625 110.109375 227.464844 110.410156 C 227.792969 110.707031 228.109375 110.945312 228.324219 111.179688 C 228.765625 111.640625 229.015625 111.90625 229.015625 111.90625 L 229.054688 111.941406 C 229.253906 112.148438 229.585938 112.15625 229.792969 111.960938 C 229.984375 111.769531 230.003906 111.464844 229.832031 111.257812 C 229.832031 111.257812 229.585938 110.949219 229.140625 110.410156 C 228.929688 110.140625 228.617188 109.859375 228.28125 109.507812 C 227.953125 109.152344 227.519531 108.832031 227.074219 108.433594 C 226.605469 108.074219 226.085938 107.683594 225.511719 107.320312 C 224.933594 106.960938 224.320312 106.578125 223.636719 106.265625 C 222.976562 105.910156 222.238281 105.667969 221.5 105.378906 C 220.734375 105.160156 219.964844 104.914062 219.152344 104.804688 C 218.347656 104.628906 217.519531 104.632812 216.707031 104.589844 C 215.890625 104.648438 215.078125 104.65625 214.308594 104.855469 C 213.523438 104.976562 212.804688 105.25 212.121094 105.5 C 211.429688 105.746094 210.851562 106.132812 210.28125 106.414062 C 209.726562 106.753906 209.25 107.148438 208.8125 107.464844 C 208.703125 107.546875 208.597656 107.628906 208.5 107.703125 C 208.417969 107.777344 208.339844 107.851562 208.269531 107.917969 C 208.125 108.058594 207.992188 108.1875 207.871094 108.300781 C 207.390625 108.765625 207.117188 109.027344 207.117188 109.027344 L 207.113281 109.035156 C 206.523438 109.605469 206.503906 110.542969 207.078125 111.132812 C 207.648438 111.722656 208.589844 111.738281 209.179688 111.167969 C 209.207031 111.144531 209.238281 111.113281 209.261719 111.085938"/><g clip-path="url(#o)"><path fill="#FFF" d="M 128.761719 181.953125 C 128.765625 181.945312 128.765625 181.941406 128.765625 181.9375 C 134.234375 163.984375 113.128906 146.605469 113.128906 125.765625 C 116.007812 112.609375 132.242188 129.070312 132.242188 129.070312 L 149 152.101562 C 160.480469 141.152344 174.996094 134.652344 193.027344 134.652344 C 236.421875 134.652344 255.074219 181.777344 259.636719 213.945312 C 262.550781 234.460938 254.28125 259.160156 235.296875 259.160156 C 206.753906 259.160156 206.390625 239.597656 192.195312 239.597656 C 178 239.597656 166.675781 268.292969 134.988281 259.160156 C 122.613281 255.597656 114.308594 235.039062 117.394531 219.164062 C 119.996094 205.777344 123.742188 193.160156 128.761719 181.953125"/></g><g clip-path="url(#p)"><path stroke-linecap="round" transform="matrix(-.087 0 0 -.0868 371.63 345.27)" fill="none" stroke-linejoin="round" d="M 2791.587305 1881.607529 C 2791.542405 1881.697539 2791.542405 1881.742544 2791.542405 1881.787549 C 2728.683202 2088.62988 2971.274826 2288.856496 2971.274826 2528.957418 C 2938.183946 2680.533782 2751.581912 2490.883307 2751.581912 2490.883307 L 2558.963354 2225.53466 C 2427.003927 2351.683279 2260.157643 2426.571364 2052.90187 2426.571364 C 1554.114095 2426.571364 1339.719313 1883.632748 1287.276778 1513.017736 C 1253.781803 1276.652217 1348.833897 992.086495 1567.045131 992.086495 C 1895.125271 992.086495 1899.300918 1217.470828 2062.465449 1217.470828 C 2225.62998 1217.470828 2355.79343 886.865135 2720.017612 992.086495 C 2862.259008 1033.130926 2957.715198 1269.991498 2922.244648 1452.891244 C 2892.341627 1607.122895 2849.283073 1752.488589 2791.587305 1881.607529 Z M 2791.587305 1881.607529" stroke="#311" stroke-width="34.177" stroke-miterlimit="10"/></g><g clip-path="url(#q)"><path fill="#FFC107" d="M 144.949219 153.976562 C 144.949219 167.734375 166.347656 178.886719 192.738281 178.886719 C 219.132812 178.886719 240.523438 167.734375 240.523438 153.976562 C 240.523438 140.222656 219.132812 129.070312 192.738281 129.070312 C 166.347656 129.070312 144.949219 140.222656 144.949219 153.976562"/></g><g clip-path="url(#r)"><path stroke-linecap="round" transform="matrix(-.087 0 0 -.0868 371.63 345.27)" fill="none" stroke-linejoin="round" d="M 2605.524064 2203.932328 C 2605.524064 2045.425215 2359.564982 1916.936343 2056.224428 1916.936343 C 1752.838975 1916.936343 1506.969692 2045.425215 1506.969692 2203.932328 C 1506.969692 2362.394436 1752.838975 2490.883307 2056.224428 2490.883307 C 2359.564982 2490.883307 2605.524064 2362.394436 2605.524064 2203.932328 Z M 2605.524064 2203.932328" stroke="#311" stroke-width="34.177" stroke-miterlimit="10"/></g><g clip-path="url(#s)"><path fill="#FFF" d="M 134.046875 92.644531 C 134.261719 83.285156 135.421875 63.230469 141.414062 60.910156 C 147.015625 58.734375 160.847656 66.324219 168.292969 70.835938 C 176.117188 68.867188 184.695312 67.863281 193.695312 67.863281 C 202.929688 67.863281 211.734375 68.917969 219.726562 70.996094 C 227.105469 66.503906 241.199219 58.710938 246.871094 60.910156 C 253.195312 63.363281 254.136719 85.597656 254.261719 94.121094 C 258.0625 100.421875 260.199219 107.828125 260.199219 116.332031 C 260.199219 148.222656 230.421875 170.035156 193.695312 170.035156 C 156.960938 170.035156 127.183594 148.222656 127.183594 116.332031 C 127.183594 107.152344 129.660156 99.257812 134.046875 92.644531"/></g><g clip-path="url(#t)"><path stroke-linecap="round" transform="matrix(-.087 0 0 -.0868 371.63 345.27)" fill="none" stroke-linejoin="round" d="M 2730.838375 2910.553616 C 2728.368906 3018.385257 2715.033775 3249.440202 2646.158048 3276.173088 C 2581.772265 3301.240795 2422.783381 3213.796354 2337.205066 3161.815742 C 2247.271506 3184.498191 2148.672356 3196.06444 2045.224068 3196.06444 C 1939.081814 3196.06444 1837.878497 3183.913128 1746.014262 3159.970543 C 1661.199237 3211.726131 1499.202091 3301.510824 1434.008117 3276.173088 C 1361.315939 3247.910037 1350.495176 2991.742381 1349.058395 2893.541779 C 1305.371249 2820.948942 1280.81126 2735.61973 1280.81126 2637.644152 C 1280.81126 2270.224485 1623.07962 2018.917353 2045.224068 2018.917353 C 2467.458314 2018.917353 2809.726675 2270.224485 2809.726675 2637.644152 C 2809.726675 2743.40557 2781.260435 2834.36039 2730.838375 2910.553616 Z M 2730.838375 2910.553616" stroke="#311" stroke-width="34.177" stroke-miterlimit="10"/></g><g clip-path="url(#u)"><path fill="#FFC107" d="M 180.308594 189.378906 C 180.308594 196.226562 185.871094 201.78125 192.738281 201.78125 C 199.605469 201.78125 205.171875 196.226562 205.171875 189.378906 C 205.171875 182.527344 199.605469 176.976562 192.738281 176.976562 C 185.871094 176.976562 180.308594 182.527344 180.308594 189.378906"/></g><g clip-path="url(#v)"><path stroke-linecap="round" transform="matrix(-.087 0 0 -.0868 371.63 345.27)" fill="none" stroke-linejoin="round" d="M 2199.094417 1796.053293 C 2199.094417 1717.159775 2135.157628 1653.162866 2056.224428 1653.162866 C 1977.291229 1653.162866 1913.30954 1717.159775 1913.30954 1796.053293 C 1913.30954 1874.991815 1977.291229 1938.943719 2056.224428 1938.943719 C 2135.157628 1938.943719 2199.094417 1874.991815 2199.094417 1796.053293 Z M 2199.094417 1796.053293" stroke="#311" stroke-width="34.177" stroke-miterlimit="10"/></g><path stroke-linecap="round" transform="matrix(-.087 0 0 -.0868 371.63 345.27)" fill="#FFF" stroke-linejoin="round" d="M 1500.459275 1700.687997 L 1672.873089 1192.85317 C 1672.873089 1192.85317 1577.3271 1089.792044 1611.944561 1017.199206 C 1639.243415 960.043036 1727.156501 965.713648 1827.596527 984.345659 C 1954.392519 1007.883201 1979.536201 1108.37905 1944.020751 1180.566844 C 1923.726208 1221.791294 1900.6928 1561.487969 1900.6928 1561.487969" stroke="#311" stroke-width="34.177" stroke-miterlimit="10"/><path stroke-linecap="round" transform="matrix(-.087 0 0 -.0868 371.63 345.27)" fill="#FFF" stroke-linejoin="round" d="M 1679.787601 976.964863 C 1640.051605 1072.195144 1679.383506 1126.06596 1711.351901 1148.073336" stroke="#311" stroke-width="34.177" stroke-miterlimit="10"/><path stroke-linecap="round" transform="matrix(-.087 0 0 -.0868 371.63 345.27)" fill="#FFF" stroke-linejoin="round" d="M 1771.068144 976.964863 C 1743.275396 1044.65217 1779.733734 1103.968574 1811.702129 1125.930945" stroke="#311" stroke-width="34.177" stroke-miterlimit="10"/><g clip-path="url(#w)"><path fill="#FFF" d="M 256.585938 181.953125 C 256.582031 181.945312 256.582031 181.941406 256.578125 181.9375 C 251.109375 163.984375 272.21875 146.605469 272.21875 125.765625 C 269.339844 112.609375 253.101562 129.070312 253.101562 129.070312 L 236.34375 152.101562 C 224.863281 141.152344 210.347656 134.652344 192.316406 134.652344 C 148.921875 134.652344 130.269531 181.777344 125.707031 213.945312 C 122.792969 234.460938 131.0625 259.160156 150.046875 259.160156 C 178.589844 259.160156 178.953125 239.597656 193.148438 239.597656 C 207.34375 239.597656 218.667969 268.292969 250.359375 259.160156 C 262.730469 255.597656 271.035156 235.039062 267.949219 219.164062 C 265.347656 205.777344 261.605469 193.160156 256.585938 181.953125"/></g><g clip-path="url(#x)"><path stroke-linecap="round" transform="matrix(.087 0 0 -.0868 13.715 345.27)" fill="none" stroke-linejoin="round" d="M 2791.621333 1881.607529 C 2791.576434 1881.697539 2791.576434 1881.742544 2791.531534 1881.787549 C 2728.672331 2088.62988 2971.308855 2288.856496 2971.308855 2528.957418 C 2938.217974 2680.533782 2751.571041 2490.883307 2751.571041 2490.883307 L 2558.952483 2225.53466 C 2426.993056 2351.683279 2260.146772 2426.571364 2052.890999 2426.571364 C 1554.103224 2426.571364 1339.708442 1883.632748 1287.265907 1513.017736 C 1253.770932 1276.652217 1348.823026 992.086495 1567.03426 992.086495 C 1895.1144 992.086495 1899.290047 1217.470828 2062.454578 1217.470828 C 2225.619109 1217.470828 2355.782559 886.865135 2720.05164 992.086495 C 2862.248137 1033.130926 2957.704327 1269.991498 2922.233777 1452.891244 C 2892.330756 1607.122895 2849.317101 1752.488589 2791.621333 1881.607529 Z M 2791.621333 1881.607529" stroke="#311" stroke-width="34.177" stroke-miterlimit="10"/></g><g clip-path="url(#y)"><path fill="#FFC107" d="M 240.394531 153.976562 C 240.394531 167.734375 218.996094 178.886719 192.605469 178.886719 C 166.214844 178.886719 144.820312 167.734375 144.820312 153.976562 C 144.820312 140.222656 166.214844 129.070312 192.605469 129.070312 C 218.996094 129.070312 240.394531 140.222656 240.394531 153.976562"/></g><g clip-path="url(#z)"><path stroke-linecap="round" transform="matrix(.087 0 0 -.0868 13.715 345.27)" fill="none" stroke-linejoin="round" d="M 2605.513193 2203.932328 C 2605.513193 2045.425215 2359.554111 1916.936343 2056.213557 1916.936343 C 1752.873003 1916.936343 1506.958821 2045.425215 1506.958821 2203.932328 C 1506.958821 2362.394436 1752.873003 2490.883307 2056.213557 2490.883307 C 2359.554111 2490.883307 2605.513193 2362.394436 2605.513193 2203.932328 Z M 2605.513193 2203.932328" stroke="#311" stroke-width="34.177" stroke-miterlimit="10"/></g><g clip-path="url(#A)"><path fill="#FFF" d="M 251.300781 92.644531 C 251.082031 83.285156 249.921875 63.230469 243.933594 60.910156 C 238.328125 58.734375 224.496094 66.324219 217.054688 70.835938 C 209.226562 68.867188 200.648438 67.863281 191.648438 67.863281 C 182.414062 67.863281 173.613281 68.917969 165.617188 70.996094 C 158.242188 66.503906 144.148438 58.710938 138.476562 60.910156 C 132.152344 63.363281 131.210938 85.597656 131.082031 94.121094 C 127.28125 100.421875 125.144531 107.828125 125.144531 116.332031 C 125.144531 148.222656 154.921875 170.035156 191.648438 170.035156 C 228.382812 170.035156 258.160156 148.222656 258.160156 116.332031 C 258.160156 107.152344 255.683594 99.257812 251.300781 92.644531"/></g><g clip-path="url(#B)"><path stroke-linecap="round" transform="matrix(.087 0 0 -.0868 13.715 345.27)" fill="none" stroke-linejoin="round" d="M 2730.872403 2910.553616 C 2728.358035 3018.385257 2715.022904 3249.440202 2646.192077 3276.173088 C 2581.761394 3301.240795 2422.77251 3213.796354 2337.239094 3161.815742 C 2247.260635 3184.498191 2148.661485 3196.06444 2045.213197 3196.06444 C 1939.070943 3196.06444 1837.912525 3183.913128 1746.003391 3159.970543 C 1661.233265 3211.726131 1499.236119 3301.510824 1434.042146 3276.173088 C 1361.349968 3247.910037 1350.529205 2991.742381 1349.047524 2893.541779 C 1305.360378 2820.948942 1280.800389 2735.61973 1280.800389 2637.644152 C 1280.800389 2270.224485 1623.068749 2018.917353 2045.213197 2018.917353 C 2467.447443 2018.917353 2809.715804 2270.224485 2809.715804 2637.644152 C 2809.715804 2743.40557 2781.249564 2834.36039 2730.872403 2910.553616 Z M 2730.872403 2910.553616" stroke="#311" stroke-width="34.177" stroke-miterlimit="10"/></g><path fill="#311" d="M 138.777344 89.882812 C 138.777344 89.882812 138.78125 69.816406 143.507812 68.054688 C 148.230469 66.285156 162.46875 76.121094 162.46875 76.121094 C 162.46875 76.121094 155.097656 78.515625 148.882812 82.320312 C 142.675781 86.128906 138.777344 89.882812 138.777344 89.882812"/><g clip-path="url(#C)"><path fill="#311" d="M 201.089844 120.269531 C 201.089844 124.207031 192.605469 127.160156 192.605469 127.160156 C 192.605469 127.160156 184.121094 125.242188 184.121094 120.269531 C 184.121094 118.585938 187.917969 117.226562 192.605469 117.226562 C 197.292969 117.226562 201.089844 118.585938 201.089844 120.269531"/></g><path stroke-linecap="round" transform="matrix(.087 0 0 -.0868 13.715 345.27)" fill="none" stroke-linejoin="round" d="M 2056.213557 2555.150246 C 2056.213557 2555.150246 2048.490855 2490.07322 2032.596457 2460.280003 C 2001.795447 2402.673784 1934.356502 2426.976408 1921.694863 2472.836359" stroke="#311" stroke-width="34.177" stroke-miterlimit="10"/><g clip-path="url(#D)"><path stroke-linecap="round" transform="matrix(.087 0 0 -.0868 13.715 345.27)" fill="none" stroke-linejoin="round" d="M 2056.213557 2555.150246 C 2056.213557 2555.150246 2063.981159 2490.07322 2079.875557 2460.280003 C 2110.631667 2402.673784 2178.070612 2426.976408 2190.777151 2472.836359" stroke="#311" stroke-width="34.177" stroke-miterlimit="10"/></g><path fill="#311" d="M 176.074219 111.085938 C 176.074219 111.085938 175.820312 110.796875 175.378906 110.296875 C 175.269531 110.175781 175.148438 110.039062 175.015625 109.886719 C 174.945312 109.8125 174.878906 109.734375 174.808594 109.65625 C 174.738281 109.601562 174.667969 109.539062 174.59375 109.476562 C 174.289062 109.242188 173.984375 108.933594 173.585938 108.640625 C 173.152344 108.394531 172.722656 108.035156 172.191406 107.804688 C 171.660156 107.566406 171.109375 107.289062 170.480469 107.148438 C 169.875 106.933594 169.207031 106.882812 168.535156 106.773438 C 167.851562 106.761719 167.152344 106.691406 166.449219 106.792969 C 165.738281 106.828125 165.042969 106.996094 164.351562 107.128906 C 163.675781 107.335938 162.992188 107.5 162.371094 107.777344 C 161.726562 108.011719 161.140625 108.3125 160.582031 108.597656 C 160.03125 108.890625 159.527344 109.214844 159.066406 109.507812 C 158.632812 109.839844 158.195312 110.109375 157.875 110.410156 C 157.542969 110.707031 157.226562 110.945312 157.011719 111.179688 C 156.570312 111.640625 156.320312 111.90625 156.320312 111.90625 L 156.28125 111.941406 C 156.082031 112.148438 155.753906 112.15625 155.546875 111.960938 C 155.351562 111.769531 155.335938 111.464844 155.503906 111.257812 C 155.503906 111.257812 155.753906 110.949219 156.195312 110.410156 C 156.410156 110.140625 156.722656 109.859375 157.054688 109.507812 C 157.382812 109.152344 157.820312 108.832031 158.265625 108.433594 C 158.734375 108.074219 159.25 107.683594 159.824219 107.320312 C 160.402344 106.960938 161.015625 106.578125 161.699219 106.265625 C 162.359375 105.910156 163.101562 105.667969 163.835938 105.378906 C 164.601562 105.160156 165.375 104.914062 166.1875 104.804688 C 166.988281 104.628906 167.816406 104.632812 168.628906 104.589844 C 169.445312 104.648438 170.261719 104.65625 171.027344 104.855469 C 171.8125 104.976562 172.53125 105.25 173.21875 105.5 C 173.90625 105.746094 174.484375 106.132812 175.054688 106.414062 C 175.609375 106.753906 176.089844 107.148438 176.523438 107.464844 C 176.632812 107.546875 176.738281 107.628906 176.835938 107.703125 C 176.917969 107.777344 176.996094 107.851562 177.066406 107.917969 C 177.214844 108.058594 177.347656 108.1875 177.464844 108.300781 C 177.945312 108.765625 178.21875 109.027344 178.21875 109.027344 L 178.222656 109.035156 C 178.8125 109.605469 178.832031 110.542969 178.261719 111.132812 C 177.691406 111.722656 176.75 111.738281 176.15625 111.167969 C 176.128906 111.144531 176.097656 111.113281 176.074219 111.085938"/><g clip-path="url(#E)"><path fill="#FFC107" d="M 205.035156 189.378906 C 205.035156 196.226562 199.472656 201.78125 192.605469 201.78125 C 185.742188 201.78125 180.171875 196.226562 180.171875 189.378906 C 180.171875 182.527344 185.742188 176.976562 192.605469 176.976562 C 199.472656 176.976562 205.035156 182.527344 205.035156 189.378906"/></g><g clip-path="url(#F)"><path stroke-linecap="round" transform="matrix(.087 0 0 -.0868 13.715 345.27)" fill="none" stroke-linejoin="round" d="M 2199.083546 1796.053293 C 2199.083546 1717.159775 2135.146757 1653.162866 2056.213557 1653.162866 C 1977.325258 1653.162866 1913.298669 1717.159775 1913.298669 1796.053293 C 1913.298669 1874.991815 1977.325258 1938.943719 2056.213557 1938.943719 C 2135.146757 1938.943719 2199.083546 1874.991815 2199.083546 1796.053293 Z M 2199.083546 1796.053293" stroke="#311" stroke-width="34.177" stroke-miterlimit="10"/></g><path stroke-linecap="round" transform="matrix(.087 0 0 -.0868 13.715 345.27)" fill="#FFF" stroke-linejoin="round" d="M 1500.448404 1700.687997 L 1672.907117 1192.85317 C 1672.907117 1192.85317 1577.316229 1089.792044 1611.93369 1017.199206 C 1639.277444 960.043036 1727.14563 965.713648 1827.585656 984.345659 C 1954.381648 1007.883201 1979.52533 1108.37905 1944.00988 1180.566844 C 1923.715337 1221.791294 1900.681929 1561.487969 1900.681929 1561.487969" stroke="#311" stroke-width="34.177" stroke-miterlimit="10"/><path stroke-linecap="round" transform="matrix(.087 0 0 -.0868 13.715 345.27)" fill="#FFF" stroke-linejoin="round" d="M 1679.77673 976.964863 C 1640.040734 1072.195144 1679.372635 1126.06596 1711.385929 1148.073336" stroke="#311" stroke-width="34.177" stroke-miterlimit="10"/><path stroke-linecap="round" transform="matrix(.087 0 0 -.0868 13.715 345.27)" fill="#FFF" stroke-linejoin="round" d="M 1771.057273 976.964863 C 1743.264525 1044.65217 1779.722863 1103.968574 1811.736157 1125.930945" stroke="#311" stroke-width="34.177" stroke-miterlimit="10"/><g clip-path="url(#G)"><path fill="#FFF" d="M 128.753906 181.953125 C 128.757812 181.945312 128.757812 181.941406 128.761719 181.9375 C 134.230469 163.984375 113.121094 146.605469 113.121094 125.765625 C 116 112.609375 132.238281 129.070312 132.238281 129.070312 L 148.996094 152.101562 C 160.476562 141.152344 174.992188 134.652344 193.023438 134.652344 C 236.417969 134.652344 255.066406 181.777344 259.632812 213.945312 C 262.542969 234.460938 254.277344 259.160156 235.292969 259.160156 C 206.75 259.160156 206.386719 239.597656 192.191406 239.597656 C 177.996094 239.597656 166.671875 268.292969 134.980469 259.160156 C 122.605469 255.597656 114.304688 235.039062 117.390625 219.164062 C 119.988281 205.777344 123.734375 193.160156 128.753906 181.953125"/></g><g clip-path="url(#H)"><path stroke-linecap="round" transform="matrix(-.087 0 0 -.0868 371.624 345.27)" fill="none" stroke-linejoin="round" d="M 2791.611779 1881.607529 C 2791.56688 1881.697539 2791.56688 1881.742544 2791.52198 1881.787549 C 2728.662777 2088.62988 2971.299301 2288.856496 2971.299301 2528.957418 C 2938.208421 2680.533782 2751.561487 2490.883307 2751.561487 2490.883307 L 2558.942929 2225.53466 C 2426.983502 2351.683279 2260.137218 2426.571364 2052.881446 2426.571364 C 1554.09367 2426.571364 1339.743788 1883.632748 1287.256353 1513.017736 C 1253.806277 1276.652217 1348.813473 992.086495 1567.024706 992.086495 C 1895.104846 992.086495 1899.280493 1217.470828 2062.445024 1217.470828 C 2225.609556 1217.470828 2355.773005 886.865135 2720.042087 992.086495 C 2862.283483 1033.130926 2957.694773 1269.991498 2922.224223 1452.891244 C 2892.366102 1607.122895 2849.307548 1752.488589 2791.611779 1881.607529 Z M 2791.611779 1881.607529" stroke="#311" stroke-width="34.177" stroke-miterlimit="10"/></g><g clip-path="url(#I)"><path fill="#FFC107" d="M 144.945312 153.976562 C 144.945312 167.734375 166.339844 178.886719 192.734375 178.886719 C 219.125 178.886719 240.519531 167.734375 240.519531 153.976562 C 240.519531 140.222656 219.125 129.070312 192.734375 129.070312 C 166.339844 129.070312 144.945312 140.222656 144.945312 153.976562"/></g><g clip-path="url(#J)"><path stroke-linecap="round" transform="matrix(-.087 0 0 -.0868 371.624 345.27)" fill="none" stroke-linejoin="round" d="M 2605.503639 2203.932328 C 2605.503639 2045.425215 2359.589457 1916.936343 2056.204004 1916.936343 C 1752.86345 1916.936343 1506.949268 2045.425215 1506.949268 2203.932328 C 1506.949268 2362.394436 1752.86345 2490.883307 2056.204004 2490.883307 C 2359.589457 2490.883307 2605.503639 2362.394436 2605.503639 2203.932328 Z M 2605.503639 2203.932328" stroke="#311" stroke-width="34.177" stroke-miterlimit="10"/></g><g clip-path="url(#K)"><path fill="#FFF" d="M 134.039062 92.644531 C 134.257812 83.285156 135.414062 63.230469 141.40625 60.910156 C 147.011719 58.734375 160.84375 66.324219 168.285156 70.835938 C 176.113281 68.867188 184.691406 67.863281 193.6875 67.863281 C 202.925781 67.863281 211.726562 68.917969 219.722656 70.996094 C 227.097656 66.503906 241.191406 58.710938 246.863281 60.910156 C 253.1875 63.363281 254.128906 85.597656 254.253906 94.121094 C 258.058594 100.421875 260.191406 107.828125 260.191406 116.332031 C 260.191406 148.222656 230.414062 170.035156 193.6875 170.035156 C 156.953125 170.035156 127.179688 148.222656 127.179688 116.332031 C 127.179688 107.152344 129.65625 99.257812 134.039062 92.644531"/></g><g clip-path="url(#L)"><path stroke-linecap="round" transform="matrix(-.087 0 0 -.0868 371.624 345.27)" fill="none" stroke-linejoin="round" d="M 2730.862849 2910.553616 C 2728.348481 3018.385257 2715.05825 3249.440202 2646.182523 3276.173088 C 2581.75184 3301.240795 2422.762956 3213.796354 2337.22954 3161.815742 C 2247.251081 3184.498191 2148.651931 3196.06444 2045.248543 3196.06444 C 1939.061389 3196.06444 1837.902971 3183.913128 1745.993837 3159.970543 C 1661.223712 3211.726131 1499.226566 3301.510824 1434.032592 3276.173088 C 1361.340414 3247.910037 1350.519651 2991.742381 1349.082869 2893.541779 C 1305.350824 2820.948942 1280.835735 2735.61973 1280.835735 2637.644152 C 1280.835735 2270.224485 1623.104095 2018.917353 2045.248543 2018.917353 C 2467.482789 2018.917353 2809.70625 2270.224485 2809.70625 2637.644152 C 2809.70625 2743.40557 2781.240011 2834.36039 2730.862849 2910.553616 Z M 2730.862849 2910.553616" stroke="#311" stroke-width="34.177" stroke-miterlimit="10"/></g><path fill="#311" d="M 246.5625 89.882812 C 246.5625 89.882812 246.558594 69.816406 241.832031 68.054688 C 237.105469 66.285156 222.871094 76.121094 222.871094 76.121094 C 222.871094 76.121094 230.242188 78.515625 236.453125 82.320312 C 242.664062 86.128906 246.5625 89.882812 246.5625 89.882812"/><g clip-path="url(#M)"><path fill="#311" d="M 184.246094 120.269531 C 184.246094 124.207031 192.734375 127.160156 192.734375 127.160156 C 192.734375 127.160156 201.214844 125.242188 201.214844 120.269531 C 201.214844 118.585938 197.421875 117.226562 192.734375 117.226562 C 188.046875 117.226562 184.246094 118.585938 184.246094 120.269531"/></g><path stroke-linecap="round" transform="matrix(-.087 0 0 -.0868 371.624 345.27)" fill="none" stroke-linejoin="round" d="M 2056.204004 2555.150246 C 2056.204004 2555.150246 2048.481302 2490.07322 2032.586903 2460.280003 C 2001.785894 2402.673784 1934.391848 2426.976408 1921.685309 2472.836359" stroke="#311" stroke-width="34.177" stroke-miterlimit="10"/><g clip-path="url(#N)"><path stroke-linecap="round" transform="matrix(-.087 0 0 -.0868 371.624 345.27)" fill="none" stroke-linejoin="round" d="M 2056.204004 2555.150246 C 2056.204004 2555.150246 2063.971605 2490.07322 2079.866004 2460.280003 C 2110.622114 2402.673784 2178.105958 2426.976408 2190.767597 2472.836359" stroke="#311" stroke-width="34.177" stroke-miterlimit="10"/></g><path fill="#311" d="M 209.265625 111.085938 C 209.265625 111.085938 209.519531 110.796875 209.960938 110.296875 C 210.070312 110.175781 210.191406 110.039062 210.324219 109.886719 C 210.390625 109.8125 210.460938 109.734375 210.53125 109.65625 C 210.597656 109.601562 210.671875 109.539062 210.746094 109.476562 C 211.050781 109.242188 211.355469 108.933594 211.75 108.640625 C 212.1875 108.394531 212.617188 108.035156 213.148438 107.804688 C 213.679688 107.566406 214.230469 107.289062 214.859375 107.148438 C 215.460938 106.933594 216.132812 106.882812 216.804688 106.773438 C 217.488281 106.761719 218.1875 106.691406 218.890625 106.792969 C 219.601562 106.828125 220.296875 106.996094 220.988281 107.128906 C 221.664062 107.335938 222.347656 107.5 222.96875 107.777344 C 223.613281 108.011719 224.195312 108.3125 224.757812 108.597656 C 225.308594 108.890625 225.8125 109.214844 226.273438 109.507812 C 226.703125 109.839844 227.144531 110.109375 227.464844 110.410156 C 227.796875 110.707031 228.113281 110.945312 228.324219 111.179688 C 228.765625 111.640625 229.019531 111.90625 229.019531 111.90625 L 229.054688 111.941406 C 229.257812 112.148438 229.585938 112.15625 229.792969 111.960938 C 229.988281 111.769531 230.003906 111.464844 229.835938 111.257812 C 229.835938 111.257812 229.585938 110.949219 229.144531 110.410156 C 228.929688 110.140625 228.617188 109.859375 228.285156 109.507812 C 227.957031 109.152344 227.519531 108.832031 227.074219 108.433594 C 226.605469 108.074219 226.089844 107.683594 225.515625 107.320312 C 224.9375 106.960938 224.320312 106.578125 223.640625 106.265625 C 222.980469 105.910156 222.238281 105.667969 221.5 105.378906 C 220.738281 105.160156 219.964844 104.914062 219.152344 104.804688 C 218.351562 104.628906 217.523438 104.632812 216.710938 104.589844 C 215.894531 104.648438 215.078125 104.65625 214.308594 104.855469 C 213.527344 104.976562 212.808594 105.25 212.121094 105.5 C 211.433594 105.746094 210.855469 106.132812 210.285156 106.414062 C 209.730469 106.753906 209.25 107.148438 208.816406 107.464844 C 208.707031 107.546875 208.601562 107.628906 208.503906 107.703125 C 208.421875 107.777344 208.34375 107.851562 208.269531 107.917969 C 208.125 108.058594 207.992188 108.1875 207.875 108.300781 C 207.394531 108.765625 207.121094 109.027344 207.121094 109.027344 L 207.117188 109.035156 C 206.523438 109.605469 206.507812 110.542969 207.078125 111.132812 C 207.648438 111.722656 208.589844 111.738281 209.183594 111.167969 C 209.210938 111.144531 209.238281 111.113281 209.265625 111.085938"/><g clip-path="url(#O)"><path fill="#FFC107" d="M 180.300781 189.378906 C 180.300781 196.226562 185.867188 201.78125 192.734375 201.78125 C 199.597656 201.78125 205.164062 196.226562 205.164062 189.378906 C 205.164062 182.527344 199.597656 176.976562 192.734375 176.976562 C 185.867188 176.976562 180.300781 182.527344 180.300781 189.378906"/></g><g clip-path="url(#P)"><path stroke-linecap="round" transform="matrix(-.087 0 0 -.0868 371.624 345.27)" fill="none" stroke-linejoin="round" d="M 2199.118892 1796.053293 C 2199.118892 1717.159775 2135.137203 1653.162866 2056.204004 1653.162866 C 1977.315704 1653.162866 1913.334015 1717.159775 1913.334015 1796.053293 C 1913.334015 1874.991815 1977.315704 1938.943719 2056.204004 1938.943719 C 2135.137203 1938.943719 2199.118892 1874.991815 2199.118892 1796.053293 Z M 2199.118892 1796.053293" stroke="#311" stroke-width="34.177" stroke-miterlimit="10"/></g><path stroke-linecap="round" transform="matrix(-.087 0 0 -.0868 371.624 345.27)" fill="#FFF" stroke-linejoin="round" d="M 1500.48375 1700.687997 L 1672.897564 1192.85317 C 1672.897564 1192.85317 1577.306676 1089.792044 1611.969036 1017.199206 C 1639.26789 960.043036 1727.136076 965.713648 1827.576102 984.345659 C 1954.372095 1007.883201 1979.515776 1108.37905 1944.045226 1180.566844 C 1923.705784 1221.791294 1900.717275 1561.487969 1900.717275 1561.487969" stroke="#311" stroke-width="34.177" stroke-miterlimit="10"/><path stroke-linecap="round" transform="matrix(-.087 0 0 -.0868 371.624 345.27)" fill="#FFF" stroke-linejoin="round" d="M 1679.767177 976.964863 C 1640.03118 1072.195144 1679.363082 1126.06596 1711.376376 1148.073336" stroke="#311" stroke-width="34.177" stroke-miterlimit="10"/><path stroke-linecap="round" transform="matrix(-.087 0 0 -.0868 371.624 345.27)" fill="#FFF" stroke-linejoin="round" d="M 1771.047719 976.964863 C 1743.299871 1044.65217 1779.713309 1103.968574 1811.726603 1125.930945" stroke="#311" stroke-width="34.177" stroke-miterlimit="10"/><path stroke-linecap="round" transform="matrix(3.40648 1.79897 -1.75119 3.316 186.437 122.351)" fill="none" d="M 0.499971 -0.000175548 L 1.447054 -0.000371657" stroke="#311"/><path stroke-linecap="round" transform="matrix(1.35795 .19177 -.20975 1.48526 185.052 134.145)" fill="none" d="M 0.499536 0.00117794 L 1.693071 -0.000387095" stroke="#311"/><path stroke-linecap="round" transform="matrix(1.35593 -.20559 .22486 1.48305 185.007 135.096)" fill="none" d="M 0.498904 -0.00113359 L 1.691251 0.000852343" stroke="#311"/><path stroke-linecap="round" transform="matrix(0 4.49665 -4.5 0 187.204 136.91)" fill="none" d="M 0.499571 0.000235024 L 6.506642 0.000235024" stroke="#FEFEFE"/><path stroke-linecap="round" transform="matrix(.3295 4.4391 -4.48765 .3331 186 125.214)" fill="none" d="M 0.499963 0.000178658 L 1.186342 0.0000900244" stroke="#FEFEFE"/><path stroke-linecap="round" transform="matrix(3.40648 1.79897 -1.75119 3.316 185.58 118.988)" fill="none" d="M 0.500149 -0.000339983 L 1.447231 -0.000536092" stroke="#311"/><path d="M 190.878906 189.058594 L 192.558594 187.390625"/><path d="M 192.558594 191.515625 L 190.878906 189.847656"/><path d="M 192.558594 184.605469 C 192.765625 184.390625 193.140625 184.390625 193.351562 184.605469 C 193.351562 184.605469 196.316406 187.550781 196.316406 187.550781 L 197.203125 186.667969 L 192.953125 182.445312 L 188.703125 186.667969 L 189.59375 187.550781 Z M 192.558594 184.605469"/><path d="M 185.902344 189.453125 L 186.789062 188.570312 L 187.679688 189.453125 L 186.789062 190.335938 Z M 185.902344 189.453125"/><path d="M 192.066406 189.453125 L 192.953125 188.570312 L 193.84375 189.453125 L 192.953125 190.335938 Z M 192.066406 189.453125"/><path d="M 193.351562 194.300781 C 193.140625 194.507812 192.769531 194.507812 192.558594 194.300781 L 189.59375 191.351562 L 188.703125 192.234375 L 192.953125 196.457031 L 197.203125 192.234375 L 196.316406 191.351562 Z M 193.351562 194.300781"/><path d="M 198.230469 189.453125 L 199.117188 188.570312 L 200.007812 189.453125 L 199.117188 190.335938 Z M 198.230469 189.453125"/><g clip-path="url(#Q)"><path d="M 192.953125 201.699219 C 199.75 201.699219 205.28125 196.207031 205.28125 189.453125 C 204.605469 173.207031 181.300781 173.210938 180.628906 189.453125 C 180.628906 196.207031 186.15625 201.699219 192.953125 201.699219 Z M 198.394531 192.628906 L 193.351562 197.640625 C 193.074219 197.910156 192.710938 197.800781 192.558594 197.640625 L 187.515625 192.628906 C 187.296875 192.414062 187.296875 192.058594 187.515625 191.84375 L 189.195312 190.171875 C 189.40625 189.957031 189.78125 189.957031 189.988281 190.171875 C 189.988281 190.171875 192.953125 193.117188 192.953125 193.117188 L 195.921875 190.171875 C 196.128906 189.964844 196.503906 189.964844 196.710938 190.171875 L 198.394531 191.84375 C 198.613281 192.058594 198.613281 192.414062 198.394531 192.628906 Z M 192.558594 187.390625 C 192.777344 187.171875 193.132812 187.171875 193.351562 187.390625 L 195.03125 189.058594 C 195.25 189.265625 195.25 189.640625 195.03125 189.847656 C 195.03125 189.847656 193.351562 191.515625 193.351562 191.515625 C 193.132812 191.734375 192.777344 191.734375 192.558594 191.515625 L 190.878906 189.847656 C 190.773438 189.742188 190.578125 189.386719 190.878906 189.058594 M 199.515625 187.390625 C 201.972656 189.917969 201.96875 188.992188 199.515625 191.515625 C 199.296875 191.734375 198.941406 191.734375 198.722656 191.515625 L 197.039062 189.847656 C 196.824219 189.640625 196.824219 189.265625 197.039062 189.058594 C 197.039062 189.058594 198.722656 187.390625 198.722656 187.390625 C 198.941406 187.171875 199.296875 187.171875 199.515625 187.390625 Z M 187.515625 186.277344 L 192.558594 181.265625 C 192.777344 181.050781 193.132812 181.050781 193.351562 181.265625 L 198.394531 186.277344 C 198.613281 186.492188 198.613281 186.847656 198.394531 187.0625 L 196.710938 188.734375 C 196.503906 188.949219 196.128906 188.949219 195.921875 188.734375 C 195.921875 188.734375 192.953125 185.785156 192.953125 185.785156 L 189.988281 188.734375 C 189.777344 188.941406 189.40625 188.941406 189.195312 188.734375 L 187.515625 187.0625 C 187.296875 186.847656 187.296875 186.492188 187.515625 186.277344 Z M 184.714844 189.058594 C 187.257812 186.617188 186.324219 186.621094 188.867188 189.058594 C 189.085938 189.265625 189.085938 189.640625 188.867188 189.847656 C 188.867188 189.847656 187.1875 191.515625 187.1875 191.515625 C 186.96875 191.734375 186.613281 191.734375 186.394531 191.515625 L 184.714844 189.847656 C 184.496094 189.640625 184.496094 189.265625 184.714844 189.058594 Z M 184.714844 189.058594"/></g><g clip-path="url(#R)"><g clip-path="url(#S)"><g clip-path="url(#T)"><g clip-path="url(#U)"><path d="M 223.214844 214.601562 C 225.628906 214.222656 227.761719 213.675781 229.621094 212.960938 C 230.054688 212.816406 230.324219 212.601562 230.425781 212.308594 C 230.671875 211.476562 230.902344 210.703125 231.121094 209.984375 C 231.226562 209.679688 231.238281 209.511719 231.164062 209.488281 C 231.085938 209.445312 230.902344 209.558594 230.617188 209.828125 C 229.265625 211.25 228.351562 212.078125 227.871094 212.304688 C 226.5 213.03125 224.875 213.652344 222.996094 214.167969 C 222.851562 214.226562 222.734375 214.257812 222.640625 214.261719 C 222.484375 214.199219 222.34375 214.121094 222.214844 214.027344 C 222.398438 212.824219 222.765625 211.40625 223.316406 209.78125 C 223.390625 209.492188 223.351562 209.328125 223.191406 209.296875 C 223.078125 209.273438 222.953125 209.304688 222.820312 209.390625 C 222.25 209.820312 221.945312 210.242188 221.90625 210.660156 C 221.84375 211.511719 221.730469 212.527344 221.566406 213.699219 L 219.613281 212.796875 C 219.113281 212.539062 218.703125 212.289062 218.382812 212.042969 C 218.28125 211.9375 218.164062 211.917969 218.03125 211.988281 C 217.78125 212.125 217.5 212.359375 217.1875 212.683594 C 216.980469 212.875 216.882812 213.070312 216.894531 213.269531 C 216.902344 213.523438 217.03125 213.597656 217.277344 213.5 C 217.730469 213.304688 218.125 213.273438 218.46875 213.398438 C 219.585938 213.808594 220.570312 214.226562 221.421875 214.652344 L 220.925781 217.789062 C 220.894531 217.957031 220.957031 218.027344 221.113281 218 C 221.289062 217.96875 221.457031 217.847656 221.617188 217.636719 L 221.671875 217.5625 C 221.78125 217.355469 221.84375 217.09375 221.859375 216.78125 C 221.898438 216.097656 221.960938 215.496094 222.050781 214.96875 L 223.179688 215.628906 C 224.5625 216.496094 225.585938 217.660156 226.253906 219.121094 C 226.3125 219.25 226.371094 219.378906 226.425781 219.515625 C 226.585938 219.996094 226.757812 220.582031 226.945312 221.277344 C 226.996094 221.664062 227.089844 221.71875 227.226562 221.441406 C 227.289062 221.300781 227.289062 220.898438 227.222656 220.234375 C 227.179688 219.726562 227.035156 219.136719 226.789062 218.464844 C 226.601562 217.964844 226.390625 217.527344 226.152344 217.160156 C 226.148438 217.164062 226.152344 217.164062 226.164062 217.164062 L 228.109375 216.425781 C 228.398438 216.328125 228.519531 216.175781 228.46875 215.976562 C 228.453125 215.921875 228.425781 215.867188 228.378906 215.816406 C 228.269531 215.71875 228.054688 215.640625 227.738281 215.585938 C 227.425781 215.535156 227.023438 215.757812 226.527344 216.257812 C 226.21875 216.558594 226.039062 216.785156 225.988281 216.925781 C 225.28125 216.132812 224.355469 215.359375 223.214844 214.601562 Z M 223.214844 214.601562"/></g></g></g></g><g clip-path="url(#V)"><g clip-path="url(#W)"><g clip-path="url(#X)"><g clip-path="url(#Y)"><path d="M 221.980469 200.140625 C 223.21875 199.550781 223.671875 199.082031 223.34375 198.742188 C 223.167969 198.570312 222.921875 198.511719 222.609375 198.5625 C 222.425781 198.589844 222.265625 198.65625 222.125 198.765625 C 221.695312 199.136719 221.410156 199.539062 221.265625 199.960938 C 221.238281 200.042969 221.234375 200.113281 221.25 200.167969 C 221.230469 200.238281 221.300781 200.28125 221.460938 200.292969 C 221.589844 200.324219 221.761719 200.273438 221.980469 200.140625 Z M 221.980469 200.140625"/></g></g></g></g><g clip-path="url(#Z)"><g clip-path="url(#aa)"><g clip-path="url(#ab)"><g clip-path="url(#ac)"><path d="M 223.894531 203.890625 C 224.097656 203.707031 224.21875 203.425781 224.265625 203.050781 C 224.277344 201.777344 224.539062 199.964844 225.042969 197.605469 C 225.148438 197.117188 225.246094 196.789062 225.34375 196.625 C 225.488281 196.539062 225.597656 196.535156 225.667969 196.613281 C 225.738281 196.628906 225.980469 196.8125 226.398438 197.15625 C 226.699219 197.410156 226.871094 197.523438 226.910156 197.496094 C 226.980469 197.414062 226.976562 197.261719 226.898438 197.042969 C 226.761719 196.464844 226.695312 195.816406 226.695312 195.105469 C 226.699219 194.835938 226.675781 194.6875 226.628906 194.648438 C 226.617188 194.640625 226.609375 194.632812 226.597656 194.632812 C 226.472656 194.628906 226.019531 194.898438 225.238281 195.4375 C 224.953125 195.617188 224.777344 196.027344 224.707031 196.660156 C 224.542969 197.472656 224.253906 199.117188 223.847656 201.597656 C 223.707031 202.460938 223.589844 203.144531 223.496094 203.652344 C 223.15625 203.632812 222.898438 203.683594 222.726562 203.808594 C 222.511719 203.933594 222.535156 204.058594 222.804688 204.179688 C 223.226562 204.261719 223.660156 204.683594 224.09375 205.445312 C 224.257812 205.71875 224.660156 205.8125 225.304688 205.726562 C 225.605469 205.636719 225.652344 205.464844 225.445312 205.21875 C 225.238281 204.960938 224.90625 204.664062 224.457031 204.335938 C 224.210938 204.148438 224.023438 204.003906 223.894531 203.890625 Z M 223.894531 203.890625"/></g></g></g></g><g clip-path="url(#ad)"><g clip-path="url(#ae)"><g clip-path="url(#af)"><g clip-path="url(#ag)"><path d="M 225.0625 202.632812 C 225.855469 202.78125 226.65625 203.488281 227.464844 204.757812 C 227.464844 204.847656 227.609375 205.113281 227.898438 205.546875 C 228 205.640625 228.0625 205.648438 228.085938 205.570312 C 228.089844 205.550781 228.089844 205.527344 228.09375 205.503906 C 228.179688 204.933594 227.824219 204.089844 227.027344 202.972656 C 226.863281 202.8125 226.523438 202.390625 226.011719 201.703125 C 225.925781 201.578125 225.792969 201.550781 225.609375 201.613281 C 225.160156 201.910156 224.910156 202.179688 224.859375 202.425781 C 224.835938 202.523438 224.90625 202.589844 225.0625 202.632812 Z M 225.0625 202.632812"/></g></g></g></g><g clip-path="url(#ah)"><g clip-path="url(#ai)"><g clip-path="url(#aj)"><g clip-path="url(#ak)"><path d="M 227.210938 199.816406 C 226.90625 199.738281 226.601562 199.578125 226.300781 199.339844 C 226.144531 199.222656 226.019531 199.167969 225.925781 199.183594 C 225.875 199.191406 225.816406 199.21875 225.75 199.261719 C 225.515625 199.414062 225.328125 199.601562 225.195312 199.820312 C 225.097656 199.980469 225.074219 200.113281 225.121094 200.222656 C 225.15625 200.296875 225.261719 200.300781 225.433594 200.242188 C 225.625 200.230469 226.160156 200.34375 227.035156 200.574219 C 227.335938 200.660156 227.582031 200.644531 227.777344 200.527344 C 228.269531 200.339844 228.636719 199.820312 228.886719 198.957031 C 229.046875 198.414062 229.105469 197.957031 229.066406 197.59375 C 229.058594 197.523438 229.046875 197.472656 229.027344 197.433594 C 228.957031 197.273438 228.855469 197.226562 228.726562 197.289062 C 228.574219 197.351562 228.351562 197.53125 228.066406 197.828125 C 227.9375 197.976562 227.910156 198.160156 227.988281 198.378906 C 228.109375 198.679688 228.097656 199.019531 227.949219 199.394531 C 227.890625 199.550781 227.816406 199.679688 227.722656 199.789062 C 227.621094 199.859375 227.449219 199.867188 227.210938 199.816406 Z M 227.210938 199.816406"/></g></g></g></g><g clip-path="url(#al)"><g clip-path="url(#am)"><g clip-path="url(#an)"><g clip-path="url(#ao)"><path d="M 229.777344 202.84375 L 230.367188 202.988281 C 230.824219 203.113281 231.464844 203.296875 232.292969 203.546875 C 231.953125 204.917969 231.640625 206.210938 231.359375 207.433594 C 231.296875 207.660156 231.386719 207.730469 231.625 207.636719 C 232.042969 207.449219 232.285156 207.152344 232.34375 206.746094 C 232.347656 206.726562 232.351562 206.710938 232.351562 206.695312 C 232.570312 204.34375 233.316406 201.609375 234.597656 198.488281 C 234.675781 198.289062 234.679688 198.144531 234.605469 198.058594 C 234.5 197.945312 234.34375 197.953125 234.128906 198.070312 C 233.507812 198.488281 233.175781 198.886719 233.128906 199.273438 C 233 200.082031 232.777344 201.261719 232.460938 202.8125 C 231.40625 202.347656 230.839844 202.089844 230.769531 202.035156 C 230.585938 201.859375 230.363281 201.847656 230.109375 201.996094 C 230.046875 202.027344 229.980469 202.074219 229.910156 202.132812 C 230.140625 200.410156 230.25 199.519531 230.238281 199.453125 C 230.160156 199.265625 230.027344 199.246094 229.835938 199.394531 C 229.738281 199.460938 229.640625 199.570312 229.539062 199.710938 C 229.40625 199.921875 229.3125 200.546875 229.257812 201.582031 C 229.070312 202.714844 228.929688 203.484375 228.828125 203.894531 C 228.753906 204.246094 228.847656 204.335938 229.105469 204.160156 C 229.492188 203.882812 229.714844 203.441406 229.777344 202.84375 Z M 229.777344 202.84375"/></g></g></g></g></svg>