<?xml version="1.0" encoding="UTF-8" ?>
<!DOCTYPE svg PUBLIC "-//W3C//DTD SVG 1.1//EN" "http://www.w3.org/Graphics/SVG/1.1/DTD/svg11.dtd">
<svg width="2252pt" height="2252pt" viewBox="0 0 2252 2252" version="1.1" xmlns="http://www.w3.org/2000/svg">
<g id="#08ceb4ff">
<path fill="#08ceb4" opacity="1.00" d=" M 1119.60 0.00 L 1131.38 0.00 C 1231.99 0.60 1332.54 14.29 1429.45 41.41 C 1512.85 64.71 1593.55 97.71 1669.34 139.61 C 1806.94 215.44 1928.30 320.50 2023.23 445.68 C 2114.84 566.09 2181.78 705.21 2218.36 852.02 C 2240.39 939.72 2251.40 1030.09 2252.00 1120.48 L 2252.00 1132.32 C 2251.45 1193.14 2246.51 1253.96 2236.30 1313.93 C 2207.80 1485.03 2138.49 1649.08 2036.08 1789.05 C 1944.52 1914.72 1826.66 2021.14 1692.28 2099.38 C 1616.63 2143.51 1535.78 2178.77 1451.91 2204.03 C 1348.48 2235.40 1240.48 2251.24 1132.44 2252.00 L 1120.62 2252.00 C 987.47 2251.29 854.39 2227.28 729.79 2180.23 C 591.35 2128.31 463.52 2048.49 355.78 1947.28 C 239.33 1838.19 146.34 1704.14 85.36 1556.66 C 49.80 1470.93 25.03 1380.73 11.76 1288.88 C 4.21 1237.39 0.54 1185.38 0.00 1133.37 L 0.00 1118.80 C 0.74 1030.72 11.29 942.65 32.39 857.11 C 71.52 696.62 147.03 545.23 251.22 417.09 C 308.48 346.42 374.36 282.75 446.88 227.85 C 576.38 129.60 727.46 59.87 886.40 25.63 C 962.95 8.91 1041.27 0.62 1119.60 0.00 M 900.02 127.06 C 815.31 146.12 733.08 176.14 655.98 216.05 C 515.73 288.55 392.70 393.98 299.52 521.43 C 204.60 650.63 140.75 802.53 115.32 960.86 C 89.58 1119.35 101.28 1283.91 150.11 1436.93 C 156.35 1456.11 162.65 1475.32 170.40 1493.95 C 173.24 1503.21 177.56 1512.00 181.02 1521.07 C 227.19 1631.13 292.60 1733.22 373.88 1820.65 C 384.93 1833.02 396.64 1844.82 408.46 1856.47 C 520.57 1966.83 658.43 2050.96 808.07 2099.61 C 941.26 2143.23 1083.48 2158.54 1222.96 2145.41 C 1328.85 2135.53 1433.18 2108.93 1530.84 2066.80 C 1613.89 2031.03 1692.12 1984.13 1762.88 1927.83 C 1830.60 1874.00 1891.48 1811.57 1943.61 1742.53 C 2000.68 1666.97 2047.28 1583.47 2081.39 1495.12 C 2121.24 1392.27 2144.00 1282.87 2148.90 1172.70 C 2149.95 1149.15 2150.25 1125.57 2149.64 1102.01 C 1825.09 1289.37 1500.55 1476.74 1176.02 1664.12 C 1159.17 1673.62 1142.86 1684.04 1125.77 1693.11 C 1077.56 1718.82 1024.96 1736.41 970.89 1744.40 C 946.77 1748.05 922.40 1750.16 897.99 1749.78 C 872.45 1750.17 846.95 1747.85 821.74 1743.88 C 719.56 1728.10 623.23 1677.86 551.30 1603.65 C 495.87 1546.99 454.64 1476.47 432.80 1400.26 C 430.10 1390.17 426.89 1380.18 425.22 1369.86 L 424.78 1369.16 C 422.01 1353.44 418.25 1337.80 417.27 1321.83 L 416.75 1321.10 C 416.71 1315.57 415.61 1310.13 415.46 1304.62 C 409.54 1231.65 420.19 1157.33 447.06 1089.19 C 481.87 999.83 544.14 921.47 623.15 867.14 C 642.97 853.11 664.36 841.55 685.43 829.55 C 1014.37 639.63 1343.31 449.72 1672.25 259.81 C 1654.26 248.33 1635.82 237.58 1617.13 227.30 C 1507.59 167.24 1386.91 127.60 1263.07 111.16 C 1142.38 95.01 1018.82 100.31 900.02 127.06 M 1436.36 448.38 C 1394.06 472.73 1351.86 497.22 1309.56 521.54 C 1278.17 539.79 1246.58 557.71 1215.31 576.16 C 1216.55 578.87 1218.15 581.41 1220.17 583.63 C 1214.68 586.58 1209.36 589.81 1203.96 592.89 C 1187.62 601.27 1172.01 611.01 1156.02 620.03 C 1013.15 702.50 870.29 785.00 727.42 867.48 C 717.86 872.99 707.88 877.72 698.30 883.19 C 655.20 907.19 616.36 938.79 583.93 975.97 C 558.01 1005.62 536.38 1038.97 519.53 1074.56 C 481.05 1155.59 468.61 1248.77 484.94 1337.02 C 493.49 1383.84 510.01 1429.18 533.40 1470.63 C 571.35 1538.24 627.81 1595.48 695.42 1633.53 C 773.77 1678.39 866.45 1697.57 956.18 1687.68 C 1003.51 1682.52 1049.94 1669.33 1092.95 1648.94 C 1099.06 1646.78 1104.57 1643.35 1110.29 1640.36 C 1121.50 1634.38 1132.43 1627.90 1143.21 1621.17 C 1156.27 1612.80 1169.89 1605.35 1183.27 1597.52 C 1254.11 1556.63 1324.94 1515.72 1395.77 1474.82 C 1410.69 1466.36 1425.32 1457.35 1440.57 1449.49 C 1505.41 1412.07 1570.21 1374.57 1635.04 1337.14 C 1668.40 1317.77 1701.95 1298.73 1735.16 1279.10 C 1747.40 1272.00 1757.34 1260.97 1762.93 1247.95 C 1770.75 1230.19 1770.21 1208.98 1761.38 1191.68 C 1753.51 1175.80 1739.02 1163.35 1722.08 1158.09 C 1705.02 1152.57 1685.76 1154.38 1670.07 1163.08 C 1655.39 1171.30 1640.88 1179.83 1626.30 1188.23 C 1569.88 1220.86 1513.45 1253.47 1457.03 1286.09 C 1451.45 1289.19 1446.10 1292.71 1440.30 1295.38 C 1422.90 1302.34 1402.07 1299.15 1387.27 1287.75 C 1372.15 1276.42 1363.63 1256.92 1365.76 1238.13 C 1367.41 1220.79 1377.86 1204.64 1392.96 1195.98 C 1470.77 1150.79 1548.75 1105.88 1626.62 1060.80 C 1660.17 1041.29 1693.91 1022.09 1727.31 1002.34 C 1763.00 981.69 1798.72 961.09 1834.40 940.42 C 1846.91 933.32 1857.13 922.18 1862.79 908.92 C 1869.87 892.83 1870.18 873.91 1863.53 857.62 C 1856.33 839.45 1840.71 824.84 1822.02 819.04 C 1804.49 813.34 1784.67 815.47 1768.72 824.69 C 1742.24 839.90 1715.84 855.24 1689.39 870.50 C 1619.81 910.44 1550.41 950.70 1480.95 990.86 C 1446.57 1011.33 1411.77 1031.09 1377.18 1051.23 C 1369.40 1055.57 1361.95 1060.78 1353.26 1063.18 C 1336.61 1068.17 1317.76 1064.53 1304.06 1053.87 C 1290.35 1043.39 1282.10 1026.20 1282.59 1008.93 C 1282.85 991.44 1292.03 974.38 1306.54 964.59 C 1312.45 960.68 1318.73 957.39 1324.82 953.76 C 1398.27 911.24 1471.73 868.71 1545.18 826.18 C 1551.69 821.92 1558.80 818.51 1564.63 813.27 C 1568.01 814.36 1570.79 811.07 1573.67 809.75 C 1639.71 771.36 1705.89 733.22 1771.95 694.86 C 1774.44 693.49 1776.96 692.10 1779.05 690.14 C 1778.33 688.43 1777.58 686.73 1776.83 685.06 C 1800.11 684.68 1822.57 671.06 1833.73 650.64 C 1842.57 634.93 1844.71 615.63 1839.49 598.38 C 1834.62 581.87 1823.26 567.35 1808.30 558.81 C 1793.29 550.10 1774.86 547.48 1758.05 551.79 C 1741.26 556.01 1726.27 566.95 1717.27 581.74 C 1715.58 579.01 1713.79 576.34 1711.87 573.76 C 1708.36 575.11 1705.18 577.12 1701.96 579.02 C 1635.31 617.68 1568.62 656.25 1501.94 694.86 C 1499.76 696.08 1497.25 697.07 1496.04 699.42 C 1484.75 704.16 1474.39 710.81 1463.75 716.81 C 1406.52 749.92 1349.28 783.02 1292.05 816.12 C 1286.51 819.24 1281.13 822.66 1275.42 825.45 C 1258.16 833.23 1236.89 830.59 1221.80 819.24 C 1208.26 809.33 1199.86 792.83 1199.85 776.04 C 1199.63 757.30 1209.81 738.50 1226.30 729.32 C 1245.64 718.04 1265.10 706.98 1284.39 695.63 C 1288.80 703.77 1293.30 711.90 1298.25 719.73 C 1303.97 717.18 1309.02 713.36 1314.59 710.50 C 1379.69 673.00 1444.72 635.39 1509.79 597.83 C 1516.36 593.78 1523.49 590.61 1529.69 585.98 C 1524.68 576.55 1518.93 567.55 1513.84 558.17 C 1493.43 523.18 1473.38 487.98 1452.98 452.98 C 1450.86 449.73 1449.62 445.80 1446.89 443.03 C 1442.97 443.85 1439.81 446.52 1436.36 448.38 Z" />
</g>
<g id="#ffffffff">
<path fill="#ffffff" opacity="1.00" d=" M 900.02 127.06 C 1018.82 100.31 1142.38 95.01 1263.07 111.16 C 1386.91 127.60 1507.59 167.24 1617.13 227.30 C 1441.05 328.92 1265.02 430.62 1088.93 532.22 C 1065.68 525.62 1041.85 521.15 1018.01 517.22 C 950.98 506.62 882.54 505.01 815.08 512.31 C 733.74 521.10 653.84 543.18 579.57 577.52 C 510.45 609.40 446.21 651.81 389.60 702.70 C 335.59 751.28 288.48 807.55 250.34 869.38 C 214.66 927.11 186.77 989.64 167.76 1054.79 C 127.19 1193.19 127.11 1343.17 167.49 1481.63 C 168.67 1485.68 170.31 1489.65 170.40 1493.95 C 162.65 1475.32 156.35 1456.11 150.11 1436.93 C 101.28 1283.91 89.58 1119.35 115.32 960.86 C 140.75 802.53 204.60 650.63 299.52 521.43 C 392.70 393.98 515.73 288.55 655.98 216.05 C 733.08 176.14 815.31 146.12 900.02 127.06 Z" />
<path fill="#ffffff" opacity="1.00" d=" M 1631.36 1471.55 C 1803.84 1371.88 1976.40 1272.34 2148.90 1172.70 C 2144.00 1282.87 2121.24 1392.27 2081.39 1495.12 C 2047.28 1583.47 2000.68 1666.97 1943.61 1742.53 C 1891.48 1811.57 1830.60 1874.00 1762.88 1927.83 C 1692.12 1984.13 1613.89 2031.03 1530.84 2066.80 C 1433.18 2108.93 1328.85 2135.53 1222.96 2145.41 C 1083.48 2158.54 941.26 2143.23 808.07 2099.61 C 658.43 2050.96 520.57 1966.83 408.46 1856.47 C 396.64 1844.82 384.93 1833.02 373.88 1820.65 C 375.26 1821.73 376.68 1822.80 378.02 1823.97 C 432.92 1875.46 495.50 1918.77 563.07 1951.94 C 636.23 1987.92 715.25 2011.93 796.06 2022.71 C 869.99 2032.60 945.36 2031.69 1019.02 2019.94 C 1089.52 2008.71 1158.39 1987.41 1222.92 1956.87 C 1282.82 1928.58 1338.97 1892.37 1389.50 1849.53 C 1491.92 1763.03 1570.96 1649.05 1615.53 1522.57 C 1621.38 1505.75 1627.08 1488.84 1631.36 1471.55 Z" />
</g>
<g id="#ff9900ff">
<path fill="#ff9900" opacity="1.00" d=" M 1617.13 227.30 C 1635.82 237.58 1654.26 248.33 1672.25 259.81 C 1343.31 449.72 1014.37 639.63 685.43 829.55 C 664.36 841.55 642.97 853.11 623.15 867.14 C 544.14 921.47 481.87 999.83 447.06 1089.19 C 420.19 1157.33 409.54 1231.65 415.46 1304.62 C 415.61 1310.13 416.71 1315.57 416.75 1321.10 L 417.27 1321.83 C 418.25 1337.80 422.01 1353.44 424.78 1369.16 L 425.22 1369.86 C 426.89 1380.18 430.10 1390.17 432.80 1400.26 C 454.64 1476.47 495.87 1546.99 551.30 1603.65 C 623.23 1677.86 719.56 1728.10 821.74 1743.88 C 846.95 1747.85 872.45 1750.17 897.99 1749.78 C 922.40 1750.16 946.77 1748.05 970.89 1744.40 C 1024.96 1736.41 1077.56 1718.82 1125.77 1693.11 C 1142.86 1684.04 1159.17 1673.62 1176.02 1664.12 C 1500.55 1476.74 1825.09 1289.37 2149.64 1102.01 C 2150.25 1125.57 2149.95 1149.15 2148.90 1172.70 C 1976.40 1272.34 1803.84 1371.88 1631.36 1471.55 C 1609.05 1484.40 1586.73 1497.21 1564.50 1510.19 C 1539.40 1524.60 1514.28 1538.98 1489.33 1553.65 C 1392.04 1609.51 1294.99 1665.80 1197.79 1721.84 C 1182.20 1730.98 1166.81 1740.47 1150.77 1748.82 C 1079.47 1786.54 999.59 1807.78 919.00 1810.73 C 833.64 1814.09 747.50 1797.08 670.04 1761.01 C 602.75 1729.83 542.02 1684.62 492.77 1629.18 C 443.03 1573.39 404.97 1507.22 381.96 1436.09 C 353.63 1348.96 348.14 1254.63 365.58 1164.72 C 383.82 1069.95 428.28 980.49 492.48 908.46 C 517.10 880.71 544.60 855.52 574.34 833.35 C 598.13 815.48 623.64 800.06 649.71 785.79 C 745.94 730.33 842.09 674.72 938.31 619.22 C 941.09 617.62 943.82 615.91 946.60 614.31 C 972.12 599.83 997.42 584.99 1022.87 570.40 C 1044.88 557.64 1066.94 544.99 1088.93 532.22 C 1265.02 430.62 1441.05 328.92 1617.13 227.30 Z" />
</g>
<g id="#00ceb4ff">
<path fill="#00ceb4" opacity="1.00" d=" M 1436.36 448.38 C 1439.81 446.52 1442.97 443.85 1446.89 443.03 C 1449.62 445.80 1450.86 449.73 1452.98 452.98 C 1473.38 487.98 1493.43 523.18 1513.84 558.17 C 1518.93 567.55 1524.68 576.55 1529.69 585.98 C 1523.49 590.61 1516.36 593.78 1509.79 597.83 C 1444.72 635.39 1379.69 673.00 1314.59 710.50 C 1309.02 713.36 1303.97 717.18 1298.25 719.73 C 1293.30 711.90 1288.80 703.77 1284.39 695.63 C 1291.03 691.68 1297.98 688.06 1303.68 682.76 C 1317.37 670.59 1325.29 652.33 1324.99 634.03 C 1324.86 615.40 1316.08 597.08 1301.70 585.26 C 1284.24 570.51 1258.69 566.27 1237.43 574.68 C 1231.33 576.96 1225.84 580.50 1220.17 583.63 C 1218.15 581.41 1216.55 578.87 1215.31 576.16 C 1246.58 557.71 1278.17 539.79 1309.56 521.54 C 1351.86 497.22 1394.06 472.73 1436.36 448.38 M 1397.42 485.62 C 1384.51 488.20 1372.47 494.87 1363.44 504.45 C 1352.40 516.07 1346.10 531.98 1346.06 548.00 C 1345.87 566.48 1354.29 584.79 1368.36 596.75 C 1381.10 607.75 1398.33 613.33 1415.11 611.91 C 1432.96 610.54 1450.00 601.18 1460.78 586.89 C 1471.44 572.96 1475.93 554.51 1472.82 537.24 C 1469.88 520.14 1459.61 504.44 1445.08 494.95 C 1431.23 485.76 1413.72 482.32 1397.42 485.62 Z" />
<path fill="#00ceb4" opacity="1.00" d=" M 1701.96 579.02 C 1705.18 577.12 1708.36 575.11 1711.87 573.76 C 1713.79 576.34 1715.58 579.01 1717.27 581.74 C 1708.84 595.43 1705.53 612.17 1708.16 628.03 C 1710.68 643.79 1718.99 658.53 1731.14 668.88 C 1743.69 679.65 1760.29 685.52 1776.83 685.06 C 1777.58 686.73 1778.33 688.43 1779.05 690.14 C 1776.96 692.10 1774.44 693.49 1771.95 694.86 C 1705.89 733.22 1639.71 771.36 1573.67 809.75 C 1570.79 811.07 1568.01 814.36 1564.63 813.27 C 1584.64 795.89 1592.65 766.22 1583.89 741.16 C 1578.43 724.85 1566.54 710.76 1551.23 702.85 C 1534.42 693.94 1513.83 692.67 1496.04 699.42 C 1497.25 697.07 1499.76 696.08 1501.94 694.86 C 1568.62 656.25 1635.31 617.68 1701.96 579.02 Z" />
</g>
<g id="#160f44ff">
<path fill="#160f44" opacity="1.00" d=" M 1397.42 485.62 C 1413.72 482.32 1431.23 485.76 1445.08 494.95 C 1459.61 504.44 1469.88 520.14 1472.82 537.24 C 1475.93 554.51 1471.44 572.96 1460.78 586.89 C 1450.00 601.18 1432.96 610.54 1415.11 611.91 C 1398.33 613.33 1381.10 607.75 1368.36 596.75 C 1354.29 584.79 1345.87 566.48 1346.06 548.00 C 1346.10 531.98 1352.40 516.07 1363.44 504.45 C 1372.47 494.87 1384.51 488.20 1397.42 485.62 Z" />
<path fill="#160f44" opacity="1.00" d=" M 1758.05 551.79 C 1774.86 547.48 1793.29 550.10 1808.30 558.81 C 1823.26 567.35 1834.62 581.87 1839.49 598.38 C 1844.71 615.63 1842.57 634.93 1833.73 650.64 C 1822.57 671.06 1800.11 684.68 1776.83 685.06 C 1760.29 685.52 1743.69 679.65 1731.14 668.88 C 1718.99 658.53 1710.68 643.79 1708.16 628.03 C 1705.53 612.17 1708.84 595.43 1717.27 581.74 C 1726.27 566.95 1741.26 556.01 1758.05 551.79 Z" />
<path fill="#160f44" opacity="1.00" d=" M 1237.43 574.68 C 1258.69 566.27 1284.24 570.51 1301.70 585.26 C 1316.08 597.08 1324.86 615.40 1324.99 634.03 C 1325.29 652.33 1317.37 670.59 1303.68 682.76 C 1297.98 688.06 1291.03 691.68 1284.39 695.63 C 1265.10 706.98 1245.64 718.04 1226.30 729.32 C 1209.81 738.50 1199.63 757.30 1199.85 776.04 C 1199.86 792.83 1208.26 809.33 1221.80 819.24 C 1236.89 830.59 1258.16 833.23 1275.42 825.45 C 1281.13 822.66 1286.51 819.24 1292.05 816.12 C 1349.28 783.02 1406.52 749.92 1463.75 716.81 C 1474.39 710.81 1484.75 704.16 1496.04 699.42 C 1513.83 692.67 1534.42 693.94 1551.23 702.85 C 1566.54 710.76 1578.43 724.85 1583.89 741.16 C 1592.65 766.22 1584.64 795.89 1564.63 813.27 C 1558.80 818.51 1551.69 821.92 1545.18 826.18 C 1471.73 868.71 1398.27 911.24 1324.82 953.76 C 1318.73 957.39 1312.45 960.68 1306.54 964.59 C 1292.03 974.38 1282.85 991.44 1282.59 1008.93 C 1282.10 1026.20 1290.35 1043.39 1304.06 1053.87 C 1317.76 1064.53 1336.61 1068.17 1353.26 1063.18 C 1361.95 1060.78 1369.40 1055.57 1377.18 1051.23 C 1411.77 1031.09 1446.57 1011.33 1480.95 990.86 C 1550.41 950.70 1619.81 910.44 1689.39 870.50 C 1715.84 855.24 1742.24 839.90 1768.72 824.69 C 1784.67 815.47 1804.49 813.34 1822.02 819.04 C 1840.71 824.84 1856.33 839.45 1863.53 857.62 C 1870.18 873.91 1869.87 892.83 1862.79 908.92 C 1857.13 922.18 1846.91 933.32 1834.40 940.42 C 1798.72 961.09 1763.00 981.69 1727.31 1002.34 C 1693.91 1022.09 1660.17 1041.29 1626.62 1060.80 C 1548.75 1105.88 1470.77 1150.79 1392.96 1195.98 C 1377.86 1204.64 1367.41 1220.79 1365.76 1238.13 C 1363.63 1256.92 1372.15 1276.42 1387.27 1287.75 C 1402.07 1299.15 1422.90 1302.34 1440.30 1295.38 C 1446.10 1292.71 1451.45 1289.19 1457.03 1286.09 C 1513.45 1253.47 1569.88 1220.86 1626.30 1188.23 C 1640.88 1179.83 1655.39 1171.30 1670.07 1163.08 C 1685.76 1154.38 1705.02 1152.57 1722.08 1158.09 C 1739.02 1163.35 1753.51 1175.80 1761.38 1191.68 C 1770.21 1208.98 1770.75 1230.19 1762.93 1247.95 C 1757.34 1260.97 1747.40 1272.00 1735.16 1279.10 C 1701.95 1298.73 1668.40 1317.77 1635.04 1337.14 C 1570.21 1374.57 1505.41 1412.07 1440.57 1449.49 C 1425.32 1457.35 1410.69 1466.36 1395.77 1474.82 C 1324.94 1515.72 1254.11 1556.63 1183.27 1597.52 C 1169.89 1605.35 1156.27 1612.80 1143.21 1621.17 C 1132.43 1627.90 1121.50 1634.38 1110.29 1640.36 C 1104.57 1643.35 1099.06 1646.78 1092.95 1648.94 C 1049.94 1669.33 1003.51 1682.52 956.18 1687.68 C 866.45 1697.57 773.77 1678.39 695.42 1633.53 C 627.81 1595.48 571.35 1538.24 533.40 1470.63 C 510.01 1429.18 493.49 1383.84 484.94 1337.02 C 468.61 1248.77 481.05 1155.59 519.53 1074.56 C 536.38 1038.97 558.01 1005.62 583.93 975.97 C 616.36 938.79 655.20 907.19 698.30 883.19 C 707.88 877.72 717.86 872.99 727.42 867.48 C 870.29 785.00 1013.15 702.50 1156.02 620.03 C 1172.01 611.01 1187.62 601.27 1203.96 592.89 C 1209.36 589.81 1214.68 586.58 1220.17 583.63 C 1225.84 580.50 1231.33 576.96 1237.43 574.68 M 849.94 939.60 C 848.33 941.08 845.89 940.15 843.97 940.96 C 808.00 947.90 773.16 960.88 741.54 979.41 C 732.86 984.27 724.79 990.12 716.24 995.20 C 677.50 1022.35 644.70 1057.91 620.80 1098.73 C 598.40 1136.73 583.90 1179.32 578.21 1223.05 C 571.80 1272.20 576.57 1322.80 592.24 1369.84 C 615.66 1441.17 664.44 1503.76 727.70 1544.16 C 787.46 1582.89 860.12 1601.08 931.05 1595.59 C 975.53 1592.16 1019.56 1580.01 1058.95 1558.90 C 1108.59 1533.28 1151.31 1494.60 1182.08 1448.01 C 1193.67 1430.22 1204.12 1411.50 1211.70 1391.66 C 1213.84 1388.10 1216.25 1384.59 1217.35 1380.53 C 1221.08 1372.37 1223.63 1363.74 1226.11 1355.13 C 1231.10 1337.65 1234.64 1319.68 1236.67 1301.71 C 1237.93 1298.24 1236.54 1294.45 1237.86 1291.01 C 1239.12 1283.81 1237.09 1276.28 1239.22 1269.19 C 1239.10 1264.76 1239.82 1260.20 1238.46 1255.91 C 1237.76 1250.31 1238.76 1244.58 1237.98 1239.00 C 1236.43 1234.98 1238.03 1230.57 1236.60 1226.54 C 1230.71 1174.04 1211.27 1123.19 1181.77 1079.36 C 1171.95 1065.03 1161.68 1050.88 1149.45 1038.52 C 1145.66 1035.30 1143.47 1030.62 1139.39 1027.70 C 1133.98 1024.16 1130.50 1018.39 1125.01 1014.95 C 1117.42 1007.44 1108.55 1001.36 1099.97 995.03 C 1085.29 984.11 1069.24 975.26 1053.05 966.82 C 1042.80 962.27 1032.59 957.63 1022.07 953.70 C 1010.49 949.81 998.92 945.82 986.99 943.09 C 979.05 941.25 971.08 938.89 962.91 938.57 L 964.16 937.94 C 958.49 937.21 952.47 938.25 947.02 936.65 C 937.97 937.28 929.04 935.41 920.00 935.50 C 907.29 934.95 894.58 935.65 881.87 935.63 C 880.19 935.69 878.66 936.51 877.00 936.58 C 867.88 936.63 858.99 938.78 849.94 939.60 Z" />
</g>
<g id="#ffe5bfff">
<path fill="#ffe5bf" opacity="1.00" d=" M 815.08 512.31 C 882.54 505.01 950.98 506.62 1018.01 517.22 C 1041.85 521.15 1065.68 525.62 1088.93 532.22 C 1066.94 544.99 1044.88 557.64 1022.87 570.40 C 998.25 566.62 973.55 563.07 948.66 561.47 C 876.13 556.40 802.80 562.24 732.10 579.26 C 656.86 597.24 584.68 627.86 519.34 669.26 C 457.20 708.59 401.24 757.64 354.07 814.05 C 310.39 866.26 274.21 924.77 247.20 987.27 C 205.10 1084.19 185.50 1190.69 189.70 1296.25 C 192.91 1383.09 212.33 1469.32 246.79 1549.11 C 276.06 1617.10 316.16 1680.39 364.99 1736.02 C 413.88 1791.78 471.55 1839.84 535.24 1877.84 C 604.48 1919.21 680.87 1948.59 760.01 1964.18 C 851.17 1982.16 945.84 1982.10 1036.98 1964.02 C 1104.29 1950.67 1169.62 1927.40 1230.21 1895.17 C 1345.43 1834.15 1443.16 1740.65 1509.22 1628.24 C 1528.00 1596.48 1544.22 1563.21 1557.79 1528.90 C 1560.09 1522.68 1562.85 1516.62 1564.50 1510.19 C 1586.73 1497.21 1609.05 1484.40 1631.36 1471.55 C 1627.08 1488.84 1621.38 1505.75 1615.53 1522.57 C 1570.96 1649.05 1491.92 1763.03 1389.50 1849.53 C 1338.97 1892.37 1282.82 1928.58 1222.92 1956.87 C 1158.39 1987.41 1089.52 2008.71 1019.02 2019.94 C 945.36 2031.69 869.99 2032.60 796.06 2022.71 C 715.25 2011.93 636.23 1987.92 563.07 1951.94 C 495.50 1918.77 432.92 1875.46 378.02 1823.97 C 376.68 1822.80 375.26 1821.73 373.88 1820.65 C 292.60 1733.22 227.19 1631.13 181.02 1521.07 C 177.56 1512.00 173.24 1503.21 170.40 1493.95 C 170.31 1489.65 168.67 1485.68 167.49 1481.63 C 127.11 1343.17 127.19 1193.19 167.76 1054.79 C 186.77 989.64 214.66 927.11 250.34 869.38 C 288.48 807.55 335.59 751.28 389.60 702.70 C 446.21 651.81 510.45 609.40 579.57 577.52 C 653.84 543.18 733.74 521.10 815.08 512.31 Z" />
</g>
<g id="#ffcd80ff">
<path fill="#ffcd80" opacity="1.00" d=" M 732.10 579.26 C 802.80 562.24 876.13 556.40 948.66 561.47 C 973.55 563.07 998.25 566.62 1022.87 570.40 C 997.42 584.99 972.12 599.83 946.60 614.31 C 933.17 612.55 919.57 612.58 906.04 612.25 C 829.62 611.27 753.02 623.66 680.90 648.99 C 609.37 674.02 542.31 711.69 483.59 759.59 C 431.25 802.25 385.49 852.98 348.54 909.50 C 286.94 1003.21 250.21 1113.06 243.09 1224.98 C 237.17 1314.11 249.38 1404.47 279.41 1488.63 C 305.29 1561.54 344.32 1629.73 393.92 1689.09 C 441.23 1745.82 498.17 1794.51 561.57 1832.42 C 630.02 1873.44 706.08 1901.71 784.70 1915.37 C 880.39 1931.98 979.79 1927.40 1073.41 1901.45 C 1139.67 1883.17 1202.98 1854.29 1260.24 1816.28 C 1346.84 1759.02 1419.55 1680.92 1470.44 1590.42 C 1477.08 1578.35 1483.91 1566.32 1489.33 1553.65 C 1514.28 1538.98 1539.40 1524.60 1564.50 1510.19 C 1562.85 1516.62 1560.09 1522.68 1557.79 1528.90 C 1544.22 1563.21 1528.00 1596.48 1509.22 1628.24 C 1443.16 1740.65 1345.43 1834.15 1230.21 1895.17 C 1169.62 1927.40 1104.29 1950.67 1036.98 1964.02 C 945.84 1982.10 851.17 1982.16 760.01 1964.18 C 680.87 1948.59 604.48 1919.21 535.24 1877.84 C 471.55 1839.84 413.88 1791.78 364.99 1736.02 C 316.16 1680.39 276.06 1617.10 246.79 1549.11 C 212.33 1469.32 192.91 1383.09 189.70 1296.25 C 185.50 1190.69 205.10 1084.19 247.20 987.27 C 274.21 924.77 310.39 866.26 354.07 814.05 C 401.24 757.64 457.20 708.59 519.34 669.26 C 584.68 627.86 656.86 597.24 732.10 579.26 Z" />
</g>
<g id="#ffb340ff">
<path fill="#ffb340" opacity="1.00" d=" M 680.90 648.99 C 753.02 623.66 829.62 611.27 906.04 612.25 C 919.57 612.58 933.17 612.55 946.60 614.31 C 943.82 615.91 941.09 617.62 938.31 619.22 C 842.09 674.72 745.94 730.33 649.71 785.79 C 623.64 800.06 598.13 815.48 574.34 833.35 C 544.60 855.52 517.10 880.71 492.48 908.46 C 428.28 980.49 383.82 1069.95 365.58 1164.72 C 348.14 1254.63 353.63 1348.96 381.96 1436.09 C 404.97 1507.22 443.03 1573.39 492.77 1629.18 C 542.02 1684.62 602.75 1729.83 670.04 1761.01 C 747.50 1797.08 833.64 1814.09 919.00 1810.73 C 999.59 1807.78 1079.47 1786.54 1150.77 1748.82 C 1166.81 1740.47 1182.20 1730.98 1197.79 1721.84 C 1294.99 1665.80 1392.04 1609.51 1489.33 1553.65 C 1483.91 1566.32 1477.08 1578.35 1470.44 1590.42 C 1419.55 1680.92 1346.84 1759.02 1260.24 1816.28 C 1202.98 1854.29 1139.67 1883.17 1073.41 1901.45 C 979.79 1927.40 880.39 1931.98 784.70 1915.37 C 706.08 1901.71 630.02 1873.44 561.57 1832.42 C 498.17 1794.51 441.23 1745.82 393.92 1689.09 C 344.32 1629.73 305.29 1561.54 279.41 1488.63 C 249.38 1404.47 237.17 1314.11 243.09 1224.98 C 250.21 1113.06 286.94 1003.21 348.54 909.50 C 385.49 852.98 431.25 802.25 483.59 759.59 C 542.31 711.69 609.37 674.02 680.90 648.99 Z" />
</g>
<g id="#f72678ff">
<path fill="#f72678" opacity="1.00" d=" M 849.94 939.60 C 858.99 938.78 867.88 936.63 877.00 936.58 C 878.66 936.51 880.19 935.69 881.87 935.63 C 894.58 935.65 907.29 934.95 920.00 935.50 C 929.04 935.41 937.97 937.28 947.02 936.65 C 952.47 938.25 958.49 937.21 964.16 937.94 L 962.91 938.57 C 953.14 939.38 943.11 936.27 933.59 939.47 C 915.51 944.45 898.63 953.36 883.93 964.97 C 872.42 974.83 862.00 986.08 854.05 999.04 C 833.23 1031.96 826.31 1071.60 825.63 1109.99 C 825.40 1117.68 826.71 1125.29 826.93 1132.97 C 829.64 1164.84 837.25 1196.25 848.79 1226.07 C 852.88 1236.17 856.52 1246.50 861.78 1256.09 C 878.49 1290.83 900.28 1323.16 926.54 1351.41 C 932.58 1357.41 938.61 1363.42 944.58 1369.49 C 970.67 1393.25 1000.01 1414.04 1032.98 1427.04 C 1051.45 1434.64 1071.04 1439.68 1090.94 1441.50 C 1103.62 1441.64 1116.46 1442.47 1128.97 1439.91 C 1154.61 1435.64 1178.62 1423.25 1197.64 1405.65 C 1203.12 1401.78 1206.30 1395.61 1211.70 1391.66 C 1204.12 1411.50 1193.67 1430.22 1182.08 1448.01 C 1151.31 1494.60 1108.59 1533.28 1058.95 1558.90 C 1019.56 1580.01 975.53 1592.16 931.05 1595.59 C 860.12 1601.08 787.46 1582.89 727.70 1544.16 C 664.44 1503.76 615.66 1441.17 592.24 1369.84 C 576.57 1322.80 571.80 1272.20 578.21 1223.05 C 583.90 1179.32 598.40 1136.73 620.80 1098.73 C 644.70 1057.91 677.50 1022.35 716.24 995.20 C 724.79 990.12 732.86 984.27 741.54 979.41 C 773.16 960.88 808.00 947.90 843.97 940.96 C 845.89 940.15 848.33 941.08 849.94 939.60 M 624.96 1173.34 C 608.40 1179.74 595.21 1194.00 589.76 1210.86 C 584.50 1226.58 586.05 1244.43 594.02 1258.98 C 601.80 1273.70 615.93 1284.84 632.03 1289.07 C 650.31 1294.09 670.97 1290.00 685.68 1277.96 C 692.24 1273.67 698.73 1268.77 703.24 1262.22 C 709.44 1253.46 712.62 1242.74 712.83 1232.05 C 713.28 1214.17 705.80 1196.41 693.26 1183.75 C 681.82 1172.12 665.57 1164.73 649.09 1165.76 C 640.54 1166.14 632.47 1169.51 624.96 1173.34 M 908.14 1389.30 C 890.49 1395.86 878.32 1414.21 878.66 1432.97 C 878.59 1450.20 888.95 1466.96 904.45 1474.53 C 920.39 1482.77 941.10 1480.69 954.85 1469.08 C 957.96 1467.31 960.45 1464.58 963.29 1462.40 C 975.62 1451.45 978.55 1432.79 973.48 1417.57 C 967.90 1399.83 951.93 1384.94 933.01 1383.33 C 924.29 1382.36 915.77 1385.46 908.14 1389.30 Z" />
</g>
<g id="#fe448dff">
<path fill="#fe448d" opacity="1.00" d=" M 933.59 939.47 C 943.11 936.27 953.14 939.38 962.91 938.57 C 971.08 938.89 979.05 941.25 986.99 943.09 C 998.92 945.82 1010.49 949.81 1022.07 953.70 C 1032.59 957.63 1042.80 962.27 1053.05 966.82 C 1069.24 975.26 1085.29 984.11 1099.97 995.03 C 1108.55 1001.36 1117.42 1007.44 1125.01 1014.95 C 1130.50 1018.39 1133.98 1024.16 1139.39 1027.70 C 1143.47 1030.62 1145.66 1035.30 1149.45 1038.52 C 1161.68 1050.88 1171.95 1065.03 1181.77 1079.36 C 1211.27 1123.19 1230.71 1174.04 1236.60 1226.54 C 1238.03 1230.57 1236.43 1234.98 1237.98 1239.00 C 1238.76 1244.58 1237.76 1250.31 1238.46 1255.91 C 1239.82 1260.20 1239.10 1264.76 1239.22 1269.19 C 1237.09 1276.28 1239.12 1283.81 1237.86 1291.01 C 1236.54 1294.45 1237.93 1298.24 1236.67 1301.71 C 1234.64 1319.68 1231.10 1337.65 1226.11 1355.13 C 1223.63 1363.74 1221.08 1372.37 1217.35 1380.53 C 1216.25 1384.59 1213.84 1388.10 1211.70 1391.66 C 1206.30 1395.61 1203.12 1401.78 1197.64 1405.65 C 1178.62 1423.25 1154.61 1435.64 1128.97 1439.91 C 1116.46 1442.47 1103.62 1441.64 1090.94 1441.50 C 1071.04 1439.68 1051.45 1434.64 1032.98 1427.04 C 1000.01 1414.04 970.67 1393.25 944.58 1369.49 C 938.61 1363.42 932.58 1357.41 926.54 1351.41 C 900.28 1323.16 878.49 1290.83 861.78 1256.09 C 856.52 1246.50 852.88 1236.17 848.79 1226.07 C 837.25 1196.25 829.64 1164.84 826.93 1132.97 C 826.71 1125.29 825.40 1117.68 825.63 1109.99 C 826.31 1071.60 833.23 1031.96 854.05 999.04 C 862.00 986.08 872.42 974.83 883.93 964.97 C 898.63 953.36 915.51 944.45 933.59 939.47 Z" />
</g>
<g id="#cc0d5aff">
<path fill="#cc0d5a" opacity="1.00" d=" M 624.96 1173.34 C 632.47 1169.51 640.54 1166.14 649.09 1165.76 C 665.57 1164.73 681.82 1172.12 693.26 1183.75 C 705.80 1196.41 713.28 1214.17 712.83 1232.05 C 712.62 1242.74 709.44 1253.46 703.24 1262.22 C 698.73 1268.77 692.24 1273.67 685.68 1277.96 C 679.85 1279.39 674.14 1281.62 668.08 1281.85 C 653.32 1282.80 638.67 1276.95 627.59 1267.38 C 613.40 1255.16 604.51 1236.84 604.21 1218.07 C 603.96 1206.20 607.33 1194.12 614.44 1184.53 C 617.46 1180.36 621.54 1177.15 624.96 1173.34 Z" />
<path fill="#cc0d5a" opacity="1.00" d=" M 908.14 1389.30 C 915.77 1385.46 924.29 1382.36 933.01 1383.33 C 951.93 1384.94 967.90 1399.83 973.48 1417.57 C 978.55 1432.79 975.62 1451.45 963.29 1462.40 C 960.45 1464.58 957.96 1467.31 954.85 1469.08 C 948.92 1469.96 943.10 1472.05 937.03 1471.43 C 920.74 1470.41 906.24 1459.35 898.97 1445.05 C 891.65 1431.11 891.01 1413.15 899.63 1399.64 C 902.02 1395.83 905.53 1392.94 908.14 1389.30 Z" />
</g>
<g id="#9a1a4dff">
<path fill="#9a1a4d" opacity="1.00" d=" M 589.76 1210.86 C 595.21 1194.00 608.40 1179.74 624.96 1173.34 C 621.54 1177.15 617.46 1180.36 614.44 1184.53 C 607.33 1194.12 603.96 1206.20 604.21 1218.07 C 604.51 1236.84 613.40 1255.16 627.59 1267.38 C 638.67 1276.95 653.32 1282.80 668.08 1281.85 C 674.14 1281.62 679.85 1279.39 685.68 1277.96 C 670.97 1290.00 650.31 1294.09 632.03 1289.07 C 615.93 1284.84 601.80 1273.70 594.02 1258.98 C 586.05 1244.43 584.50 1226.58 589.76 1210.86 Z" />
<path fill="#9a1a4d" opacity="1.00" d=" M 878.66 1432.97 C 878.32 1414.21 890.49 1395.86 908.14 1389.30 C 905.53 1392.94 902.02 1395.83 899.63 1399.64 C 891.01 1413.15 891.65 1431.11 898.97 1445.05 C 906.24 1459.35 920.74 1470.41 937.03 1471.43 C 943.10 1472.05 948.92 1469.96 954.85 1469.08 C 941.10 1480.69 920.39 1482.77 904.45 1474.53 C 888.95 1466.96 878.59 1450.20 878.66 1432.97 Z" />
</g>
</svg>
